<svg id="Calque_1" data-name="Calque 1" xmlns="http://www.w3.org/2000/svg" viewBox="0 0 250 250"><defs><style>.cls-1{fill:#0c1a29;}.cls-16,.cls-2,.cls-4,.cls-6,.cls-8{fill:#0d1a29;}.cls-3,.cls-5{fill:#c59745;}.cls-19,.cls-4{stroke:#010101;}.cls-11,.cls-12,.cls-13,.cls-14,.cls-15,.cls-16,.cls-17,.cls-4,.cls-5,.cls-6{stroke-miterlimit:10;}.cls-14,.cls-4,.cls-5,.cls-6{stroke-width:0.25px;}.cls-10,.cls-11,.cls-12,.cls-13,.cls-14,.cls-15,.cls-16,.cls-17,.cls-18,.cls-20,.cls-5,.cls-6,.cls-7,.cls-8,.cls-9{stroke:#c59745;}.cls-10,.cls-11,.cls-12,.cls-13,.cls-14,.cls-15,.cls-19,.cls-20,.cls-7,.cls-9{fill:none;}.cls-10,.cls-18,.cls-19,.cls-7,.cls-8,.cls-9{stroke-linecap:round;}.cls-10,.cls-18,.cls-19,.cls-20,.cls-7,.cls-8,.cls-9{stroke-linejoin:round;}.cls-15,.cls-16,.cls-17,.cls-9{stroke-width:0.75px;}.cls-10,.cls-13{stroke-width:0.5px;}.cls-12{stroke-width:2px;}.cls-17,.cls-18{fill:#010101;}.cls-21{fill:#141414;opacity:0.76;}</style></defs><rect class="cls-1" x="-7.33" y="-6.85" width="258.96" height="258.96"/><path class="cls-2" d="M23,36.3a8.35,8.35,0,0,1-8.3-8.6A8.41,8.41,0,0,1,23,19.1H46.7A8.35,8.35,0,0,1,55,27.7a8.41,8.41,0,0,1-8.3,8.6Z"/><path class="cls-3" d="M46.5,19.9a7.75,7.75,0,0,1,7.7,7.9,7.75,7.75,0,0,1-7.7,7.9H23a7.75,7.75,0,0,1-7.7-7.9A7.75,7.75,0,0,1,23,19.9H46.5m0-1.4H23a9.37,9.37,0,0,0-9.1,9.3h0A9.37,9.37,0,0,0,23,37.1H46.7a9.37,9.37,0,0,0,9.1-9.3h0a9.55,9.55,0,0,0-9.3-9.3Z"/><path class="cls-4" d="M37.9,42.4A3.35,3.35,0,0,1,34.6,39V37.5a4.73,4.73,0,0,1,.4-2.6,1.66,1.66,0,0,1,1-.3H50.5A3.35,3.35,0,0,1,53.8,38v1a3.35,3.35,0,0,1-3.3,3.4Z"/><path class="cls-5" d="M50.4,35.5a2.78,2.78,0,0,1,2.7,2.8v1a2.78,2.78,0,0,1-2.7,2.8H37.9a2.78,2.78,0,0,1-2.7-2.8V37.8a10.36,10.36,0,0,1,.1-2,.58.58,0,0,1,.4-.1H50.4m0-1.6H36c-2.1,0-2,1.8-2,4v1a4,4,0,0,0,3.9,4H50.4a4,4,0,0,0,3.9-4v-1a4,4,0,0,0-3.9-4Z"/><path class="cls-4" d="M18,42.4A3.35,3.35,0,0,1,14.7,39V38A3.35,3.35,0,0,1,18,34.6H32.6a1.69,1.69,0,0,1,1,.3c.4.4.4,1.5.4,2.6V39a3.35,3.35,0,0,1-3.3,3.4Z"/><path class="cls-5" d="M32.6,35.5c.4,0,.5.1.5.1a10.36,10.36,0,0,1,.1,2v1.5a2.78,2.78,0,0,1-2.7,2.8H18a2.78,2.78,0,0,1-2.7-2.8v-1A2.78,2.78,0,0,1,18,35.3H32.6m0-1.2H18a4,4,0,0,0-3.9,4v1a4,4,0,0,0,3.9,4H30.6a4,4,0,0,0,3.9-4v-1c.1-2.3.2-4-1.9-4Z"/><rect class="cls-6" x="14.6" y="40" width="40.4" height="6.4"/><path class="cls-5" d="M54.2,40.7v5h-39v-5h39m1.4-1.3H13.9v7.8H55.6V39.4Z"/><path class="cls-6" d="M13.8,46.4a2.11,2.11,0,0,1-2.1-2.1V29.8a2,2,0,0,1,2.1-2.1,2.18,2.18,0,0,1,2.1,2.1V44.3A2,2,0,0,1,13.8,46.4Z"/><path class="cls-5" d="M13.8,28.3a1.54,1.54,0,0,1,1.5,1.5V44.3a1.47,1.47,0,0,1-1.5,1.5,1.42,1.42,0,0,1-1.5-1.5V29.8a1.54,1.54,0,0,1,1.5-1.5m0-1.4h0A2.82,2.82,0,0,0,11,29.8V44.3a2.82,2.82,0,0,0,2.8,2.9h0a2.82,2.82,0,0,0,2.8-2.9V29.8a2.88,2.88,0,0,0-2.8-2.9Z"/><path class="cls-4" d="M55.5,46.4a2.11,2.11,0,0,1-2.1-2.1V29.8a2,2,0,0,1,2.1-2.1,2.11,2.11,0,0,1,2.1,2.1V44.3A2.11,2.11,0,0,1,55.5,46.4Z"/><path class="cls-5" d="M55.5,28.3A1.54,1.54,0,0,1,57,29.8V44.3a1.47,1.47,0,0,1-1.5,1.5A1.54,1.54,0,0,1,54,44.3V29.8a1.47,1.47,0,0,1,1.5-1.5m0-1.4h0a2.82,2.82,0,0,0-2.8,2.9V44.3a2.82,2.82,0,0,0,2.8,2.9h0a2.82,2.82,0,0,0,2.8-2.9V29.8a3,3,0,0,0-2.8-2.9Z"/><rect class="cls-7" x="69.5" y="196.9" width="47.4" height="32.5"/><line class="cls-7" x1="69.5" y1="207.3" x2="117" y2="207.3"/><line class="cls-7" x1="69.5" y1="218.7" x2="116.4" y2="218.7"/><line class="cls-7" x1="75.6" y1="197.6" x2="111.3" y2="197.6"/><line class="cls-7" x1="75.6" y1="208.2" x2="111.3" y2="208.2"/><line class="cls-7" x1="75.6" y1="219.3" x2="111.3" y2="219.3"/><line class="cls-7" x1="32.6" y1="127.7" x2="43" y2="127.7"/><line class="cls-7" x1="43" y1="127.7" x2="48.1" y2="141.8"/><line class="cls-7" x1="43" y1="127.7" x2="48.1" y2="141.8"/><line class="cls-7" x1="32.6" y1="127.7" x2="27.4" y2="141.8"/><line class="cls-7" x1="27.4" y1="141.8" x2="48.1" y2="141.8"/><path class="cls-7" d="M31.2,143a4.32,4.32,0,0,1,0,3.8c-1,2-2.5,11.4,2.1,14.3h8.3"/><path class="cls-7" d="M44.4,143a4.32,4.32,0,0,0,0,3.8c1,2,2.5,11.4-2.1,14.3H34"/><line class="cls-7" x1="31.2" y1="143" x2="44.4" y2="143"/><rect class="cls-7" x="33.3" y="162.3" width="9" height="1.4"/><path class="cls-7" d="M33.3,161s-7,1.8-6.3-1.5,1-5-2.7-6.2"/><path class="cls-7" d="M113.2,140.2s-6.1-1.2-19.4-1.2-19.4,1.2-19.4,1.2V127h38.9v13.2Z"/><line class="cls-7" x1="71.8" y1="168.4" x2="74.3" y2="140.7"/><line class="cls-7" x1="113.2" y1="140.2" x2="115.8" y2="167.9"/><line class="cls-7" x1="71.8" y1="168.4" x2="115.8" y2="168.4"/><line class="cls-7" x1="71.8" y1="168.4" x2="71.8" y2="172.9"/><line class="cls-7" x1="75.2" y1="172.9" x2="71.8" y2="172.9"/><line class="cls-7" x1="75.6" y1="170.6" x2="75.2" y2="172.9"/><line class="cls-7" x1="112" y1="170.6" x2="75.6" y2="170.6"/><line class="cls-7" x1="115.8" y1="168.3" x2="115.8" y2="172.7"/><line class="cls-7" x1="112.5" y1="172.7" x2="115.8" y2="172.7"/><line class="cls-7" x1="112" y1="170.6" x2="112.5" y2="172.7"/><path class="cls-8" d="M92.1,138.8h0a4.06,4.06,0,0,0-4-4.2H83.3a4,4,0,0,0-4,4v.9A88,88,0,0,1,92.1,138.8Z"/><path class="cls-8" d="M96.3,138.8h0a4.06,4.06,0,0,1,4-4.2h4.8a4,4,0,0,1,4,4v.9A90.8,90.8,0,0,0,96.3,138.8Z"/><path class="cls-7" d="M28.8,85h8.6a.47.47,0,0,0,.5-.5h0a.47.47,0,0,0-.5-.5H28.8a.47.47,0,0,0-.5.5h0A.54.54,0,0,0,28.8,85Z"/><line class="cls-7" x1="33.1" y1="78.8" x2="33.1" y2="84.5"/><rect class="cls-7" x="21.8" y="68.6" width="22.8" height="9.8"/><rect class="cls-7" x="44.5" y="83.1" width="13" height="20.8"/><rect class="cls-7" x="46" y="85" width="10.1" height="1.7"/><rect class="cls-7" x="54.6" y="82.2" width="1.5" height="0.8"/><rect class="cls-7" x="51.6" y="82.2" width="1.5" height="0.8"/><line class="cls-7" x1="48.1" y1="90.8" x2="48.1" y2="100"/><line class="cls-7" x1="51" y1="90.8" x2="51" y2="100"/><line class="cls-7" x1="54" y1="90.8" x2="54" y2="100"/><rect class="cls-9" x="20.2" y="92.6" width="21.4" height="6.8"/><rect class="cls-10" x="22.4" y="97.6" width="9.6" height="0.9"/><rect class="cls-10" x="21" y="93.5" width="1.1" height="1.1"/><rect class="cls-10" x="22.9" y="93.5" width="1.1" height="1.1"/><rect class="cls-10" x="24.9" y="93.5" width="1.1" height="1.1"/><rect class="cls-10" x="26.9" y="93.5" width="1.1" height="1.1"/><rect class="cls-10" x="28.7" y="93.5" width="1.1" height="1.1"/><rect class="cls-10" x="30.7" y="93.5" width="1.1" height="1.1"/><rect class="cls-10" x="32.5" y="93.5" width="1.1" height="1.1"/><rect class="cls-10" x="21" y="95.1" width="1.1" height="1.1"/><rect class="cls-10" x="22.9" y="95.1" width="1.1" height="1.1"/><rect class="cls-10" x="24.9" y="95.1" width="1.1" height="1.1"/><rect class="cls-10" x="26.9" y="95.1" width="1.1" height="1.1"/><rect class="cls-10" x="28.7" y="95.1" width="1.1" height="1.1"/><rect class="cls-10" x="30.7" y="95.1" width="1.1" height="1.1"/><rect class="cls-10" x="32.5" y="95.1" width="1.1" height="1.1"/><rect class="cls-10" x="34.4" y="96.6" width="0.7" height="0.7"/><rect class="cls-10" x="34.5" y="97.9" width="0.7" height="0.7"/><rect class="cls-10" x="35.8" y="97.9" width="0.7" height="0.7"/><rect class="cls-10" x="33.2" y="97.9" width="0.7" height="0.7"/><rect class="cls-10" x="36.4" y="93.5" width="1.1" height="1.1"/><rect class="cls-10" x="38.1" y="93.5" width="1.1" height="1.1"/><rect class="cls-10" x="39.7" y="93.5" width="1.1" height="1.1"/><rect class="cls-10" x="36.4" y="95.1" width="1.1" height="1.1"/><rect class="cls-10" x="38.1" y="95.1" width="1.1" height="1.1"/><rect class="cls-10" x="39.7" y="95.1" width="1.1" height="1.1"/><rect class="cls-10" x="38.1" y="96.8" width="1.1" height="1.1"/><rect class="cls-10" x="39.7" y="96.8" width="1.1" height="1.1"/><path class="cls-10" d="M30.4,92.6s-.3-4.1,1.7-4.5,1.6-2.5,1.5-3.1"/><rect class="cls-7" x="27.8" y="190.6" width="17.4" height="36.9"/><rect class="cls-9" x="29" y="191.9" width="6.9" height="24.1"/><rect class="cls-9" x="29" y="217.1" width="14.9" height="9.3"/><rect class="cls-9" x="37" y="191.9" width="6.9" height="24.1"/><line class="cls-9" x1="35.3" y1="218.5" x2="37.6" y2="218.5"/><line class="cls-9" x1="34.9" y1="206.5" x2="34.9" y2="204.4"/><line class="cls-9" x1="37.9" y1="206.5" x2="37.9" y2="204.4"/><ellipse class="cls-11" cx="154.8" cy="191.3" rx="10.2" ry="1.4"/><path class="cls-11" d="M144.6,199.6c0,.8,4.6,1.4,10.2,1.4s10.2-.6,10.2-1.4"/><line class="cls-11" x1="144.6" y1="191.3" x2="144.6" y2="199.6"/><line class="cls-11" x1="165.1" y1="191.3" x2="165.1" y2="199.6"/><line class="cls-12" x1="154.8" y1="201" x2="154.8" y2="227.5"/><ellipse class="cls-11" cx="154.8" cy="216.8" rx="5.7" ry="1"/><ellipse class="cls-3" cx="154.8" cy="227" rx="9.3" ry="1.3"/><rect class="cls-11" x="187.4" y="199.7" width="13.7" height="28.9"/><line class="cls-12" x1="234.3" y1="198.6" x2="234.3" y2="229.4"/><rect class="cls-13" x="189.1" y="203.7" width="10.5" height="6.9"/><rect class="cls-13" x="189.1" y="211.8" width="10.5" height="6.9"/><rect class="cls-13" x="189.1" y="220" width="10.5" height="6.9"/><ellipse class="cls-14" cx="194.3" cy="206.6" rx="0.1" ry="0.3"/><polygon class="cls-3" points="194.3 206.6 193.8 208 194.8 208 194.3 206.6"/><ellipse class="cls-14" cx="194.3" cy="214.7" rx="0.1" ry="0.3"/><polygon class="cls-3" points="194.3 214.7 193.8 216.1 194.8 216.1 194.3 214.7"/><ellipse class="cls-14" cx="194.3" cy="222.8" rx="0.1" ry="0.3"/><polygon class="cls-3" points="194.3 222.8 193.8 224.2 194.8 224.2 194.3 222.8"/><rect class="cls-3" x="186.8" y="198.6" width="50" height="1.9"/><rect class="cls-9" x="143.7" y="150.6" width="22.1" height="5.4"/><circle class="cls-9" cx="154.8" cy="153.4" r="0.9"/><path class="cls-9" d="M167.4,157.6h0v-8.3H142.2v8.3s-2.1,7.4-.1,10.7,2.3,1.1,2,3.3.3-.1,2.3,0-5-2.7-2.7-13.5c0,0,5.9,3.2,8,3.2,0,1.2-1,1.5,0,2.5s2.4.1,2.4-1.7c0,2.1,1.1,6,1.3,0,0,1.9,1.7,2.7,2.7,1.5s0-1.3,0-2.5c1.9,0,6.8-2.7,7.6-3.1,2,10.5-4.8,13.7-2.8,13.5s2.7,2.1,2.3,0,0,0,2-3.3C169.4,165,167.4,157.6,167.4,157.6Z"/><polygon class="cls-10" points="155.7 157.6 153.9 157.6 153.1 159.2 153.9 160.6 155.7 160.6 156.5 159.2 155.7 157.6"/><polygon class="cls-10" points="152.1 157.7 150.8 157.7 150.3 158.8 150.8 159.9 152.1 159.9 152.7 158.8 152.1 157.7"/><polygon class="cls-10" points="158.6 157.7 157.3 157.7 156.8 158.8 157.3 159.9 158.6 159.9 159.2 158.8 158.6 157.7"/><path class="cls-9" d="M154.8,129.5c-5.9,0-10.6,7.6-10.6,16.9a10.87,10.87,0,0,0,.1,1.8h21.1c0-.6.1-1.2.1-1.8C165.4,137,160.7,129.5,154.8,129.5Z"/><path class="cls-9" d="M166.8,140.7a.89.89,0,0,0-.9.9v2.5c-.1.1-.2.2-.2.3s.1.3.2.3v3.7a.89.89,0,0,0,.9.9.8.8,0,0,0,.9-.9v-7A1.07,1.07,0,0,0,166.8,140.7Z"/><path class="cls-9" d="M143.7,143.9h0v-2.4a.89.89,0,0,0-.9-.9.8.8,0,0,0-.9.9v7a.89.89,0,0,0,.9.9.8.8,0,0,0,.9-.9v-3.7h0a.43.43,0,0,0,.4-.4C144.2,144.1,144,143.9,143.7,143.9Z"/><path class="cls-9" d="M141.7,155h0a.43.43,0,0,0,.4-.4v-2.1a.43.43,0,0,0-.4-.4h0a.43.43,0,0,0-.4.4v2.1C141.2,154.7,141.4,155,141.7,155Z"/><path class="cls-9" d="M167.9,155h0a.43.43,0,0,0,.4-.4v-2.1a.43.43,0,0,0-.4-.4h0a.43.43,0,0,0-.4.4v2.1C167.4,154.7,167.6,155,167.9,155Z"/><ellipse class="cls-9" cx="141.8" cy="144.3" rx="0.2" ry="0.6"/><ellipse class="cls-9" cx="167.7" cy="144.3" rx="0.2" ry="0.6"/><path class="cls-15" d="M98.7,93.6H87.4a7.7,7.7,0,0,1-7.7-7.7V81.8a7.7,7.7,0,0,1,7.7-7.7H98.7a7.7,7.7,0,0,1,7.7,7.7v4.1A7.77,7.77,0,0,1,98.7,93.6Z"/><path class="cls-2" d="M80.3,97.8a1,1,0,0,1-1.1-1.1V90.4a1,1,0,0,1,1.1-1.1h25.4a1,1,0,0,1,1.1,1.1v6.3a1,1,0,0,1-1.1,1.1Z"/><path class="cls-3" d="M105.8,89.9a.47.47,0,0,1,.5.5v6.3a.47.47,0,0,1-.5.5H80.3c-.4,0-.5-.2-.5-.5V90.4a.47.47,0,0,1,.5-.5h25.5m0-1.2H80.3a1.75,1.75,0,0,0-1.7,1.7v6.3a1.75,1.75,0,0,0,1.7,1.7h25.4a1.75,1.75,0,0,0,1.7-1.7V90.4a1.74,1.74,0,0,0-1.6-1.7Z"/><path class="cls-2" d="M80.4,102.6h-.8a2,2,0,0,1-2.1-2V84.9a2.1,2.1,0,0,1,4.2,0v9.7H104V84.9a2.1,2.1,0,0,1,4.2,0v15.6a2.15,2.15,0,0,1-2,2H80.4Z"/><path class="cls-3" d="M106.3,83.5a1.55,1.55,0,0,1,1.6,1.4v15.6a1.43,1.43,0,0,1-1.4,1.4H81v-.1l-1.1.2h-.2a1.55,1.55,0,0,1-1.6-1.4V84.9a1.48,1.48,0,0,1,1.6-1.4,1.55,1.55,0,0,1,1.6,1.4V95.2h23.4V84.9a1.55,1.55,0,0,1,1.6-1.4m0-1.1a2.65,2.65,0,0,0-2.6,2.6v9.2H82.5V85a2.6,2.6,0,0,0-5.2,0v15.6a2.65,2.65,0,0,0,2.6,2.6h26.8a2.7,2.7,0,0,0,2.5-2.6V84.9a2.84,2.84,0,0,0-2.9-2.5Z"/><path class="cls-16" d="M80.3,104.5a.43.43,0,0,1-.4-.4v-.4a.43.43,0,0,1,.4-.4h2.9a.43.43,0,0,1,.4.4v.5a.43.43,0,0,1-.4.4l-2.9-.1Z"/><path class="cls-17" d="M83.2,103.6a.22.22,0,0,1,.2.2v.4a.22.22,0,0,1-.2.2H80.3c-.1,0-.1-.1-.1-.2v-.4a.35.35,0,0,1,.1-.2h2.9m0-.5H80.3a.54.54,0,0,0-.5.5v.5a.47.47,0,0,0,.5.5h2.9a.54.54,0,0,0,.5-.5v-.4c.1-.2-.3-.6-.5-.6Z"/><path class="cls-16" d="M102.9,104.5a.43.43,0,0,1-.4-.4v-.4a.43.43,0,0,1,.4-.4h2.9a.43.43,0,0,1,.4.4v.5a.43.43,0,0,1-.4.4l-2.9-.1Z"/><path class="cls-17" d="M105.9,103.6a.22.22,0,0,1,.2.2v.4a.22.22,0,0,1-.2.2H103c-.1,0-.1-.1-.1-.2v-.4a.35.35,0,0,1,.1-.2h2.9m0-.5H103a.54.54,0,0,0-.5.5v.5a.47.47,0,0,0,.5.5h2.9a.54.54,0,0,0,.5-.5v-.4c0-.2-.3-.6-.5-.6Z"/><rect class="cls-7" x="192.9" y="132.9" width="38.2" height="38.2"/><rect class="cls-18" x="200.8" y="143.1" width="22.5" height="0.6"/><rect class="cls-7" x="206.8" y="135.2" width="10.3" height="2"/><line class="cls-7" x1="192.9" y1="167" x2="231.1" y2="167"/><rect class="cls-7" x="192.9" y="140.1" width="0.8" height="26.9"/><rect class="cls-7" x="230.3" y="140.1" width="0.8" height="26.9"/><line class="cls-7" x1="193.7" y1="140.1" x2="230.3" y2="140.1"/><circle class="cls-7" cx="203.4" cy="136.2" r="1.3"/><circle class="cls-7" cx="220.5" cy="136.2" r="1.3"/><rect class="cls-7" x="197.8" y="146.6" width="28.9" height="16.5"/><rect class="cls-7" x="137" y="70.7" width="38.1" height="38.1"/><circle class="cls-7" cx="156.1" cy="90.4" r="12.1"/><circle class="cls-7" cx="139.8" cy="73.1" r="0.8"/><circle class="cls-7" cx="142.8" cy="73.1" r="0.8"/><line class="cls-7" x1="145.4" y1="73.1" x2="151.1" y2="73.1"/><circle class="cls-7" cx="156.1" cy="90.4" r="8.6"/><ellipse class="cls-3" cx="167.3" cy="90.4" rx="0.9" ry="3.3"/><rect class="cls-7" x="77.3" y="11.5" width="29.5" height="39.9"/><circle class="cls-7" cx="92.1" cy="18.3" r="0.1"/><path class="cls-3" d="M92.1,16.3a7.49,7.49,0,0,1,.2,2.1,14.92,14.92,0,0,1-.2,2.1,7.49,7.49,0,0,1-.2-2.1A3.71,3.71,0,0,1,92.1,16.3Z"/><path class="cls-3" d="M90.2,18.3a6.8,6.8,0,0,1,2-.2,13.55,13.55,0,0,1,2,.2,6.8,6.8,0,0,1-2,.2A4.12,4.12,0,0,1,90.2,18.3Z"/><circle class="cls-7" cx="83.4" cy="18.3" r="0.1"/><path class="cls-3" d="M83.4,16.3a7.49,7.49,0,0,1,.2,2.1,14.92,14.92,0,0,1-.2,2.1,7.49,7.49,0,0,1-.2-2.1A3,3,0,0,1,83.4,16.3Z"/><path class="cls-3" d="M81.4,18.2a6.8,6.8,0,0,1,2-.2,13.55,13.55,0,0,1,2,.2,6.8,6.8,0,0,1-2,.2A2.75,2.75,0,0,1,81.4,18.2Z"/><circle class="cls-7" cx="92.1" cy="31.4" r="0.1"/><path class="cls-3" d="M92.1,29.3a7.49,7.49,0,0,1,.2,2.1,14.92,14.92,0,0,1-.2,2.1,7.49,7.49,0,0,1-.2-2.1A4.87,4.87,0,0,1,92.1,29.3Z"/><path class="cls-3" d="M90.2,31.4a6.8,6.8,0,0,1,2-.2,13.55,13.55,0,0,1,2,.2,6.8,6.8,0,0,1-2,.2A5.86,5.86,0,0,1,90.2,31.4Z"/><circle class="cls-7" cx="83.4" cy="31.4" r="0.1"/><path class="cls-3" d="M83.4,29.3a7.49,7.49,0,0,1,.2,2.1,14.92,14.92,0,0,1-.2,2.1,7.49,7.49,0,0,1-.2-2.1A3,3,0,0,1,83.4,29.3Z"/><path class="cls-3" d="M81.4,31.4a6.8,6.8,0,0,1,2-.2,13.55,13.55,0,0,1,2,.2,6.8,6.8,0,0,1-2,.2A6.48,6.48,0,0,1,81.4,31.4Z"/><circle class="cls-7" cx="83.4" cy="44.4" r="0.1"/><path class="cls-3" d="M83.4,42.4a7.49,7.49,0,0,1,.2,2.1,14.92,14.92,0,0,1-.2,2.1,7.49,7.49,0,0,1-.2-2.1A3,3,0,0,1,83.4,42.4Z"/><path class="cls-3" d="M81.4,44.5a6.8,6.8,0,0,1,2-.2,13.55,13.55,0,0,1,2,.2,6.8,6.8,0,0,1-2,.2A6.48,6.48,0,0,1,81.4,44.5Z"/><circle class="cls-7" cx="92.2" cy="44.4" r="0.1"/><path class="cls-3" d="M92.2,42.4a7.49,7.49,0,0,1,.2,2.1,14.92,14.92,0,0,1-.2,2.1,7.49,7.49,0,0,1-.2-2.1A3.71,3.71,0,0,1,92.2,42.4Z"/><path class="cls-3" d="M90.2,44.5a6.8,6.8,0,0,1,2-.2,13.55,13.55,0,0,1,2,.2,6.8,6.8,0,0,1-2,.2A6.48,6.48,0,0,1,90.2,44.5Z"/><circle class="cls-7" cx="101.5" cy="44.3" r="0.1"/><path class="cls-3" d="M101.5,42.3a7.49,7.49,0,0,1,.2,2.1,14.92,14.92,0,0,1-.2,2.1,7.49,7.49,0,0,1-.2-2.1A7.14,7.14,0,0,1,101.5,42.3Z"/><path class="cls-3" d="M99.7,44.4a6.8,6.8,0,0,1,2-.2,13.55,13.55,0,0,1,2,.2,7.84,7.84,0,0,1-2.1.2A5.84,5.84,0,0,1,99.7,44.4Z"/><circle class="cls-7" cx="101.5" cy="31.2" r="0.1"/><path class="cls-3" d="M101.5,29.2a7.49,7.49,0,0,1,.2,2.1,14.92,14.92,0,0,1-.2,2.1,7.49,7.49,0,0,1-.2-2.1A7.14,7.14,0,0,1,101.5,29.2Z"/><path class="cls-3" d="M99.7,31.3a6.8,6.8,0,0,1,2-.2,13.55,13.55,0,0,1,2,.2,6.8,6.8,0,0,1-2,.2A6.17,6.17,0,0,1,99.7,31.3Z"/><circle class="cls-7" cx="101.5" cy="18.3" r="0.1"/><path class="cls-3" d="M101.5,16.2a7.49,7.49,0,0,1,.2,2.1,14.92,14.92,0,0,1-.2,2.1,7.49,7.49,0,0,1-.2-2.1A7.84,7.84,0,0,1,101.5,16.2Z"/><path class="cls-3" d="M99.7,18.3a6.8,6.8,0,0,1,2-.2,13.55,13.55,0,0,1,2,.2,6.8,6.8,0,0,1-2,.2A4.27,4.27,0,0,1,99.7,18.3Z"/><path class="cls-7" d="M135.5,35.5V24.1a48.53,48.53,0,0,1,35.1,0V35.5"/><line class="cls-7" x1="135.5" y1="35.5" x2="170.5" y2="35.5"/><line class="cls-19" x1="134.9" y1="31.1" x2="131.8" y2="34.6"/><line class="cls-7" x1="134.9" y1="31.1" x2="131.8" y2="34.6"/><line class="cls-19" x1="174.2" y1="34.6" x2="171" y2="31.1"/><line class="cls-7" x1="174.2" y1="34.6" x2="171" y2="31.1"/><line class="cls-20" x1="131.8" y1="34.6" x2="131.8" y2="49.2"/><line class="cls-20" x1="174.2" y1="34.6" x2="174.2" y2="49.2"/><line class="cls-20" x1="170.5" y1="34.6" x2="170.5" y2="49.2"/><line class="cls-20" x1="135.5" y1="34.6" x2="135.5" y2="49.2"/><polygon class="cls-3" points="174.2 41.9 131.8 41.9 135.5 37.5 170.5 37.5 174.2 41.9"/><line class="cls-7" x1="170.5" y1="27.5" x2="163.5" y2="35.3"/><line class="cls-7" x1="167" y1="23.5" x2="156.4" y2="35.2"/><line class="cls-7" x1="160.1" y1="21.4" x2="147.4" y2="35.5"/><line class="cls-7" x1="151.6" y1="21" x2="138.6" y2="35.5"/><line class="cls-7" x1="141.9" y1="22.1" x2="135.9" y2="28.8"/><line class="cls-7" x1="162.7" y1="22.4" x2="170.7" y2="31.2"/><line class="cls-7" x1="155.3" y1="20.9" x2="168.2" y2="35.3"/><line class="cls-7" x1="147.8" y1="21.1" x2="160.6" y2="35.3"/><line class="cls-7" x1="141.1" y1="22.4" x2="152.8" y2="35.3"/><line class="cls-7" x1="136.2" y1="23.9" x2="146.7" y2="35.5"/><line class="cls-7" x1="135.8" y1="29.7" x2="140.8" y2="35.2"/><rect class="cls-11" x="192.9" y="86.7" width="37.4" height="22.1"/><line class="cls-11" x1="192.9" y1="86.7" x2="203.4" y2="78.8"/><line class="cls-11" x1="236.9" y1="78.9" x2="203" y2="78.9"/><line class="cls-7" x1="230.3" y1="86.7" x2="236.8" y2="79.3"/><line class="cls-7" x1="236.9" y1="78.9" x2="236.9" y2="100.8"/><line class="cls-7" x1="230.5" y1="108.8" x2="236.9" y2="100.8"/><line class="cls-7" x1="198.9" y1="82.7" x2="233.7" y2="82.7"/><circle class="cls-7" cx="206.1" cy="40.1" r="6.3"/><circle class="cls-7" cx="230.9" cy="40.1" r="6.3"/><line class="cls-7" x1="206.1" y1="22.7" x2="206.1" y2="40.1"/><line class="cls-7" x1="230.9" y1="39.4" x2="224.1" y2="29.3"/><line class="cls-7" x1="206.1" y1="29.3" x2="224.1" y2="29.3"/><line class="cls-7" x1="199.9" y1="22.7" x2="212.4" y2="22.7"/><line class="cls-7" x1="224.1" y1="25.1" x2="224.1" y2="29.3"/><ellipse class="cls-3" cx="224.1" cy="25.5" rx="5.6" ry="1.2"/><rect class="cls-21" x="-3.48" y="-5.96" width="257.78" height="257.78"/></svg>