<svg id="Calque_1" data-name="Calque 1" xmlns="http://www.w3.org/2000/svg" viewBox="0 0 258.96 258.96"><defs><style>.cls-1{fill:#0c1a29;}.cls-16,.cls-2,.cls-4,.cls-6,.cls-8{fill:#0d1a29;}.cls-3,.cls-5{fill:#c59745;}.cls-19,.cls-4{stroke:#010101;}.cls-11,.cls-12,.cls-13,.cls-14,.cls-15,.cls-16,.cls-17,.cls-4,.cls-5,.cls-6{stroke-miterlimit:10;}.cls-14,.cls-4,.cls-5,.cls-6{stroke-width:0.25px;}.cls-10,.cls-11,.cls-12,.cls-13,.cls-14,.cls-15,.cls-16,.cls-17,.cls-18,.cls-20,.cls-5,.cls-6,.cls-7,.cls-8,.cls-9{stroke:#c59745;}.cls-10,.cls-11,.cls-12,.cls-13,.cls-14,.cls-15,.cls-19,.cls-20,.cls-7,.cls-9{fill:none;}.cls-10,.cls-18,.cls-19,.cls-7,.cls-8,.cls-9{stroke-linecap:round;}.cls-10,.cls-18,.cls-19,.cls-20,.cls-7,.cls-8,.cls-9{stroke-linejoin:round;}.cls-15,.cls-16,.cls-17,.cls-9{stroke-width:0.75px;}.cls-10,.cls-13{stroke-width:0.5px;}.cls-12{stroke-width:2px;}.cls-17,.cls-18{fill:#010101;}</style></defs><rect class="cls-1" width="258.96" height="258.96"/><path class="cls-2" d="M30.33,43.15a8.35,8.35,0,0,1-8.3-8.6,8.41,8.41,0,0,1,8.3-8.6H54a8.35,8.35,0,0,1,8.3,8.6,8.41,8.41,0,0,1-8.3,8.6Z"/><path class="cls-3" d="M53.83,26.75a7.9,7.9,0,0,1,0,15.8H30.33a7.9,7.9,0,0,1,0-15.8h23.5m0-1.4H30.33a9.37,9.37,0,0,0-9.1,9.3h0a9.37,9.37,0,0,0,9.1,9.3H54a9.37,9.37,0,0,0,9.1-9.3h0a9.55,9.55,0,0,0-9.3-9.3Z"/><path class="cls-4" d="M45.23,49.25a3.35,3.35,0,0,1-3.3-3.4v-1.5a4.73,4.73,0,0,1,.4-2.6,1.66,1.66,0,0,1,1-.3h14.5a3.35,3.35,0,0,1,3.3,3.4v1a3.35,3.35,0,0,1-3.3,3.4Z"/><path class="cls-5" d="M57.73,42.35a2.78,2.78,0,0,1,2.7,2.8v1a2.78,2.78,0,0,1-2.7,2.8H45.23a2.78,2.78,0,0,1-2.7-2.8v-1.5a10.36,10.36,0,0,1,.1-2,.58.58,0,0,1,.4-.1h14.7m0-1.6H43.33c-2.1,0-2,1.8-2,4v1a4,4,0,0,0,3.9,4h12.5a4,4,0,0,0,3.9-4V45a4,4,0,0,0-3.9-4Z"/><path class="cls-4" d="M25.33,49.25a3.35,3.35,0,0,1-3.3-3.4v-1a3.35,3.35,0,0,1,3.3-3.4h14.6a1.69,1.69,0,0,1,1,.3c.4.4.4,1.5.4,2.6v1.5a3.35,3.35,0,0,1-3.3,3.4Z"/><path class="cls-5" d="M39.93,42.35c.4,0,.5.1.5.1a10.36,10.36,0,0,1,.1,2V46a2.78,2.78,0,0,1-2.7,2.8H25.33a2.78,2.78,0,0,1-2.7-2.8V45a2.78,2.78,0,0,1,2.7-2.8h14.6m0-1.2H25.33a4,4,0,0,0-3.9,4v1a4,4,0,0,0,3.9,4h12.6a4,4,0,0,0,3.9-4V45c.1-2.3.2-4-1.9-4Z"/><rect class="cls-6" x="21.93" y="46.85" width="40.4" height="6.4"/><path class="cls-5" d="M61.53,47.55v5h-39v-5h39m1.4-1.3H21.23v7.8h41.7v-7.8Z"/><path class="cls-6" d="M21.13,53.25a2.11,2.11,0,0,1-2.1-2.1V36.65a2,2,0,0,1,2.1-2.1,2.18,2.18,0,0,1,2.1,2.1v14.5A2,2,0,0,1,21.13,53.25Z"/><path class="cls-5" d="M21.13,35.15a1.54,1.54,0,0,1,1.5,1.5v14.5a1.47,1.47,0,0,1-1.5,1.5,1.42,1.42,0,0,1-1.5-1.5V36.65a1.54,1.54,0,0,1,1.5-1.5m0-1.4h0a2.82,2.82,0,0,0-2.8,2.9v14.5a2.82,2.82,0,0,0,2.8,2.9h0a2.82,2.82,0,0,0,2.8-2.9V36.65a2.88,2.88,0,0,0-2.8-2.9Z"/><path class="cls-4" d="M62.83,53.25a2.11,2.11,0,0,1-2.1-2.1V36.65a2,2,0,0,1,2.1-2.1,2.11,2.11,0,0,1,2.1,2.1v14.5A2.11,2.11,0,0,1,62.83,53.25Z"/><path class="cls-5" d="M62.83,35.15a1.54,1.54,0,0,1,1.5,1.5v14.5a1.47,1.47,0,0,1-1.5,1.5,1.54,1.54,0,0,1-1.5-1.5V36.65a1.47,1.47,0,0,1,1.5-1.5m0-1.4h0a2.82,2.82,0,0,0-2.8,2.9v14.5a2.82,2.82,0,0,0,2.8,2.9h0a2.82,2.82,0,0,0,2.8-2.9V36.65a3,3,0,0,0-2.8-2.9Z"/><rect class="cls-7" x="76.83" y="203.75" width="47.4" height="32.5"/><line class="cls-7" x1="76.83" y1="214.15" x2="124.33" y2="214.15"/><line class="cls-7" x1="76.83" y1="225.55" x2="123.73" y2="225.55"/><line class="cls-7" x1="82.93" y1="204.45" x2="118.63" y2="204.45"/><line class="cls-7" x1="82.93" y1="215.05" x2="118.63" y2="215.05"/><line class="cls-7" x1="82.93" y1="226.15" x2="118.63" y2="226.15"/><line class="cls-7" x1="39.93" y1="134.55" x2="50.33" y2="134.55"/><line class="cls-7" x1="50.33" y1="134.55" x2="55.43" y2="148.65"/><line class="cls-7" x1="50.33" y1="134.55" x2="55.43" y2="148.65"/><line class="cls-7" x1="39.93" y1="134.55" x2="34.73" y2="148.65"/><line class="cls-7" x1="34.73" y1="148.65" x2="55.43" y2="148.65"/><path class="cls-7" d="M38.53,149.85a4.32,4.32,0,0,1,0,3.8c-1,2-2.5,11.4,2.1,14.3h8.3"/><path class="cls-7" d="M51.73,149.85a4.32,4.32,0,0,0,0,3.8c1,2,2.5,11.4-2.1,14.3h-8.3"/><line class="cls-7" x1="38.53" y1="149.85" x2="51.73" y2="149.85"/><rect class="cls-7" x="40.63" y="169.15" width="9" height="1.4"/><path class="cls-7" d="M40.63,167.85s-7,1.8-6.3-1.5,1-5-2.7-6.2"/><path class="cls-7" d="M120.53,147.05s-6.1-1.2-19.4-1.2-19.4,1.2-19.4,1.2v-13.2h38.9v13.2Z"/><line class="cls-7" x1="79.13" y1="175.25" x2="81.63" y2="147.55"/><line class="cls-7" x1="120.53" y1="147.05" x2="123.13" y2="174.75"/><line class="cls-7" x1="79.13" y1="175.25" x2="123.13" y2="175.25"/><line class="cls-7" x1="79.13" y1="175.25" x2="79.13" y2="179.75"/><line class="cls-7" x1="82.53" y1="179.75" x2="79.13" y2="179.75"/><line class="cls-7" x1="82.93" y1="177.45" x2="82.53" y2="179.75"/><line class="cls-7" x1="119.33" y1="177.45" x2="82.93" y2="177.45"/><line class="cls-7" x1="123.13" y1="175.15" x2="123.13" y2="179.55"/><line class="cls-7" x1="119.83" y1="179.55" x2="123.13" y2="179.55"/><line class="cls-7" x1="119.33" y1="177.45" x2="119.83" y2="179.55"/><path class="cls-8" d="M99.43,145.65h0a4.06,4.06,0,0,0-4-4.2h-4.8a4,4,0,0,0-4,4v.9A88,88,0,0,1,99.43,145.65Z"/><path class="cls-8" d="M103.63,145.65h0a4.06,4.06,0,0,1,4-4.2h4.8a4,4,0,0,1,4,4v.9A90.8,90.8,0,0,0,103.63,145.65Z"/><path class="cls-7" d="M36.13,91.85h8.6a.47.47,0,0,0,.5-.5h0a.47.47,0,0,0-.5-.5h-8.6a.47.47,0,0,0-.5.5h0A.54.54,0,0,0,36.13,91.85Z"/><line class="cls-7" x1="40.43" y1="85.65" x2="40.43" y2="91.35"/><rect class="cls-7" x="29.13" y="75.45" width="22.8" height="9.8"/><rect class="cls-7" x="51.83" y="89.95" width="13" height="20.8"/><rect class="cls-7" x="53.33" y="91.85" width="10.1" height="1.7"/><rect class="cls-7" x="61.93" y="89.05" width="1.5" height="0.8"/><rect class="cls-7" x="58.93" y="89.05" width="1.5" height="0.8"/><line class="cls-7" x1="55.43" y1="97.65" x2="55.43" y2="106.85"/><line class="cls-7" x1="58.33" y1="97.65" x2="58.33" y2="106.85"/><line class="cls-7" x1="61.33" y1="97.65" x2="61.33" y2="106.85"/><rect class="cls-9" x="27.53" y="99.45" width="21.4" height="6.8"/><rect class="cls-10" x="29.73" y="104.45" width="9.6" height="0.9"/><rect class="cls-10" x="28.33" y="100.35" width="1.1" height="1.1"/><rect class="cls-10" x="30.23" y="100.35" width="1.1" height="1.1"/><rect class="cls-10" x="32.23" y="100.35" width="1.1" height="1.1"/><rect class="cls-10" x="34.23" y="100.35" width="1.1" height="1.1"/><rect class="cls-10" x="36.03" y="100.35" width="1.1" height="1.1"/><rect class="cls-10" x="38.03" y="100.35" width="1.1" height="1.1"/><rect class="cls-10" x="39.83" y="100.35" width="1.1" height="1.1"/><rect class="cls-10" x="28.33" y="101.95" width="1.1" height="1.1"/><rect class="cls-10" x="30.23" y="101.95" width="1.1" height="1.1"/><rect class="cls-10" x="32.23" y="101.95" width="1.1" height="1.1"/><rect class="cls-10" x="34.23" y="101.95" width="1.1" height="1.1"/><rect class="cls-10" x="36.03" y="101.95" width="1.1" height="1.1"/><rect class="cls-10" x="38.03" y="101.95" width="1.1" height="1.1"/><rect class="cls-10" x="39.83" y="101.95" width="1.1" height="1.1"/><rect class="cls-10" x="41.73" y="103.45" width="0.7" height="0.7"/><rect class="cls-10" x="41.83" y="104.75" width="0.7" height="0.7"/><rect class="cls-10" x="43.13" y="104.75" width="0.7" height="0.7"/><rect class="cls-10" x="40.53" y="104.75" width="0.7" height="0.7"/><rect class="cls-10" x="43.73" y="100.35" width="1.1" height="1.1"/><rect class="cls-10" x="45.43" y="100.35" width="1.1" height="1.1"/><rect class="cls-10" x="47.03" y="100.35" width="1.1" height="1.1"/><rect class="cls-10" x="43.73" y="101.95" width="1.1" height="1.1"/><rect class="cls-10" x="45.43" y="101.95" width="1.1" height="1.1"/><rect class="cls-10" x="47.03" y="101.95" width="1.1" height="1.1"/><rect class="cls-10" x="45.43" y="103.65" width="1.1" height="1.1"/><rect class="cls-10" x="47.03" y="103.65" width="1.1" height="1.1"/><path class="cls-10" d="M37.73,99.45s-.3-4.1,1.7-4.5,1.6-2.5,1.5-3.1"/><rect class="cls-7" x="35.13" y="197.45" width="17.4" height="36.9"/><rect class="cls-9" x="36.33" y="198.75" width="6.9" height="24.1"/><rect class="cls-9" x="36.33" y="223.95" width="14.9" height="9.3"/><rect class="cls-9" x="44.33" y="198.75" width="6.9" height="24.1"/><line class="cls-9" x1="42.63" y1="225.35" x2="44.93" y2="225.35"/><line class="cls-9" x1="42.23" y1="213.35" x2="42.23" y2="211.25"/><line class="cls-9" x1="45.23" y1="213.35" x2="45.23" y2="211.25"/><ellipse class="cls-11" cx="162.13" cy="198.15" rx="10.2" ry="1.4"/><path class="cls-11" d="M151.93,206.45c0,.8,4.6,1.4,10.2,1.4s10.2-.6,10.2-1.4"/><line class="cls-11" x1="151.93" y1="198.15" x2="151.93" y2="206.45"/><line class="cls-11" x1="172.43" y1="198.15" x2="172.43" y2="206.45"/><line class="cls-12" x1="162.13" y1="207.85" x2="162.13" y2="234.35"/><ellipse class="cls-11" cx="162.13" cy="223.65" rx="5.7" ry="1"/><ellipse class="cls-3" cx="162.13" cy="233.85" rx="9.3" ry="1.3"/><rect class="cls-11" x="194.73" y="206.55" width="13.7" height="28.9"/><line class="cls-12" x1="241.63" y1="205.45" x2="241.63" y2="236.25"/><rect class="cls-13" x="196.43" y="210.55" width="10.5" height="6.9"/><rect class="cls-13" x="196.43" y="218.65" width="10.5" height="6.9"/><rect class="cls-13" x="196.43" y="226.85" width="10.5" height="6.9"/><ellipse class="cls-14" cx="201.63" cy="213.45" rx="0.1" ry="0.3"/><polygon class="cls-3" points="201.63 213.45 201.13 214.85 202.13 214.85 201.63 213.45"/><ellipse class="cls-14" cx="201.63" cy="221.55" rx="0.1" ry="0.3"/><polygon class="cls-3" points="201.63 221.55 201.13 222.95 202.13 222.95 201.63 221.55"/><ellipse class="cls-14" cx="201.63" cy="229.65" rx="0.1" ry="0.3"/><polygon class="cls-3" points="201.63 229.65 201.13 231.05 202.13 231.05 201.63 229.65"/><rect class="cls-3" x="194.13" y="205.45" width="50" height="1.9"/><rect class="cls-9" x="151.03" y="157.45" width="22.1" height="5.4"/><circle class="cls-9" cx="162.13" cy="160.25" r="0.9"/><path class="cls-9" d="M174.73,164.45h0v-8.3h-25.2v8.3s-2.1,7.4-.1,10.7,2.3,1.1,2,3.3.3-.1,2.3,0-5-2.7-2.7-13.5c0,0,5.9,3.2,8,3.2,0,1.2-1,1.5,0,2.5s2.4.1,2.4-1.7c0,2.1,1.1,6,1.3,0,0,1.9,1.7,2.7,2.7,1.5s0-1.3,0-2.5c1.9,0,6.8-2.7,7.6-3.1,2,10.5-4.8,13.7-2.8,13.5s2.7,2.1,2.3,0,0,0,2-3.3C176.73,171.85,174.73,164.45,174.73,164.45Z"/><polygon class="cls-10" points="163.03 164.45 161.23 164.45 160.43 166.05 161.23 167.45 163.03 167.45 163.83 166.05 163.03 164.45"/><polygon class="cls-10" points="159.43 164.55 158.13 164.55 157.63 165.65 158.13 166.75 159.43 166.75 160.03 165.65 159.43 164.55"/><polygon class="cls-10" points="165.93 164.55 164.63 164.55 164.13 165.65 164.63 166.75 165.93 166.75 166.53 165.65 165.93 164.55"/><path class="cls-9" d="M162.13,136.35c-5.9,0-10.6,7.6-10.6,16.9a10.87,10.87,0,0,0,.1,1.8h21.1c0-.6.1-1.2.1-1.8C172.73,143.85,168,136.35,162.13,136.35Z"/><path class="cls-9" d="M174.13,147.55a.89.89,0,0,0-.9.9V151c-.1.1-.2.2-.2.3s.1.3.2.3v3.7a.89.89,0,0,0,.9.9.8.8,0,0,0,.9-.9v-7A1.07,1.07,0,0,0,174.13,147.55Z"/><path class="cls-9" d="M151,150.75h0v-2.4a.89.89,0,0,0-.9-.9.8.8,0,0,0-.9.9v7a.89.89,0,0,0,.9.9.8.8,0,0,0,.9-.9v-3.7h0a.43.43,0,0,0,.4-.4C151.53,151,151.33,150.75,151,150.75Z"/><path class="cls-9" d="M149,161.85h0a.43.43,0,0,0,.4-.4v-2.1a.43.43,0,0,0-.4-.4h0a.43.43,0,0,0-.4.4v2.1C148.53,161.55,148.73,161.85,149,161.85Z"/><path class="cls-9" d="M175.23,161.85h0a.43.43,0,0,0,.4-.4v-2.1a.43.43,0,0,0-.4-.4h0a.43.43,0,0,0-.4.4v2.1C174.73,161.55,174.93,161.85,175.23,161.85Z"/><ellipse class="cls-9" cx="149.13" cy="151.15" rx="0.2" ry="0.6"/><ellipse class="cls-9" cx="175.03" cy="151.15" rx="0.2" ry="0.6"/><path class="cls-15" d="M106,100.45H94.73a7.7,7.7,0,0,1-7.7-7.7v-4.1a7.7,7.7,0,0,1,7.7-7.7H106a7.7,7.7,0,0,1,7.7,7.7v4.1A7.77,7.77,0,0,1,106,100.45Z"/><path class="cls-2" d="M87.63,104.65a1,1,0,0,1-1.1-1.1v-6.3a1,1,0,0,1,1.1-1.1H113a1,1,0,0,1,1.1,1.1v6.3a1,1,0,0,1-1.1,1.1Z"/><path class="cls-3" d="M113.13,96.75a.47.47,0,0,1,.5.5v6.3a.47.47,0,0,1-.5.5H87.63c-.4,0-.5-.2-.5-.5v-6.3a.47.47,0,0,1,.5-.5h25.5m0-1.2H87.63a1.75,1.75,0,0,0-1.7,1.7v6.3a1.75,1.75,0,0,0,1.7,1.7H113a1.75,1.75,0,0,0,1.7-1.7v-6.3a1.74,1.74,0,0,0-1.6-1.7Z"/><path class="cls-2" d="M87.73,109.45h-.8a2,2,0,0,1-2.1-2V91.75a2.1,2.1,0,0,1,4.2,0v9.7h22.3v-9.7a2.1,2.1,0,0,1,4.2,0v15.6a2.15,2.15,0,0,1-2,2H87.73Z"/><path class="cls-3" d="M113.63,90.35a1.55,1.55,0,0,1,1.6,1.4v15.6a1.43,1.43,0,0,1-1.4,1.4H88.33v-.1l-1.1.2H87a1.55,1.55,0,0,1-1.6-1.4V91.75a1.48,1.48,0,0,1,1.6-1.4,1.55,1.55,0,0,1,1.6,1.4v10.3H112V91.75a1.55,1.55,0,0,1,1.6-1.4m0-1.1a2.65,2.65,0,0,0-2.6,2.6v9.2H89.83v-9.2a2.6,2.6,0,1,0-5.2,0v15.6a2.65,2.65,0,0,0,2.6,2.6H114a2.7,2.7,0,0,0,2.5-2.6V91.75a2.84,2.84,0,0,0-2.9-2.5Z"/><path class="cls-16" d="M87.63,111.35a.43.43,0,0,1-.4-.4v-.4a.43.43,0,0,1,.4-.4h2.9a.43.43,0,0,1,.4.4v.5a.43.43,0,0,1-.4.4l-2.9-.1Z"/><path class="cls-17" d="M90.53,110.45a.22.22,0,0,1,.2.2v.4a.22.22,0,0,1-.2.2h-2.9c-.1,0-.1-.1-.1-.2v-.4a.35.35,0,0,1,.1-.2h2.9m0-.5h-2.9a.54.54,0,0,0-.5.5v.5a.47.47,0,0,0,.5.5h2.9a.54.54,0,0,0,.5-.5v-.4c.1-.2-.3-.6-.5-.6Z"/><path class="cls-16" d="M110.23,111.35a.43.43,0,0,1-.4-.4v-.4a.43.43,0,0,1,.4-.4h2.9a.43.43,0,0,1,.4.4v.5a.43.43,0,0,1-.4.4l-2.9-.1Z"/><path class="cls-17" d="M113.23,110.45a.22.22,0,0,1,.2.2v.4a.22.22,0,0,1-.2.2h-2.9c-.1,0-.1-.1-.1-.2v-.4a.35.35,0,0,1,.1-.2h2.9m0-.5h-2.9a.54.54,0,0,0-.5.5v.5a.47.47,0,0,0,.5.5h2.9a.54.54,0,0,0,.5-.5v-.4c0-.2-.3-.6-.5-.6Z"/><rect class="cls-7" x="200.23" y="139.75" width="38.2" height="38.2"/><rect class="cls-18" x="208.13" y="149.95" width="22.5" height="0.6"/><rect class="cls-7" x="214.13" y="142.05" width="10.3" height="2"/><line class="cls-7" x1="200.23" y1="173.85" x2="238.43" y2="173.85"/><rect class="cls-7" x="200.23" y="146.95" width="0.8" height="26.9"/><rect class="cls-7" x="237.63" y="146.95" width="0.8" height="26.9"/><line class="cls-7" x1="201.03" y1="146.95" x2="237.63" y2="146.95"/><circle class="cls-7" cx="210.73" cy="143.05" r="1.3"/><circle class="cls-7" cx="227.83" cy="143.05" r="1.3"/><rect class="cls-7" x="205.13" y="153.45" width="28.9" height="16.5"/><rect class="cls-7" x="144.33" y="77.55" width="38.1" height="38.1"/><circle class="cls-7" cx="163.43" cy="97.25" r="12.1"/><circle class="cls-7" cx="147.13" cy="79.95" r="0.8"/><circle class="cls-7" cx="150.13" cy="79.95" r="0.8"/><line class="cls-7" x1="152.73" y1="79.95" x2="158.43" y2="79.95"/><circle class="cls-7" cx="163.43" cy="97.25" r="8.6"/><ellipse class="cls-3" cx="174.63" cy="97.25" rx="0.9" ry="3.3"/><rect class="cls-7" x="84.63" y="18.35" width="29.5" height="39.9"/><circle class="cls-7" cx="99.43" cy="25.15" r="0.1"/><path class="cls-3" d="M99.43,23.15a7.49,7.49,0,0,1,.2,2.1,14.92,14.92,0,0,1-.2,2.1,7.49,7.49,0,0,1-.2-2.1A3.71,3.71,0,0,1,99.43,23.15Z"/><path class="cls-3" d="M97.53,25.15a6.8,6.8,0,0,1,2-.2,13.55,13.55,0,0,1,2,.2,6.8,6.8,0,0,1-2,.2A4.12,4.12,0,0,1,97.53,25.15Z"/><circle class="cls-7" cx="90.73" cy="25.15" r="0.1"/><path class="cls-3" d="M90.73,23.15a7.49,7.49,0,0,1,.2,2.1,14.92,14.92,0,0,1-.2,2.1,7.49,7.49,0,0,1-.2-2.1A3,3,0,0,1,90.73,23.15Z"/><path class="cls-3" d="M88.73,25.05a6.8,6.8,0,0,1,2-.2,13.55,13.55,0,0,1,2,.2,6.8,6.8,0,0,1-2,.2A2.75,2.75,0,0,1,88.73,25.05Z"/><circle class="cls-7" cx="99.43" cy="38.25" r="0.1"/><path class="cls-3" d="M99.43,36.15a7.49,7.49,0,0,1,.2,2.1,14.92,14.92,0,0,1-.2,2.1,7.49,7.49,0,0,1-.2-2.1A4.87,4.87,0,0,1,99.43,36.15Z"/><path class="cls-3" d="M97.53,38.25a6.8,6.8,0,0,1,2-.2,13.55,13.55,0,0,1,2,.2,6.8,6.8,0,0,1-2,.2A5.86,5.86,0,0,1,97.53,38.25Z"/><circle class="cls-7" cx="90.73" cy="38.25" r="0.1"/><path class="cls-3" d="M90.73,36.15a7.49,7.49,0,0,1,.2,2.1,14.92,14.92,0,0,1-.2,2.1,7.49,7.49,0,0,1-.2-2.1A3,3,0,0,1,90.73,36.15Z"/><path class="cls-3" d="M88.73,38.25a6.8,6.8,0,0,1,2-.2,13.55,13.55,0,0,1,2,.2,6.8,6.8,0,0,1-2,.2A6.48,6.48,0,0,1,88.73,38.25Z"/><circle class="cls-7" cx="90.73" cy="51.25" r="0.1"/><path class="cls-3" d="M90.73,49.25a7.49,7.49,0,0,1,.2,2.1,14.92,14.92,0,0,1-.2,2.1,7.49,7.49,0,0,1-.2-2.1A3,3,0,0,1,90.73,49.25Z"/><path class="cls-3" d="M88.73,51.35a6.8,6.8,0,0,1,2-.2,13.55,13.55,0,0,1,2,.2,6.8,6.8,0,0,1-2,.2A6.48,6.48,0,0,1,88.73,51.35Z"/><circle class="cls-7" cx="99.53" cy="51.25" r="0.1"/><path class="cls-3" d="M99.53,49.25a7.49,7.49,0,0,1,.2,2.1,14.92,14.92,0,0,1-.2,2.1,7.49,7.49,0,0,1-.2-2.1A3.71,3.71,0,0,1,99.53,49.25Z"/><path class="cls-3" d="M97.53,51.35a6.8,6.8,0,0,1,2-.2,13.55,13.55,0,0,1,2,.2,6.8,6.8,0,0,1-2,.2A6.48,6.48,0,0,1,97.53,51.35Z"/><circle class="cls-7" cx="108.83" cy="51.15" r="0.1"/><path class="cls-3" d="M108.83,49.15a7.49,7.49,0,0,1,.2,2.1,14.92,14.92,0,0,1-.2,2.1,7.49,7.49,0,0,1-.2-2.1A7.14,7.14,0,0,1,108.83,49.15Z"/><path class="cls-3" d="M107,51.25a6.8,6.8,0,0,1,2-.2,13.55,13.55,0,0,1,2,.2,7.84,7.84,0,0,1-2.1.2A5.84,5.84,0,0,1,107,51.25Z"/><circle class="cls-7" cx="108.83" cy="38.05" r="0.1"/><path class="cls-3" d="M108.83,36.05a7.49,7.49,0,0,1,.2,2.1,14.92,14.92,0,0,1-.2,2.1,7.49,7.49,0,0,1-.2-2.1A7.14,7.14,0,0,1,108.83,36.05Z"/><path class="cls-3" d="M107,38.15a6.8,6.8,0,0,1,2-.2,13.55,13.55,0,0,1,2,.2,6.8,6.8,0,0,1-2,.2A6.17,6.17,0,0,1,107,38.15Z"/><circle class="cls-7" cx="108.83" cy="25.15" r="0.1"/><path class="cls-3" d="M108.83,23.05a7.49,7.49,0,0,1,.2,2.1,14.92,14.92,0,0,1-.2,2.1,7.49,7.49,0,0,1-.2-2.1A7.84,7.84,0,0,1,108.83,23.05Z"/><path class="cls-3" d="M107,25.15a6.8,6.8,0,0,1,2-.2,13.55,13.55,0,0,1,2,.2,6.8,6.8,0,0,1-2,.2A4.27,4.27,0,0,1,107,25.15Z"/><path class="cls-7" d="M142.83,42.35V31a48.53,48.53,0,0,1,35.1,0v11.4"/><line class="cls-7" x1="142.83" y1="42.35" x2="177.83" y2="42.35"/><line class="cls-19" x1="142.23" y1="37.95" x2="139.13" y2="41.45"/><line class="cls-7" x1="142.23" y1="37.95" x2="139.13" y2="41.45"/><line class="cls-19" x1="181.53" y1="41.45" x2="178.33" y2="37.95"/><line class="cls-7" x1="181.53" y1="41.45" x2="178.33" y2="37.95"/><line class="cls-20" x1="139.13" y1="41.45" x2="139.13" y2="56.05"/><line class="cls-20" x1="181.53" y1="41.45" x2="181.53" y2="56.05"/><line class="cls-20" x1="177.83" y1="41.45" x2="177.83" y2="56.05"/><line class="cls-20" x1="142.83" y1="41.45" x2="142.83" y2="56.05"/><polygon class="cls-3" points="181.53 48.75 139.13 48.75 142.83 44.35 177.83 44.35 181.53 48.75"/><line class="cls-7" x1="177.83" y1="34.35" x2="170.83" y2="42.15"/><line class="cls-7" x1="174.33" y1="30.35" x2="163.73" y2="42.05"/><line class="cls-7" x1="167.43" y1="28.25" x2="154.73" y2="42.35"/><line class="cls-7" x1="158.93" y1="27.85" x2="145.93" y2="42.35"/><line class="cls-7" x1="149.23" y1="28.95" x2="143.23" y2="35.65"/><line class="cls-7" x1="170.03" y1="29.25" x2="178.03" y2="38.05"/><line class="cls-7" x1="162.63" y1="27.75" x2="175.53" y2="42.15"/><line class="cls-7" x1="155.13" y1="27.95" x2="167.93" y2="42.15"/><line class="cls-7" x1="148.43" y1="29.25" x2="160.13" y2="42.15"/><line class="cls-7" x1="143.53" y1="30.75" x2="154.03" y2="42.35"/><line class="cls-7" x1="143.13" y1="36.55" x2="148.13" y2="42.05"/><rect class="cls-11" x="200.23" y="93.55" width="37.4" height="22.1"/><line class="cls-11" x1="200.23" y1="93.55" x2="210.73" y2="85.65"/><line class="cls-11" x1="244.23" y1="85.75" x2="210.33" y2="85.75"/><line class="cls-7" x1="237.63" y1="93.55" x2="244.13" y2="86.15"/><line class="cls-7" x1="244.23" y1="85.75" x2="244.23" y2="107.65"/><line class="cls-7" x1="237.83" y1="115.65" x2="244.23" y2="107.65"/><line class="cls-7" x1="206.23" y1="89.55" x2="241.03" y2="89.55"/><circle class="cls-7" cx="213.43" cy="46.95" r="6.3"/><circle class="cls-7" cx="238.23" cy="46.95" r="6.3"/><line class="cls-7" x1="213.43" y1="29.55" x2="213.43" y2="46.95"/><line class="cls-7" x1="238.23" y1="46.25" x2="231.43" y2="36.15"/><line class="cls-7" x1="213.43" y1="36.15" x2="231.43" y2="36.15"/><line class="cls-7" x1="207.23" y1="29.55" x2="219.73" y2="29.55"/><line class="cls-7" x1="231.43" y1="31.95" x2="231.43" y2="36.15"/><ellipse class="cls-3" cx="231.43" cy="32.35" rx="5.6" ry="1.2"/></svg>