<?xml version="1.0" encoding="utf-8"?>
<!-- Generator: Adobe Illustrator 21.1.0, SVG Export Plug-In . SVG Version: 6.00 Build 0)  -->
<svg version="1.1" id="Calque_1" xmlns="http://www.w3.org/2000/svg" xmlns:xlink="http://www.w3.org/1999/xlink" x="0px" y="0px"
	 viewBox="0 0 1000 1000" style="enable-background:new 0 0 1000 1000;" xml:space="preserve">
<style type="text/css">
	.st0{fill:#0C1A29;}
	.st1{opacity:0.5;}
	.st2{fill:#0D1A29;}
	.st3{fill:#C59745;}
	.st4{fill:#0D1A29;stroke:#010101;stroke-width:0.25;stroke-miterlimit:10;}
	.st5{fill:#C59745;stroke:#C59745;stroke-width:0.25;stroke-miterlimit:10;}
	.st6{fill:#0D1A29;stroke:#C59745;stroke-width:0.25;stroke-miterlimit:10;}
	.st7{fill:none;stroke:#C59745;stroke-linecap:round;stroke-linejoin:round;stroke-miterlimit:10;}
	.st8{fill:none;stroke:#030303;stroke-linecap:round;stroke-linejoin:round;stroke-miterlimit:10;}
	.st9{fill:#0D1A29;stroke:#C59745;stroke-linecap:round;stroke-linejoin:round;stroke-miterlimit:10;}
	.st10{fill:none;stroke:#C59745;stroke-width:0.75;stroke-linecap:round;stroke-linejoin:round;stroke-miterlimit:10;}
	.st11{fill:none;stroke:#C59745;stroke-width:0.5;stroke-linecap:round;stroke-linejoin:round;stroke-miterlimit:10;}
	.st12{fill:none;stroke:#C59745;stroke-miterlimit:10;}
	.st13{fill:none;stroke:#C59745;stroke-width:2;stroke-miterlimit:10;}
	.st14{fill:none;stroke:#C59745;stroke-width:0.5;stroke-miterlimit:10;}
	.st15{fill:none;stroke:#C59745;stroke-width:0.25;stroke-miterlimit:10;}
	.st16{fill:none;stroke:#C59745;stroke-width:0.75;stroke-miterlimit:10;}
	.st17{fill:#0D1A29;stroke:#C59745;stroke-width:0.75;stroke-miterlimit:10;}
	.st18{fill:#010101;stroke:#C59745;stroke-width:0.75;stroke-miterlimit:10;}
	.st19{fill:#010101;stroke:#C59745;stroke-linecap:round;stroke-linejoin:round;stroke-miterlimit:10;}
	.st20{fill:none;stroke:#010101;stroke-linecap:round;stroke-linejoin:round;stroke-miterlimit:10;}
	.st21{fill:none;stroke:#C59745;stroke-linejoin:round;stroke-miterlimit:10;}
	.st22{fill:#F3F3F3;}
	.st23{fill:#403E56;}
	.st24{fill:#C69746;}
	.st25{opacity:0.9;}
	.st26{fill:#302E41;}
	.st27{fill:#F8B4B6;}
	.st28{fill:#E6E6E5;}
	.st29{fill:#F16584;}
	.st30{fill:#CCCCCC;}
	.st31{fill:#FFFFFF;}
	.st32{fill:none;stroke:#C59745;stroke-width:3;stroke-miterlimit:10;}
</style>
<rect x="0" y="1.8" class="st0" width="1000" height="1000"/>
<g class="st1">
	<g>
		<path class="st2" d="M776.2,574c-10.8,0-19.4-8.8-19.4-19.9c0-11.1,8.6-19.9,19.4-19.9h55.1c10.8,0,19.4,8.8,19.4,19.9
			c0,11.1-8.6,19.9-19.4,19.9C831,574,776.2,574,776.2,574z"/>
		<path class="st3" d="M831,535.6c10,0,18,8.2,18,18.4s-8,18.4-18,18.4h-54.8c-10,0-18-8.2-18-18.4s8-18.4,18-18.4H831 M831,532.4
			h-54.8c-11.4,0-21.1,10-21.1,21.7l0,0c0,11.7,9.7,21.7,21.1,21.7h55.1c11.4,0,21.1-10,21.1-21.7l0,0
			C852.1,542.4,842.7,532.4,831,532.4L831,532.4z"/>
	</g>
	<g>
		<path class="st4" d="M811,588c-4.3,0-7.7-3.5-7.7-7.9v-3.5c0-2.6,0-5,0.9-6.1c0.3-0.3,1.1-0.6,2.3-0.6h33.7c4.3,0,7.7,3.5,7.7,7.9
			v2.3c0,4.4-3.4,7.9-7.7,7.9H811z"/>
		<path class="st5" d="M840.1,571.9c3.4,0,6.3,2.9,6.3,6.4v2.3c0,3.5-2.9,6.4-6.3,6.4H811c-3.4,0-6.3-2.9-6.3-6.4v-2.3v-1.2
			c0-1.5,0-4.4,0.3-4.7c0,0,0.3-0.3,0.9-0.3h34.2 M840.1,568.7h-33.7c-4.8,0-4.6,4.1-4.6,9.4v2.3c0,5,4,9.4,9.1,9.4h29.1
			c4.8,0,9.1-4.1,9.1-9.4v-2.3C849,572.8,845,568.7,840.1,568.7L840.1,568.7z"/>
	</g>
	<g>
		<path class="st4" d="M764.8,588c-4.3,0-7.7-3.5-7.7-7.9v-2.3c0-4.4,3.4-7.9,7.7-7.9h33.9c0.9,0,1.7,0.3,2.3,0.6
			c0.9,0.9,0.9,3.5,0.9,6.1v3.5c0,4.4-3.4,7.9-7.7,7.9H764.8z"/>
		<path class="st5" d="M798.8,571.9c0.9,0,1.1,0.3,1.1,0.3c0.3,0.3,0.3,3.2,0.3,4.7v1.2v2.3c0,3.5-2.9,6.4-6.3,6.4h-29.1
			c-3.4,0-6.3-2.9-6.3-6.4v-2.3c0-3.5,2.9-6.4,6.3-6.4h33.9 M798.8,568.7h-33.9c-4.8,0-9.1,4.1-9.1,9.4v2.3c0,5,4,9.4,9.1,9.4h29.4
			c4.8,0,9.1-4.1,9.1-9.4v-2.3C803.3,572.8,803.6,568.7,798.8,568.7L798.8,568.7z"/>
	</g>
	<g>
		<rect x="756.8" y="582.5" class="st6" width="93.8" height="14.9"/>
		<path class="st5" d="M849,584.2v11.7h-90.7v-11.7H849 M852.1,581h-97v18.1h97V581L852.1,581z"/>
	</g>
	<g>
		<path class="st6" d="M754.9,597.4c-2.9,0-4.8-2.3-4.8-5v-33.7c0-2.9,2.3-5,4.8-5s4.8,2.3,4.8,5v33.7
			C760,595.3,757.7,597.4,754.9,597.4z"/>
		<path class="st5" d="M754.9,555.2c1.7,0,3.4,1.5,3.4,3.5v33.7c0,1.8-1.4,3.5-3.4,3.5s-3.4-1.5-3.4-3.5v-33.7
			C751.4,557,753.1,555.2,754.9,555.2 M754.9,552L754.9,552c-3.7,0-6.6,2.9-6.6,6.7v33.7c0,3.8,2.9,6.7,6.6,6.7l0,0
			c3.7,0,6.6-2.9,6.6-6.7v-33.7C761.4,554.9,758.6,552,754.9,552L754.9,552z"/>
	</g>
	<g>
		<path class="st4" d="M851.8,597.4c-2.9,0-4.8-2.3-4.8-5v-33.7c0-2.9,2.3-5,4.8-5c2.9,0,4.8,2.3,4.8,5v33.7
			C856.7,595.3,854.7,597.4,851.8,597.4z"/>
		<path class="st5" d="M851.8,555.2c1.7,0,3.4,1.5,3.4,3.5v33.7c0,1.8-1.4,3.5-3.4,3.5c-1.7,0-3.4-1.5-3.4-3.5v-33.7
			C848.4,557,849.8,555.2,851.8,555.2 M851.8,552L851.8,552c-3.7,0-6.6,2.9-6.6,6.7v33.7c0,3.8,2.9,6.7,6.6,6.7l0,0
			c3.7,0,6.6-2.9,6.6-6.7v-33.7C858.4,554.9,855.3,552,851.8,552L851.8,552z"/>
	</g>
</g>
<g class="st1">
	<rect x="847" y="272.6" class="st7" width="79.3" height="54.3"/>
	<line class="st7" x1="847" y1="290" x2="926.2" y2="290"/>
	<line class="st7" x1="847" y1="309" x2="925.2" y2="309"/>
	<line class="st7" x1="857.1" y1="273.8" x2="916.7" y2="273.8"/>
	<line class="st7" x1="857.1" y1="291.4" x2="916.7" y2="291.4"/>
	<line class="st7" x1="857.1" y1="310.1" x2="916.7" y2="310.1"/>
</g>
<g class="st1">
	<g>
		<line class="st7" x1="705.5" y1="762.2" x2="718.9" y2="762.2"/>
		<line class="st7" x1="718.9" y1="762.2" x2="725.5" y2="780.3"/>
		<line class="st7" x1="718.9" y1="762.2" x2="725.5" y2="780.3"/>
		<line class="st7" x1="705.5" y1="762.2" x2="699" y2="780.3"/>
		<line class="st7" x1="699" y1="780.3" x2="725.5" y2="780.3"/>
	</g>
	<g>
		<g>
			<path class="st7" d="M703.8,781.8c0,0,1.3,2.3,0,4.8c-1.3,2.6-3.1,14.5,2.7,18.3c5.7,0,10.6,0,10.6,0"/>
			<path class="st7" d="M720.7,781.8c0,0-1.3,2.3,0,4.8c1.3,2.6,3.1,14.5-2.7,18.3c-5.7,0-10.6,0-10.6,0"/>
		</g>
		<line class="st7" x1="703.8" y1="781.8" x2="720.7" y2="781.8"/>
	</g>
	<rect x="706.4" y="806.5" class="st7" width="11.6" height="1.7"/>
	<path class="st7" d="M706.4,804.9c0,0-9,2.3-8-1.9c0.9-4.3,1.2-6.3-3.5-7.9"/>
</g>
<g class="st1">
	<path class="st7" d="M855.1,854c0,0-14.1-2.8-45-2.8c-30.9,0-45,2.8-45,2.8v-30.6h90.2V854H855.1z"/>
	<line class="st7" x1="759.1" y1="919.4" x2="764.9" y2="855.1"/>
	<line class="st7" x1="855.1" y1="854" x2="861.2" y2="918.3"/>
	<line class="st7" x1="759.1" y1="919.4" x2="861.2" y2="919.4"/>
	<line class="st7" x1="759.1" y1="919.4" x2="759.1" y2="929.9"/>
	<line class="st7" x1="766.8" y1="929.9" x2="759.1" y2="929.9"/>
	<line class="st7" x1="767.9" y1="924.7" x2="766.8" y2="929.9"/>
	<line class="st7" x1="852.3" y1="924.7" x2="767.9" y2="924.7"/>
	<line class="st7" x1="861.2" y1="919.1" x2="861.2" y2="929.4"/>
	<line class="st7" x1="853.4" y1="929.4" x2="861.2" y2="929.4"/>
	<line class="st7" x1="852.3" y1="924.7" x2="853.4" y2="929.4"/>
	<path class="st8" d="M754.9,859.3"/>
	<path class="st9" d="M806,850.7L806,850.7c0-5.5-4.1-9.7-9.4-9.7h-11c-5.2,0-9.4,4.1-9.4,9.4v1.1c0,0.3,0,0.6,0,0.8
		C783.9,851.3,793.8,850.7,806,850.7z"/>
	<path class="st9" d="M815.9,850.7L815.9,850.7c0-5.5,4.1-9.7,9.4-9.7h11c5.2,0,9.4,4.1,9.4,9.4v1.1c0,0.3,0,0.6,0,0.8
		C837.7,851.3,827.8,850.7,815.9,850.7z"/>
</g>
<g class="st1">
	<path class="st7" d="M594.7,772.9h12.5c0.4,0,0.7-0.3,0.7-0.7l0,0c0-0.4-0.3-0.7-0.7-0.7h-12.5c-0.4,0-0.7,0.3-0.7,0.7l0,0
		C594,772.5,594.3,772.9,594.7,772.9z"/>
	<line class="st7" x1="601" y1="763.9" x2="601" y2="772.2"/>
	<rect x="584.5" y="749.1" class="st7" width="33.1" height="14.3"/>
	<rect x="617.5" y="770.1" class="st7" width="18.9" height="30.2"/>
	<rect x="619.7" y="772.9" class="st7" width="14.7" height="2.5"/>
	<rect x="632.2" y="768.8" class="st7" width="2.2" height="1.2"/>
	<rect x="627.8" y="768.8" class="st7" width="2.2" height="1.2"/>
	<line class="st7" x1="622.7" y1="781.3" x2="622.7" y2="794.7"/>
	<line class="st7" x1="627" y1="781.3" x2="627" y2="794.7"/>
	<line class="st7" x1="631.3" y1="781.3" x2="631.3" y2="794.7"/>
	<rect x="582.2" y="783.9" class="st10" width="31.1" height="9.9"/>
	<rect x="585.4" y="791.2" class="st11" width="13.9" height="1.3"/>
	<rect x="583.4" y="785.2" class="st11" width="1.6" height="1.6"/>
	<rect x="586.1" y="785.2" class="st11" width="1.6" height="1.6"/>
	<rect x="589" y="785.2" class="st11" width="1.6" height="1.6"/>
	<rect x="591.9" y="785.2" class="st11" width="1.6" height="1.6"/>
	<rect x="594.6" y="785.2" class="st11" width="1.6" height="1.6"/>
	<rect x="597.5" y="785.2" class="st11" width="1.6" height="1.6"/>
	<rect x="600.1" y="785.2" class="st11" width="1.6" height="1.6"/>
	<rect x="583.4" y="787.6" class="st11" width="1.6" height="1.6"/>
	<rect x="586.1" y="787.6" class="st11" width="1.6" height="1.6"/>
	<rect x="589" y="787.6" class="st11" width="1.6" height="1.6"/>
	<rect x="591.9" y="787.6" class="st11" width="1.6" height="1.6"/>
	<rect x="594.6" y="787.6" class="st11" width="1.6" height="1.6"/>
	<rect x="597.5" y="787.6" class="st11" width="1.6" height="1.6"/>
	<rect x="600.1" y="787.6" class="st11" width="1.6" height="1.6"/>
	<rect x="602.8" y="789.7" class="st11" width="1" height="1"/>
	<rect x="603" y="791.6" class="st11" width="1" height="1"/>
	<rect x="604.9" y="791.6" class="st11" width="1" height="1"/>
	<rect x="601.1" y="791.6" class="st11" width="1" height="1"/>
	<rect x="605.7" y="785.2" class="st11" width="1.6" height="1.6"/>
	<rect x="608.2" y="785.2" class="st11" width="1.6" height="1.6"/>
	<rect x="610.5" y="785.2" class="st11" width="1.6" height="1.6"/>
	<rect x="605.7" y="787.6" class="st11" width="1.6" height="1.6"/>
	<rect x="608.2" y="787.6" class="st11" width="1.6" height="1.6"/>
	<rect x="610.5" y="787.6" class="st11" width="1.6" height="1.6"/>
	<rect x="608.2" y="790" class="st11" width="1.6" height="1.6"/>
	<rect x="610.5" y="790" class="st11" width="1.6" height="1.6"/>
	<path class="st11" d="M597,783.9c0,0-0.4-6,2.5-6.5c2.9-0.5,2.3-3.7,2.2-4.6"/>
</g>
<g class="st1">
	<rect x="919.8" y="115" class="st7" width="47.1" height="99.8"/>
	<rect x="923" y="118.5" class="st10" width="18.7" height="65.2"/>
	<rect x="923" y="186.7" class="st10" width="40.3" height="25.2"/>
	<rect x="944.7" y="118.5" class="st10" width="18.7" height="65.2"/>
	<line class="st10" x1="940.1" y1="190.5" x2="946.3" y2="190.5"/>
	<line class="st10" x1="939" y1="158" x2="939" y2="152.4"/>
	<line class="st10" x1="947.1" y1="158" x2="947.1" y2="152.4"/>
</g>
<g class="st1">
	<g>
		<ellipse class="st12" cx="858.3" cy="391.1" rx="17.3" ry="2.4"/>
		<path class="st12" d="M841,405.2c0,1.4,7.8,2.4,17.3,2.4c9.5,0,17.3-1,17.3-2.4"/>
		<line class="st12" x1="841" y1="391.1" x2="841" y2="405.2"/>
		<line class="st12" x1="875.8" y1="391.1" x2="875.8" y2="405.2"/>
	</g>
	<line class="st13" x1="858.3" y1="407.6" x2="858.3" y2="452.5"/>
	<ellipse class="st12" cx="858.3" cy="434.4" rx="9.7" ry="1.7"/>
	<ellipse class="st3" cx="858.3" cy="451.7" rx="15.8" ry="2.2"/>
</g>
<g class="st1">
	<rect x="517.6" y="885.5" class="st12" width="40.1" height="84.5"/>
	<line class="st13" x1="654.6" y1="882.3" x2="654.6" y2="972.2"/>
	<rect x="522.5" y="897.1" class="st14" width="30.7" height="20.1"/>
	<rect x="522.5" y="920.8" class="st14" width="30.7" height="20.1"/>
	<rect x="522.5" y="945" class="st14" width="30.7" height="20.1"/>
	<ellipse class="st15" cx="537.9" cy="905.6" rx="0.4" ry="0.9"/>
	<polygon class="st3" points="537.9,905.6 536.4,909.6 539.4,909.6 	"/>
	<ellipse class="st15" cx="537.9" cy="929.3" rx="0.4" ry="0.9"/>
	<polygon class="st3" points="537.9,929.3 536.4,933.3 539.4,933.3 	"/>
	<ellipse class="st15" cx="537.9" cy="953" rx="0.4" ry="0.9"/>
	<polygon class="st3" points="537.9,953 536.4,957 539.4,957 	"/>
	<rect x="516" y="882.3" class="st3" width="146.1" height="5.6"/>
</g>
<g class="st1">
	<rect x="907.9" y="500.5" class="st10" width="50.6" height="12.4"/>
	<ellipse class="st10" cx="933.2" cy="506.9" rx="2" ry="2"/>
	<path class="st10" d="M923.4,538.5"/>
	<path class="st10" d="M962,516.5L962,516.5v-19h-57.6v19c0,0-4.8,16.9-0.3,24.5c4.6,7.6,5.3,2.5,4.6,7.6c-0.8,4.8,0.8-0.3,5.3,0
		c4.6,0.3-11.4-6.1-6.1-30.8c0,0,13.4,7.3,18.2,7.3c0,2.8-2.3,3.5,0,5.8c2.3,2.3,5.6,0.3,5.6-3.8c0,4.8,2.5,13.7,3,0
		c0,4.3,3.8,6.1,6.1,3.5s0-3,0-5.8c4.3,0,15.4-6.1,17.4-7.1c4.6,24-10.9,31.4-6.3,30.8c4.8-0.3,6.1,4.8,5.3,0c-0.8-4.8,0,0,4.6-7.6
		C966.6,533.4,962,516.5,962,516.5z"/>
	<polygon class="st11" points="935.2,516.5 931.2,516.5 929.4,520 931.2,523.3 935.2,523.3 937,520 	"/>
	<polygon class="st11" points="927.2,516.7 924.1,516.7 922.9,519.3 924.1,521.8 927.2,521.8 928.4,519.3 	"/>
	<polygon class="st11" points="941.8,516.7 939,516.7 937.8,519.3 939,521.8 941.8,521.8 943.3,519.3 	"/>
	<g>
		<path class="st10" d="M933.2,452.3c-13.4,0-24.3,17.4-24.3,38.7c0,1.3,0,2.8,0.3,4h48.3c0-1.3,0.3-2.8,0.3-4
			C957.5,469.4,946.6,452.3,933.2,452.3z"/>
		<path class="st10" d="M960.5,477.8c-1,0-2,0.8-2,2v5.8c-0.3,0.3-0.5,0.5-0.5,0.8s0.3,0.8,0.5,0.8v8.3c0,1,0.8,2,2,2
			c1.3,0,2-0.8,2-2v-15.9C962.3,478.5,961.5,477.8,960.5,477.8z"/>
		<path class="st10" d="M907.9,485.1L907.9,485.1v-5.6c0-1-0.8-2-2-2s-2,0.8-2,2v15.9c0,1,0.8,2,2,2s2-0.8,2-2v-8.3l0,0
			c0.5,0,1-0.5,1-1S908.4,485.1,907.9,485.1z"/>
	</g>
	<path class="st10" d="M903.4,510.4L903.4,510.4c0.5,0,1-0.5,1-1v-4.8c0-0.5-0.5-1-1-1l0,0c-0.5,0-1,0.5-1,1v4.8
		C902.1,509.9,902.6,510.4,903.4,510.4z"/>
	<path class="st10" d="M963.1,510.4L963.1,510.4c0.5,0,1-0.5,1-1v-4.8c0-0.5-0.5-1-1-1l0,0c-0.5,0-1,0.5-1,1v4.8
		C962,509.9,962.5,510.4,963.1,510.4z"/>
	<ellipse class="st10" cx="903.6" cy="486.1" rx="0.5" ry="1.3"/>
	<ellipse class="st10" cx="962.8" cy="486.1" rx="0.5" ry="1.3"/>
</g>
<g class="st1">
	<path class="st16" d="M952.6,914.8h-23.2c-8.7,0-15.8-7.1-15.8-15.8v-8.3c0-8.7,7.1-15.8,15.8-15.8h23.2c8.7,0,15.8,7.1,15.8,15.8
		v8.3C968.4,907.8,961.4,914.8,952.6,914.8z"/>
	<g>
		<path class="st2" d="M914.9,923.5c-1.5,0-2.4-0.9-2.4-2.4v-12.9c0-1.5,0.9-2.4,2.4-2.4h52.3c1.5,0,2.4,0.9,2.4,2.4v12.9
			c0,1.5-0.9,2.4-2.4,2.4H914.9z"/>
		<path class="st3" d="M967.2,907.2c0.7,0,1.1,0.5,1.1,1.1v12.9c0,0.7-0.5,1.1-1.1,1.1h-52.3c-0.7,0-1.1-0.4-1.1-1.1v-12.9
			c0-0.7,0.5-1.1,1.1-1.1H967.2 M967.2,904.9h-52.3c-1.8,0-3.4,1.6-3.4,3.4v12.9c0,1.8,1.6,3.4,3.4,3.4h52.3c1.8,0,3.4-1.6,3.4-3.4
			v-12.9C970.6,906.5,969,904.9,967.2,904.9L967.2,904.9z"/>
	</g>
	<g>
		<path class="st2" d="M915.1,933.3L915.1,933.3h-1.3h-0.4c-2.5,0-4.4-1.8-4.4-4.2v-32.1c0-2.4,2-4.2,4.4-4.2s4.4,1.8,4.4,4.2v20
			h45.9v-20c0-2.4,2-4.2,4.4-4.2s4.4,1.8,4.4,4.2v32.1c0,2-1.8,3.8-4.2,4.2h-0.5H915.1z"/>
		<path class="st3" d="M968.2,894.1c1.8,0,3.3,1.5,3.3,2.9v32.1c0,1.6-1.5,2.9-2.9,2.9h-0.5h-51.9v-0.2l-2.4,0.4h-0.4
			c-1.8,0-3.3-1.5-3.3-2.9v-32.3c0-1.6,1.5-2.9,3.3-2.9s3.3,1.5,3.3,2.9v18.9v2.4h2.4h43.5h2.4v-2.4v-18.9
			C965.2,895.4,966.4,894.1,968.2,894.1 M968.2,891.8c-2.9,0-5.4,2.5-5.4,5.3v18.9h-43.5v-18.9c0-2.9-2.5-5.3-5.4-5.3
			s-5.4,2.5-5.4,5.3v32.1c0,2.9,2.5,5.3,5.4,5.3h0.2l0,0h54.8l0,0c2.7-0.2,5.1-2.5,5.1-5.3v-32.1
			C973.9,894.1,971.5,891.8,968.2,891.8L968.2,891.8z"/>
	</g>
	<g>
		<path class="st17" d="M914.7,937.3c-0.4,0-0.7-0.4-0.7-0.7v-0.9c0-0.4,0.4-0.7,0.7-0.7h6c0.4,0,0.7,0.4,0.7,0.7v1.1
			c0,0.4-0.4,0.7-0.7,0.7h-6V937.3z"/>
		<path class="st18" d="M920.7,935.3c0.2,0,0.4,0.2,0.4,0.4v0.9c0,0.2-0.2,0.4-0.4,0.4h-6c-0.2,0-0.2-0.2-0.2-0.4v-0.9
			c0-0.2,0.2-0.4,0.2-0.4H920.7 M920.7,934.4h-6c-0.5,0-1.1,0.5-1.1,1.1v1.1c0,0.7,0.5,1.1,1.1,1.1h6c0.5,0,1.1-0.5,1.1-1.1v-0.9
			C922,935.2,921.3,934.4,920.7,934.4L920.7,934.4z"/>
	</g>
	<g>
		<path class="st17" d="M961.4,937.3c-0.4,0-0.7-0.4-0.7-0.7v-0.9c0-0.4,0.4-0.7,0.7-0.7h6c0.4,0,0.7,0.4,0.7,0.7v1.1
			c0,0.4-0.4,0.7-0.7,0.7h-6V937.3z"/>
		<path class="st18" d="M967.3,935.3c0.2,0,0.4,0.2,0.4,0.4v0.9c0,0.2-0.2,0.4-0.4,0.4h-6c-0.2,0-0.2-0.2-0.2-0.4v-0.9
			c0-0.2,0.2-0.4,0.2-0.4H967.3 M967.3,934.4h-6c-0.5,0-1.1,0.5-1.1,1.1v1.1c0,0.7,0.5,1.1,1.1,1.1h6c0.5,0,1.1-0.5,1.1-1.1v-0.9
			C968.4,935.2,967.9,934.4,967.3,934.4L967.3,934.4z"/>
	</g>
</g>
<g class="st1">
	<rect x="886" y="648.2" class="st7" width="62.3" height="62.3"/>
	<rect x="898.9" y="664.9" class="st19" width="36.7" height="1"/>
	<rect x="908.6" y="652" class="st7" width="16.8" height="3.3"/>
	<line class="st7" x1="886" y1="703.9" x2="948.3" y2="703.9"/>
	<rect x="886" y="660" class="st7" width="1.3" height="43.9"/>
	<rect x="947" y="660" class="st7" width="1.3" height="43.9"/>
	<line class="st7" x1="887.3" y1="660" x2="947" y2="660"/>
	<circle class="st7" cx="903.1" cy="653.6" r="2.1"/>
	<circle class="st7" cx="931" cy="653.6" r="2.1"/>
	<rect x="894" y="670.6" class="st7" width="47.2" height="26.9"/>
</g>
<g class="st1">
	<rect x="337.1" y="923.9" class="st7" width="63" height="63"/>
	<circle class="st7" cx="368.7" cy="956.5" r="20"/>
	<circle class="st7" cx="341.8" cy="927.9" r="1.3"/>
	<circle class="st7" cx="346.7" cy="927.9" r="1.3"/>
	<line class="st7" x1="351" y1="927.9" x2="360.5" y2="927.9"/>
	<circle class="st7" cx="368.7" cy="956.5" r="14.2"/>
	<ellipse class="st3" cx="387.3" cy="956.5" rx="1.5" ry="5.5"/>
</g>
<g class="st1">
	<rect x="764.7" y="675.2" class="st7" width="47.7" height="64.5"/>
	<circle class="st7" cx="788.5" cy="686.3" r="0.2"/>
	<g>
		<path class="st3" d="M788.5,683c0.4,1.1,0.4,2.3,0.4,3.4s-0.2,2.3-0.4,3.4c-0.4-1.1-0.4-2.3-0.4-3.4
			C788.2,685.1,788.2,684.1,788.5,683z"/>
	</g>
	<g>
		<path class="st3" d="M785.5,686.2c1.1-0.4,2.1-0.4,3.2-0.4s2.1,0.2,3.2,0.4c-1.1,0.4-2.1,0.4-3.2,0.4
			C787.5,686.7,786.4,686.6,785.5,686.2z"/>
	</g>
	<circle class="st7" cx="774.5" cy="686.3" r="0.2"/>
	<g>
		<path class="st3" d="M774.5,682.9c0.4,1.1,0.4,2.3,0.4,3.4c0,1.1-0.2,2.3-0.4,3.4c-0.4-1.1-0.4-2.3-0.4-3.4
			C773.9,685,774.1,684,774.5,682.9z"/>
	</g>
	<g>
		<path class="st3" d="M771.2,686.1c1.1-0.4,2.1-0.4,3.2-0.4s2.1,0.2,3.2,0.4c-1.1,0.4-2.1,0.4-3.2,0.4
			C773.4,686.6,772.3,686.5,771.2,686.1z"/>
	</g>
	<circle class="st7" cx="788.5" cy="707.5" r="0.2"/>
	<g>
		<path class="st3" d="M788.5,704c0.4,1.1,0.4,2.3,0.4,3.4s-0.2,2.3-0.4,3.4c-0.4-1.1-0.4-2.3-0.4-3.4S788.2,705.1,788.5,704z"/>
	</g>
	<g>
		<path class="st3" d="M785.5,707.4c1.1-0.4,2.1-0.4,3.2-0.4s2.1,0.2,3.2,0.4c-1.1,0.4-2.1,0.4-3.2,0.4
			C787.5,707.7,786.4,707.7,785.5,707.4z"/>
	</g>
	<circle class="st7" cx="774.5" cy="707.5" r="0.2"/>
	<g>
		<path class="st3" d="M774.5,704c0.4,1.1,0.4,2.3,0.4,3.4s-0.2,2.3-0.4,3.4c-0.4-1.1-0.4-2.3-0.4-3.4
			C773.9,706.3,774.1,705.1,774.5,704z"/>
	</g>
	<g>
		<path class="st3" d="M771.2,707.4c1.1-0.4,2.1-0.4,3.2-0.4s2.1,0.2,3.2,0.4c-1.1,0.4-2.1,0.4-3.2,0.4S772.3,707.7,771.2,707.4z"/>
	</g>
	<circle class="st7" cx="774.5" cy="728.5" r="0.2"/>
	<g>
		<path class="st3" d="M774.5,725.2c0.4,1.1,0.4,2.3,0.4,3.4c0,1.1-0.2,2.3-0.4,3.4c-0.4-1.1-0.4-2.3-0.4-3.4
			C773.9,727.3,774.1,726.3,774.5,725.2z"/>
	</g>
	<g>
		<path class="st3" d="M771.2,728.6c1.1-0.4,2.1-0.4,3.2-0.4s2.1,0.2,3.2,0.4c-1.1,0.4-2.1,0.4-3.2,0.4S772.3,728.9,771.2,728.6z"/>
	</g>
	<circle class="st7" cx="788.7" cy="728.5" r="0.2"/>
	<g>
		<path class="st3" d="M788.7,725.2c0.4,1.1,0.4,2.3,0.4,3.4c0,1.1-0.2,2.3-0.4,3.4c-0.4-1.1-0.4-2.3-0.4-3.4
			C788.3,727.3,788.3,726.3,788.7,725.2z"/>
	</g>
	<g>
		<path class="st3" d="M785.5,728.6c1.1-0.4,2.1-0.4,3.2-0.4s2.1,0.2,3.2,0.4c-1.1,0.4-2.1,0.4-3.2,0.4S786.6,728.9,785.5,728.6z"/>
	</g>
	<circle class="st7" cx="803.8" cy="728.3" r="0.2"/>
	<g>
		<path class="st3" d="M803.8,725c0.4,1.1,0.4,2.3,0.4,3.4c0,1.1-0.2,2.3-0.4,3.4c-0.4-1.1-0.4-2.3-0.4-3.4
			C803.5,727.3,803.5,726.1,803.8,725z"/>
	</g>
	<g>
		<path class="st3" d="M800.8,728.4c1.1-0.4,2.1-0.4,3.2-0.4c1.1,0,2.1,0.2,3.2,0.4c-1.2,0.4-2.3,0.4-3.4,0.4
			C802.8,728.7,801.9,728.7,800.8,728.4z"/>
	</g>
	<circle class="st7" cx="803.8" cy="707.1" r="0.2"/>
	<g>
		<path class="st3" d="M803.8,703.8c0.4,1.1,0.4,2.3,0.4,3.4s-0.2,2.3-0.4,3.4c-0.4-1.1-0.4-2.3-0.4-3.4S803.5,704.9,803.8,703.8z"
			/>
	</g>
	<g>
		<path class="st3" d="M800.8,707.2c1.1-0.4,2.1-0.4,3.2-0.4c1.1,0,2.1,0.2,3.2,0.4c-1.1,0.4-2.1,0.4-3.2,0.4
			C802.8,707.5,801.9,707.5,800.8,707.2z"/>
	</g>
	<circle class="st7" cx="803.8" cy="686.3" r="0.2"/>
	<g>
		<path class="st3" d="M803.8,682.8c0.4,1.1,0.4,2.3,0.4,3.4s-0.2,2.3-0.4,3.4c-0.4-1.1-0.4-2.3-0.4-3.4S803.5,684.1,803.8,682.8z"
			/>
	</g>
	<g>
		<path class="st3" d="M800.8,686.2c1.1-0.4,2.1-0.4,3.2-0.4c1.1,0,2.1,0.2,3.2,0.4c-1.1,0.4-2.1,0.4-3.2,0.4
			C802.8,686.7,801.9,686.6,800.8,686.2z"/>
	</g>
</g>
<g class="st1">
	<path class="st7" d="M392.4,809.7v-22.4c0,0,32.3-14.5,69.4,0v22.4"/>
	<line class="st7" x1="392.4" y1="809.7" x2="461.6" y2="809.7"/>
	<line class="st20" x1="391.3" y1="801" x2="385.1" y2="807.9"/>
	<line class="st7" x1="391.3" y1="801" x2="385.1" y2="807.9"/>
	<line class="st20" x1="468.9" y1="807.9" x2="462.7" y2="801"/>
	<line class="st7" x1="468.9" y1="807.9" x2="462.7" y2="801"/>
	<line class="st21" x1="385.1" y1="807.9" x2="385.1" y2="836.8"/>
	<line class="st21" x1="468.9" y1="807.9" x2="468.9" y2="836.8"/>
	<line class="st21" x1="461.6" y1="807.9" x2="461.6" y2="836.8"/>
	<line class="st21" x1="392.4" y1="807.9" x2="392.4" y2="836.8"/>
	<polygon class="st3" points="468.9,822.5 385.1,822.5 392.4,813.6 461.6,813.6 	"/>
	<line class="st7" x1="461.6" y1="793.9" x2="447.8" y2="809.4"/>
	<line class="st7" x1="454.7" y1="786" x2="433.6" y2="809.2"/>
	<line class="st7" x1="441" y1="781.8" x2="415.9" y2="809.7"/>
	<line class="st7" x1="424.3" y1="781.1" x2="398.6" y2="809.7"/>
	<line class="st7" x1="405.1" y1="783.3" x2="393.3" y2="796.6"/>
	<line class="st7" x1="446.3" y1="783.8" x2="462" y2="801.3"/>
	<line class="st7" x1="431.7" y1="780.8" x2="457.1" y2="809.4"/>
	<line class="st7" x1="416.8" y1="781.3" x2="442.1" y2="809.4"/>
	<line class="st7" x1="403.5" y1="783.8" x2="426.6" y2="809.4"/>
	<line class="st7" x1="393.8" y1="786.7" x2="414.6" y2="809.7"/>
	<line class="st7" x1="393.1" y1="798.3" x2="402.9" y2="809.2"/>
</g>
<g class="st1">
	<rect x="641.2" y="655.5" class="st12" width="62" height="36.6"/>
	<line class="st12" x1="641.2" y1="655.5" x2="658.6" y2="642.4"/>
	<line class="st12" x1="714.2" y1="642.6" x2="658" y2="642.6"/>
	<line class="st7" x1="703.3" y1="655.5" x2="714" y2="643.2"/>
	<line class="st7" x1="714.2" y1="642.6" x2="714.2" y2="678.9"/>
	<line class="st7" x1="703.6" y1="692.1" x2="714.2" y2="678.9"/>
	<line class="st7" x1="651.1" y1="649" x2="708.9" y2="649"/>
</g>
<g class="st1">
	<circle class="st7" cx="884.7" cy="787.8" r="10.7"/>
	<circle class="st7" cx="926.7" cy="787.8" r="10.7"/>
	<line class="st7" x1="884.7" y1="758.3" x2="884.7" y2="787.8"/>
	<line class="st7" x1="926.7" y1="786.6" x2="915" y2="769.5"/>
	<line class="st7" x1="884.7" y1="769.5" x2="915" y2="769.5"/>
	<line class="st7" x1="874" y1="758.3" x2="895.3" y2="758.3"/>
	<line class="st7" x1="915" y1="762.4" x2="915" y2="769.5"/>
	<ellipse class="st3" cx="915" cy="763.1" rx="9.5" ry="2"/>
</g>
<g>
	<path class="st22" d="M223.6,928.3c1,0.1,1.5-1.2,0.8-1.9l-0.1-0.3c0,0,0,0,0-0.1c1-2.4,4.4-2.4,5.4,0c0.9,2.1,2,4.2,2.3,6.5
		c0.1,1,0.1,2-0.2,3c2.1-4.5,3.1-9.4,3.1-14.4c0-1.2-0.1-2.5-0.2-3.7c-0.1-1-0.3-2-0.5-3c-1.1-5.4-3.5-10.5-6.9-14.8
		c-1.7-0.9-3-2.3-3.9-4c-0.3-0.6-0.5-1.3-0.6-1.9c0.2,0,0.7-2.8,0.6-3c0.3-0.4,0.7-0.6,1-1c1.4-1.9,3.4-1.6,4.4,1
		c2.2,1.1,2.2,2.9,0.9,4.7c-0.9,1.1-1,2.6-1.7,3.8c0.1,0.1,0.2,0.2,0.2,0.3c1.4,1.8,2.6,3.8,3.7,5.8c-0.3-2.3,0.1-5,0.9-6.8
		c0.8-2,2.4-3.7,3.8-5.5c1.7-2.1,5.1-1.2,5.3,1.5c0,0,0,0.1,0,0.1c-0.2,0.1-0.4,0.2-0.6,0.4c-1.1,0.7-0.7,2.5,0.6,2.7l0,0
		c-0.1,0.7-0.2,1.5-0.4,2.2c1.8,6.8-2.1,9.3-7.5,9.5c-0.1,0.1-0.2,0.1-0.4,0.2c0.6,1.6,1,3.2,1.3,4.8c0.3,1.4,0.5,2.9,0.6,4.3
		c0.1,1.8,0.1,3.7,0,5.5l0-0.1c0.4-2,1.5-3.9,3.1-5.2c2.4-1.9,5.7-2.7,8.3-4.2c1.2-0.8,2.8,0.2,2.6,1.6l0,0.1
		c-0.4,0.2-0.8,0.3-1.1,0.5c-0.2,0.1-0.4,0.2-0.6,0.4c-1.1,0.7-0.7,2.5,0.6,2.7l0,0c0,0,0,0,0.1,0c-0.7,1.5-1.6,3-2.7,4.2
		c-1.1,6-5.9,6.5-10.9,4.8h0c-0.6,2.4-1.4,4.8-2.4,7h-8.6c0-0.1-0.1-0.2-0.1-0.3c0.8,0,1.6,0,2.4-0.1c-0.6-0.8-1.3-1.6-1.9-2.4
		c0,0,0,0,0,0c-0.3-0.4-0.7-0.8-1-1.2l0,0C223.2,930.7,223.3,929.5,223.6,928.3L223.6,928.3L223.6,928.3L223.6,928.3z"/>
	<path class="st22" d="M98.9,928.3L98.9,928.3c0.3,1.2,0.4,2.4,0.4,3.7l0,0c-0.3,0.4-0.7,0.8-1,1.2c0,0,0,0,0,0
		c-0.6,0.8-1.3,1.6-1.9,2.4c0.8,0.1,1.6,0.2,2.4,0.1c0,0.1-0.1,0.2-0.1,0.3h-8.6c-1-2.3-1.9-4.6-2.4-7h0c-5.1,1.7-9.8,1.2-10.9-4.8
		c-1.1-1.2-2-2.7-2.7-4.2c0,0,0,0,0.1,0l0,0c1.3-0.2,1.7-1.9,0.6-2.7c-0.2-0.1-0.4-0.3-0.6-0.4c-0.4-0.2-0.7-0.4-1.1-0.5l0-0.1
		c-0.2-1.4,1.4-2.4,2.6-1.6c2.6,1.6,5.9,2.3,8.3,4.2c1.6,1.3,2.7,3.2,3.1,5.2l0,0.1c-0.2-1.8-0.2-3.7,0-5.5c0.1-1.5,0.3-2.9,0.6-4.3
		c0.3-1.6,0.8-3.2,1.3-4.8c-0.1-0.1-0.2-0.1-0.4-0.2c-5.5-0.1-9.3-2.6-7.5-9.5c-0.2-0.7-0.3-1.5-0.4-2.2l0,0
		c1.3-0.2,1.7-1.9,0.6-2.7c-0.2-0.1-0.4-0.3-0.6-0.4c0,0,0-0.1,0-0.1c0.3-2.7,3.7-3.6,5.3-1.5c1.4,1.7,2.9,3.4,3.8,5.5
		c0.7,1.8,1.2,4.5,0.9,6.8c1-2.1,2.3-4,3.7-5.8c0.1-0.1,0.2-0.2,0.2-0.3c-0.8-1.2-0.9-2.7-1.7-3.8c-1.3-1.8-1.3-3.6,0.9-4.7
		c1-2.6,3-3,4.4-1c0.3,0.4,0.8,0.6,1,1c-0.1,0.2,0.4,3,0.6,3c-0.1,0.7-0.3,1.3-0.6,1.9c-0.8,1.7-2.2,3.1-3.9,4
		c-3.4,4.3-5.8,9.4-6.9,14.8c-0.2,1-0.4,2-0.5,3c-0.1,1.2-0.2,2.5-0.2,3.7c0,4.9,1.1,9.9,3.1,14.4c-0.2-1-0.3-2-0.2-3
		c0.3-2.2,1.4-4.4,2.3-6.5c1-2.4,4.4-2.4,5.4,0c0,0,0,0,0,0.1l-0.1,0.3C97.4,927.1,97.9,928.3,98.9,928.3L98.9,928.3L98.9,928.3z"/>
	<path class="st23" d="M190.2,804.8h-53.1l0.1-0.5L156,633h18l0,0.4L190.2,804.8z M139.6,803.8h48.1l-14.6-169.9h-16.2L139.6,803.8z
		"/>
	<path class="st23" d="M204.1,811.7h-82v-7.9h82V811.7z M123.1,810.8h80v-6h-80V810.8z"/>
	<path class="st23" d="M180,633.9h-29.4V626H180V633.9z M151.5,633H179v-6h-27.5V633z"/>
	<path class="st23" d="M193.8,823.3l11.3,46.1h3.9L193.8,823.3z M205.1,869.4H194l-11.4-46.5l-0.2-1l-2.5-10.2H190l3.4,10.2l0.3,1
		l0.1,0.4l-0.1-0.4l-0.2-1l-2.7-11.2h-12.1l2.7,11.2l0.2,1l11.6,47.4h12.1L205.1,869.4z"/>
	<path class="st23" d="M132.6,822l-0.3,1l-16.1,46.5h4.9l11.4-46.5L132.6,822l0.2-0.6L132.6,822z M135.4,810.8l-2.6,10.6l3.3-9.7
		h10.1l-2.5,10.2l-0.2,1l-11.4,46.5H121l-0.2,1h12.1l11.6-47.4l0.2-1l2.7-11.2H135.4z"/>
	<polygon class="st23" points="236.2,936 215.7,936 196.2,904.9 197,904.5 216.3,935 233.8,935 209.9,877 210.8,876.7 	"/>
	<polygon class="st23" points="109.1,936 88.5,936 114,876.7 114.9,877 90.9,935 108.4,935 127.7,904.5 128.6,904.9 	"/>
	<path class="st23" d="M244,877.3H85.3v-7.9H244V877.3z M86.3,876.4H243v-6H86.3C86.3,870.4,86.3,876.4,86.3,876.4z"/>
	<path class="st23" d="M206.1,920.9c-29.1-11.9-58.6-11.9-87.6,0l-0.6-0.8c27.8-16.8,53.7-19.7,88.8,0L206.1,920.9z"/>
	<path class="st23" d="M203.7,908.1c-27.4-12-55.1-12-82.5,0l-0.4-0.9c27.6-12.1,55.7-12.1,83.3,0L203.7,908.1z"/>
	<polygon class="st23" points="193.7,822.9 132.3,822.9 132.6,822 193.5,822 	"/>
	<polygon class="st23" points="195.2,828.5 130.6,828.5 131.6,826.5 194.7,826.5 	"/>
	<path class="st23" d="M174,627h-18.1V611H174V627z M156.9,626.1H173v-13.2l-15.2-1L156.9,626.1z"/>
	<path class="st23" d="M167.4,611.9h-5.5v-27.8h5.5V611.9z M162.9,611h3.6l-1.4-26l-2.2,0.2V611z"/>
	<path class="st24" d="M217.4,777.5L217.4,777.5c-0.9-2.2-3.4-3.3-5.6-2.5h0c-2.2,0.9-3.3,3.3-2.5,5.6l-0.1,0l3.1,8.1l7.5-2.9
		c0.2,0,0.5-0.1,0.7-0.2h0c2.2-0.9,3.3-3.4,2.5-5.6l0,0C222.2,777.7,219.7,776.6,217.4,777.5L217.4,777.5z"/>
	<path class="st24" d="M148.6,856.4L148.6,856.4c-0.9-2.2-3.4-3.3-5.6-2.5h0c-2.2,0.9-3.3,3.3-2.5,5.6l-0.1,0l3.1,8.1l7.5-2.9
		c0.2,0,0.5-0.1,0.7-0.2h0c2.2-0.9,3.3-3.4,2.5-5.6l0,0C153.3,856.6,150.8,855.5,148.6,856.4L148.6,856.4L148.6,856.4z"/>
	<path class="st24" d="M132.2,688.8L132.2,688.8L132.2,688.8c-2.4-0.2-4.5,1.5-4.7,3.9l0,0c-0.2,2.4,1.5,4.5,3.9,4.7l0,0.1l8.7,0.8
		l0.7-8c0.1-0.2,0.1-0.5,0.1-0.8v0c0.2-2.4-1.5-4.5-3.9-4.7h0C134.5,684.6,132.4,686.4,132.2,688.8L132.2,688.8L132.2,688.8z"/>
	<rect x="57.8" y="935.5" class="st23" width="215.4" height="1"/>
</g>
<g class="st25">
	<path class="st22" d="M821.7,163.8c0.7,0.4,1.6,0.1,2-0.6c0.2-0.4,0.2-0.8,0.1-1.3c0-0.2,0.1-0.3,0.1-0.4c1.6-1.5,4.1-1.4,5.6,0.2
		c0.7,0.8,1.1,1.8,1.1,2.9c-0.2,4.5,0,9.3-2.9,12.9c13.6-11.1,19.8-30,15.6-47c-2-2.8-3-6.6-2.1-10c1.1,1.1,3.4,0.8,3-1.1
		c-0.2-0.8-0.4-1.5-0.6-2.3c7.8-3.1,9.9,8.6,0.6,13.3c0.8,3.2,1.2,6.5,1.2,9.9c1-3,2.8-5.7,5.1-7.9c2.2-2,5.2-3.2,7.9-4.5
		c3.3-1.6,7,1.6,5.7,5.1c-2.2-0.3-3.8,2.4-1.8,3.8c-3.5,5.9-10.3,9.7-17.2,9.8c-0.7,6.8-2.8,13.3-6.2,19.2c4.4-6.7,12.9-4.8,19.6-5
		c1.3-0.2,2.4,0.7,2.6,2c0.1,0.6-0.1,1.2-0.4,1.6c-0.9-0.1-1.8,0-2.6,0.1c-1.1,0.2-1.9,1.2-1.7,2.3c0.1,0.6,0.4,1.1,1,1.4
		c-5.9,5.4-15,6.6-22.2,3.1c-2.1,2.7-4.5,5.1-7.1,7.3l-10.7-5.1c0-0.1,0-0.3,0.1-0.4c1,0.5,2,0.9,3,1.2
		C819.4,169.9,818.1,167.4,821.7,163.8L821.7,163.8z"/>
	<path class="st22" d="M802.9,153.5c-0.5,0.6-1.5,0.7-2.1,0.2c-0.3-0.3-0.5-0.7-0.5-1.1c-0.1-0.1-0.1-0.2-0.2-0.3
		c-2.1-0.8-4.4,0.2-5.2,2.3c-0.4,1-0.3,2.1,0.1,3.1c1.9,4.1,3.5,8.6,7.6,10.9c-16.8-5.2-29.6-20.3-32.2-37.7
		c0.8-3.4,0.3-7.2-1.9-10.1c-0.6,1.5-2.8,2-3.2,0.1c-0.1-0.8-0.2-1.6-0.3-2.3c-8.4,0.1-5.9,11.7,4.5,12.6c0.5,3.3,1.4,6.5,2.6,9.6
		c-2.1-2.4-4.7-4.2-7.7-5.4c-2.8-1-6-1-9-1.2c-3.7-0.3-5.9,4.1-3.4,6.9c1.9-1.1,4.4,0.8,3.1,2.8c5.5,4.2,13.2,5.1,19.6,2.6
		c3.2,6,7.6,11.3,13,15.4c-6.6-4.5-13.7,0.5-20.1,2.7c-1.2,0.3-2,1.6-1.6,2.8c0.1,0.6,0.5,1,1,1.4c0.8-0.4,1.6-0.7,2.5-0.9
		c1.1-0.3,2.2,0.4,2.4,1.5c0.1,0.6,0,1.2-0.3,1.7c7.5,2.8,16.4,0.4,21.7-5.5c3,1.7,6.1,3,9.4,4.1l8-8.7c-0.1-0.1-0.1-0.2-0.2-0.4
		c-0.7,0.9-1.5,1.6-2.3,2.3C807.3,158.3,807.5,155.5,802.9,153.5L802.9,153.5z"/>
	<path class="st22" d="M804.9,116.7c0.8-0.1,1.4-0.8,1.3-1.6c0-0.4-0.3-0.8-0.6-1.1c-0.1-0.1-0.1-0.2-0.2-0.4c0.5-2.1,2.6-3.5,4.8-3
		c1.1,0.2,2,0.9,2.5,1.8c2.3,3.8,5.2,7.7,4.8,12.4c5.1-16.8-0.3-36-13.2-47.8c-3.3-1.2-6.2-3.8-7.3-7.2c1.6,0.3,3.3-1.2,1.9-2.6
		c-0.6-0.5-1.2-1.1-1.7-1.6c4.8-6.9,13,1.6,7.9,10.7c2.4,2.3,4.6,4.8,6.5,7.5c-0.8-3.1-0.9-6.3-0.2-9.4c0.7-2.9,2.5-5.5,4-8.2
		c1.8-3.2,6.7-2.6,7.6,1c-2,1-1.8,4.1,0.6,4.1c0.4,6.9-3.1,13.8-8.8,17.7c3.2,6,5.1,12.6,5.5,19.4c-0.1-8,8.1-11.1,13.5-15.1
		c1-0.8,2.4-0.7,3.3,0.2c0.4,0.4,0.6,1,0.6,1.6c-0.8,0.4-1.5,1-2.1,1.6c-0.8,0.8-0.9,2-0.1,2.9c0.4,0.4,1,0.7,1.6,0.7
		c-1.9,7.8-8.8,13.8-16.7,15c-0.3,3.4-0.9,6.8-1.9,10l-11.7,1.7c-0.1-0.1-0.1-0.3-0.2-0.4c1.1-0.1,2.2-0.3,3.2-0.7
		C806.4,123,804,121.6,804.9,116.7L804.9,116.7z"/>
	<path class="st26" d="M816.7,112.9c-5.3,0-8.2-0.6-9.2-2c-0.9-1.2-0.3-2.8,0.4-4.7c0.5-1.3,1.1-2.9,1.1-4.4c0-7.3,3.7-11,11-11
		c3.6,0,7.6,1.9,10.5,5.2c2.6,2.9,4,6.5,3.6,9.7l0,0c-0.3,2.6-1.5,4.4-3.9,5.4l-0.1,0.1l0-0.1c-0.2-0.8-0.5-1.5-1-2.1
		c0,1-0.3,2-0.7,2.8l0,0.1l-0.1,0c-2.7,0.8-5.8,1-8.2,1.1C818.8,112.9,817.7,112.9,816.7,112.9z"/>
	<path class="st27" d="M818.1,123.1c-0.7-2.1-3-3.2-5-2.5c-0.4,0.1-0.8,0.3-1.1,0.6l-17.5,10.5l-5.5-13.3c1.2-1.8,0.8-4.2-1-5.4
		c-1.8-1.2-4.2-0.8-5.4,1c-1.2,1.8-0.8,4.2,1,5.4c0.3,0.2,0.7,0.4,1.1,0.5c0.3,3.8,2.2,21.1,8.7,20.4c5.5-0.5,19.1-9.6,23.3-12.7
		C818.1,126.6,818.7,124.8,818.1,123.1z"/>
	<path class="st26" d="M831.3,199.1h-15.2l-2.6-12.6l-0.8,12.6h-14.1c0-9.9,0.5-19.8,1.5-29.7l0.2-0.6l0.3-1l0.2-0.6l2.9-10l0.2-0.8
		h17.6c1,1,1.9,2,2.8,3.1c0.3,0.4,0.6,0.8,0.9,1.2c0.2,0.3,0.4,0.6,0.7,1c2,2.9,3.4,6.1,4.3,9.5v0c0.2,0.6,0.3,1.2,0.4,1.8v0
		c0.1,0.5,0.2,1.1,0.3,1.7c0.1,0.4,0.1,0.8,0.1,1.2c0.2,2.3,0.1,4.7-0.2,7L831.3,199.1z"/>
	<ellipse transform="matrix(0.9326 -0.361 0.361 0.9326 20.8191 276.3524)" class="st28" cx="750.1" cy="82.4" rx="1.9" ry="1.3"/>
	<ellipse transform="matrix(0.9326 -0.361 0.361 0.9326 22.2343 280.7366)" class="st23" cx="762.6" cy="80.9" rx="1.9" ry="1.3"/>
	<ellipse transform="matrix(0.9326 -0.361 0.361 0.9326 16.914 276.6787)" class="st29" cx="749" cy="93.1" rx="1.9" ry="1.3"/>
	
		<ellipse transform="matrix(0.9731 -0.2303 0.2303 0.9731 -2.4808 174.3737)" class="st28" cx="745.7" cy="97.8" rx="0.8" ry="1.2"/>
	
		<ellipse transform="matrix(0.9731 -0.2303 0.2303 0.9731 -4.3089 174.5698)" class="st23" cx="745.6" cy="105.7" rx="0.8" ry="1.2"/>
	
		<ellipse transform="matrix(0.9731 -0.2303 0.2303 0.9731 -0.2331 176.6437)" class="st28" cx="756.5" cy="89.3" rx="0.8" ry="1.2"/>
	
		<ellipse transform="matrix(0.9731 -0.2303 0.2303 0.9731 -4.271290e-02 175.0915)" class="st29" cx="749.9" cy="87.7" rx="0.8" ry="1.2"/>
	<ellipse transform="matrix(0.9731 -0.2303 0.2303 0.9731 1.8255 176.4951)" class="st23" cx="756.9" cy="80.4" rx="0.8" ry="1.2"/>
	
		<ellipse transform="matrix(0.6482 -0.7615 0.7615 0.6482 164.0283 625.4997)" class="st28" cx="758.9" cy="135.2" rx="1.3" ry="1.9"/>
	
		<ellipse transform="matrix(0.6482 -0.7615 0.7615 0.6482 169.2035 616.3371)" class="st23" cx="751.6" cy="125.1" rx="1.3" ry="1.9"/>
	
		<ellipse transform="matrix(0.6482 -0.7615 0.7615 0.6482 170.6199 631.5552)" class="st29" cx="768.8" cy="131.1" rx="1.3" ry="1.9"/>
	
		<ellipse transform="matrix(0.7461 -0.6659 0.6659 0.7461 108.9004 549.2672)" class="st28" cx="774.6" cy="131.9" rx="1.2" ry="0.8"/>
	
		<ellipse transform="matrix(0.7461 -0.6659 0.6659 0.7461 113.1501 552.9908)" class="st23" cx="781.6" cy="128.1" rx="1.2" ry="0.8"/>
	
		<ellipse transform="matrix(0.7461 -0.6659 0.6659 0.7461 109.351 539.4597)" class="st28" cx="761.9" cy="126.4" rx="1.2" ry="0.8"/>
	
		<ellipse transform="matrix(0.7461 -0.6659 0.6659 0.7461 105.4461 542.2616)" class="st29" cx="763.7" cy="132.9" rx="1.2" ry="0.8"/>
	
		<ellipse transform="matrix(0.7461 -0.6659 0.6659 0.7461 104.7286 535.116)" class="st23" cx="753.9" cy="130.3" rx="1.2" ry="0.8"/>
	
		<ellipse transform="matrix(0.8974 -0.4413 0.4413 0.8974 52.3694 364.0604)" class="st28" cx="808.8" cy="69.5" rx="1.3" ry="1.9"/>
	<ellipse transform="matrix(0.8974 -0.4413 0.4413 0.8974 47.236 366.5013)" class="st23" cx="811.5" cy="81.7" rx="1.3" ry="1.9"/>
	
		<ellipse transform="matrix(0.8974 -0.4413 0.4413 0.8974 51.3381 359.3369)" class="st29" cx="798.1" cy="69.3" rx="1.3" ry="1.9"/>
	<ellipse transform="matrix(0.9492 -0.3147 0.3147 0.9492 19.419 252.9593)" class="st28" cx="793.1" cy="66.3" rx="1.2" ry="0.8"/>
	<ellipse transform="matrix(0.9492 -0.3147 0.3147 0.9492 18.822 250.5034)" class="st23" cx="785.2" cy="67" rx="1.2" ry="0.8"/>
	<ellipse transform="matrix(0.9492 -0.3147 0.3147 0.9492 16.7309 256.432)" class="st28" cx="802.5" cy="76.4" rx="1.2" ry="0.8"/>
	
		<ellipse transform="matrix(0.9492 -0.3147 0.3147 0.9492 18.8806 256.4114)" class="st29" cx="803.5" cy="69.7" rx="1.2" ry="0.8"/>
	<ellipse transform="matrix(0.9492 -0.3147 0.3147 0.9492 17.3048 259.2106)" class="st23" cx="811.4" cy="76" rx="1.2" ry="0.8"/>
	<path class="st24" d="M814.1,115l8.4-0.4l3.9,6.2c0,0,7.3,1.2,6.8,9.9c-0.5,8.6-8.9,16.2-8.9,16.2l0.4,4.5L824,153l0.1,1l0.9,1.1
		l0.1,1.1l-0.8,1.7l1,1.7l-21.6-2.1l-0.8-2.9l1.2-1.5l-0.6-2l1-1.9l0.5-6.1c0,0-5.5-8.3,0.8-14.5l2.5-4.3l2.8-3.5L814.1,115z"/>
	<circle class="st27" cx="818.3" cy="104.3" r="8.9"/>
	<path class="st26" d="M817.1,103.8c-0.8,0-1.5,0-2.3-0.1l-0.1,0l0-0.1c0.1-0.8,0-1.7-0.2-2.5c-0.4,0.9-1,1.8-1.7,2.5l0,0l-0.1,0
		c-2.1-0.2-4.1-0.6-6.2-1.1l-0.1,0l0-0.1c-0.2-0.7-0.2-1.5-0.2-2.3c0-2.4,0.9-4.4,2.4-5.6c1.7-1.4,4.1-1.8,6.8-1.2h8.7
		c2,0,3.6,1.6,3.6,3.6v5.5l-0.1,0C824.2,103.3,820.6,103.8,817.1,103.8z"/>
	<path class="st30" d="M756.5,93.9c-0.8,0.3-1.2,1.2-0.9,2l9.4,25.7c0.3,0.8,1.2,1.2,2,0.9l36.4-13.3c0.8-0.3,1.2-1.2,0.9-2
		l-9.4-25.7c-0.3-0.8-1.2-1.2-2-0.9L756.5,93.9z"/>
	<path class="st31" d="M789.8,112.9l-22.3,8.1c-0.9,0.3-1.8-0.1-2.2-1l-8.5-23.3c-0.3-0.9,0.1-1.8,1-2.2L792.2,82
		c0.9-0.3,1.8,0.1,2.2,1l4.1,11.3C801.2,101.8,797.3,110.1,789.8,112.9z"/>
	<path class="st24" d="M773.7,96l-5.3,1.9c-0.3,0.1-0.6,0-0.7-0.3c-0.1-0.3,0-0.6,0.3-0.7c0,0,0,0,0,0l5.3-1.9
		c0.3-0.1,0.6,0,0.7,0.3C774.2,95.6,774,95.9,773.7,96z"/>
	<path class="st24" d="M786.4,93.7l-17.2,6.3c-0.3,0.1-0.6,0-0.7-0.3c-0.1-0.3,0-0.6,0.3-0.7l17.2-6.3c0.3-0.1,0.6,0,0.7,0.3
		C786.8,93.3,786.6,93.6,786.4,93.7L786.4,93.7z"/>
	<path class="st24" d="M787.2,96.1l-17.2,6.3c-0.3,0.1-0.6,0-0.7-0.3c-0.1-0.3,0-0.6,0.3-0.7c0,0,0,0,0,0l17.2-6.3
		c0.3-0.1,0.6,0,0.7,0.3S787.5,96,787.2,96.1L787.2,96.1L787.2,96.1z"/>
	<path class="st24" d="M788.1,98.5l-17.2,6.3c-0.3,0.1-0.6,0-0.7-0.3c-0.1-0.3,0-0.6,0.3-0.7l17.2-6.3c0.3-0.1,0.6,0,0.7,0.3
		S788.4,98.4,788.1,98.5L788.1,98.5z"/>
	<path class="st24" d="M789,100.9l-17.2,6.3c-0.3,0.1-0.6,0-0.7-0.3s0-0.6,0.3-0.7c0,0,0,0,0,0l17.2-6.3c0.3-0.1,0.6,0,0.7,0.3
		C789.4,100.4,789.2,100.8,789,100.9z"/>
	<path class="st27" d="M843.4,107.5l-9.4,22.5c-0.8,2-3.1,2.9-5.1,2.1l0,0c-2-0.8-3-3.1-2.2-5.1c0-0.1,0.1-0.1,0.1-0.2l10.5-23.1
		l5.8-14.3c-1.3-1.3-1.3-3.5,0-4.9c1.3-1.3,3.5-1.3,4.9,0c1.3,1.3,1.3,3.5,0,4.9c-0.1,0.1-0.3,0.3-0.5,0.4L843.4,107.5z"/>
</g>
<g class="st25">
	<path class="st26" d="M649.8,352.1c-1.4-5,9.7-9.3,12.5-5.2c0.4-0.6,1.9-0.9,2.6-0.7c0.7,0.2,1.3,0.6,1.8,1c0.8,0.6,1.6,1.2,2,2.1
		c0.5,0.8,0.5,2-0.1,2.7c-0.5,0.6-2,1-2.8,1.1c-0.5,0.1-1,0.2-1.4,0.3c-0.3-0.5-0.5-1.1-0.5-1.7c-0.5,0.3-0.9,0.9-0.9,1.6
		c0,0.1,4.3,16,4.3,16c-0.4,0.3-1,0.5-1.6,0.7c-1.1-1.6-2-3.5-2.5-5.5c-0.1,1.2-0.1,2.6,0,3.9c0.1,0.7,0.2,1.5,0.4,2.2
		c-5.1,1.1-12.8,0.7-16.2-4c0,0,0,0,0-0.1c0-0.9-1.2-1.1-1.5-0.3c-0.1,0.2-0.2,0.4-0.2,0.5C644.8,363.2,646.1,359.2,649.8,352.1
		L649.8,352.1z"/>
	<path class="st27" d="M719.4,391.6c-1.2,1.4-3.4,1.6-4.8,0.4c-0.1-0.1-0.3-0.2-0.4-0.4l-16.2,5.1l-2.5-4.1l19.3-5.9
		c1.5-1.1,3.6-0.8,4.8,0.7C720.5,388.7,720.4,390.4,719.4,391.6L719.4,391.6z"/>
	<path class="st24" d="M662.1,378.8c0,0,7.2-8.1,10.3-4.6s12.9,18.4,12.9,18.4l22.7-4.8l2.2,6l-25.8,8.4c-1.9,0.6-4.1,0-5.3-1.6
		L662.1,378.8z"/>
	<path class="st26" d="M677.7,452.3h-35.5l0-0.3l0-0.2l-0.3-2.6l-0.4-3.7l-0.2-1.4c0-0.1,0-0.1,0-0.2c-0.1-0.9-0.2-1.8-0.3-2.8
		c0-1.3,0-2.5,0.2-3.8v0c0.1-0.7,0.2-1.3,0.3-2c0.1-0.9,0.3-1.7,0.5-2.5c0.2-1,0.5-1.9,0.8-2.8c0.3-1,0.7-2,1.1-3
		c0-0.1,0.1-0.2,0.1-0.3l0,0c2-4.9,4.3-8.3,4.3-8.3h25.9c0,0,1.2,5.3,1.8,9.6c0.1,0.7,0.2,1.3,0.2,2c0.1,1.1,0.1,2.1,0,2.8
		c-0.1,0.4-0.2,0.7-0.3,0.8c-1.4,1.2,0.2,3.8,0.2,3.8s1.2,1.9,0.2,2.9c-0.2,0.2-0.3,0.5-0.4,0.8c-0.1,0.5,0,1.1,0.1,1.6
		c0.1,0.5,0.3,1,0.4,1.2c0,0.1,0.1,0.2,0.1,0.2l0.2,1.4l0.2,1.4l0.3,2.4l0.1,0.4l0.5,2.2l0,0.2L677.7,452.3z"/>
	<path class="st24" d="M659.8,367.8l-10.9,1l-2,6.2l-2.2,0.3c-3.7,0.5-5.9,4.4-4.5,7.9l1.9,4.6c0,0-2.8,8.7,0.6,12.4l1.5,16.1
		l-3.3,10.6l38.9,1.3l-6.6-13.3l-0.2-8.3c0,0,4.2-14.9,0.3-19.7l-1.5-13.5l-8-1.2L659.8,367.8L659.8,367.8z"/>
	<ellipse transform="matrix(0.2259 -0.9742 0.9742 0.2259 161.1276 918.3295)" class="st27" cx="658.4" cy="357.8" rx="9" ry="9"/>
	<path class="st26" d="M644.9,352.8c-1.4-5,9.7-9.3,12.5-5.2c0.4-0.6,1.9-0.9,2.6-0.7c0.7,0.2,1.3,0.6,1.8,1c0.8,0.6,1.6,1.2,2,2.1
		c0.5,0.8,0.5,2-0.1,2.7c-0.5,0.6-2,1-2.8,1.1c-0.5,0.1-1,0.2-1.4,0.3c-0.3-0.5-0.5-1.1-0.5-1.7c-0.5,0.3-0.9,0.9-0.9,1.6
		c0,0.1,4.3,16,4.3,16c-0.4,0.3-1,0.5-1.6,0.7c-1.1-1.6-2-3.5-2.5-5.5c-0.1,1.2-0.1,2.6,0,3.9c0.1,0.7,0.2,1.5,0.4,2.2
		c-5.1,1.1-12.8,0.7-16.2-4c0,0,0,0,0-0.1c0-0.9-1.2-1.1-1.5-0.3c-0.1,0.2-0.2,0.4-0.2,0.5C639.9,363.9,641.2,359.9,644.9,352.8z"/>
	<path class="st23" d="M721.6,452H601l-18.7,0.2l131.3-7.8C717.9,444.1,721.6,447.6,721.6,452L721.6,452L721.6,452z"/>
	<polygon class="st23" points="751.1,451.8 751.1,452.3 582.2,452.3 582.2,327.8 582.7,327.8 582.7,451.8 	"/>
	<path class="st24" d="M733.1,356.6h-30.7c-0.7,0-1.3-0.6-1.3-1.3c0-0.7,0.6-1.3,1.3-1.3h30.7c0.7,0,1.3,0.6,1.3,1.3
		C734.4,356,733.8,356.6,733.1,356.6L733.1,356.6z"/>
	<path class="st23" d="M717.7,360.8c-0.1-0.3-0.5-0.3-0.6,0c-0.8,2-1.9,4.2-3.2,5.9c-0.2,0.3,0.1,0.6,0.4,0.5l2.7-1v16.5h0.9v-16.5
		l2.7,1c0.3,0.1,0.6-0.2,0.4-0.5C719.6,364.9,718.5,362.7,717.7,360.8z"/>
	<path class="st22" d="M760.8,366h-19c-0.4,0-0.8-0.4-0.8-0.8s0.4-0.8,0.8-0.8h19c0.4,0,0.8,0.4,0.8,0.8S761.2,366,760.8,366z"/>
	<path class="st22" d="M751.3,368.6c-0.1-0.2-0.3-0.2-0.4,0c-0.5,1.2-1.2,2.6-2,3.6c-0.1,0.2,0,0.4,0.2,0.3l1.6-0.6v10.2h0.5v-10.2
		l1.6,0.6c0.2,0.1,0.4-0.2,0.2-0.3C752.5,371.2,751.8,369.8,751.3,368.6z"/>
	<circle class="st22" cx="751.3" cy="387.8" r="4.1"/>
	<path class="st22" d="M700,342.7h-19c-0.4,0-0.8-0.4-0.8-0.8s0.4-0.8,0.8-0.8h19c0.4,0,0.8,0.4,0.8,0.8S700.4,342.7,700,342.7z"/>
	<path class="st22" d="M690.5,345.2c-0.1-0.2-0.3-0.2-0.4,0c-0.5,1.2-1.2,2.6-2,3.6c-0.1,0.2,0,0.4,0.2,0.3l1.6-0.6v10.2h0.5v-10.2
		l1.6,0.6c0.2,0.1,0.4-0.2,0.2-0.3C691.7,347.8,691,346.5,690.5,345.2L690.5,345.2z"/>
	<circle class="st22" cx="690.5" cy="364.4" r="4.1"/>
	<path class="st27" d="M642.8,444.2c1-1.6,0.5-3.7-1.2-4.7c-0.2-0.1-0.3-0.2-0.5-0.2l-0.3-17l-4.7-1.1l0.6,20.1
		c-0.6,1.8,0.4,3.7,2.2,4.3C640.3,446.2,641.9,445.6,642.8,444.2L642.8,444.2z"/>
	<path class="st24" d="M646,377.3c0,0-5.8-1.4-7.6,2.5s-2,21-2,21l-1,34.7l7.3-0.3l5.8-42.7L646,377.3z"/>
	<g>
		<path class="st30" d="M643.4,449.4c0.1,0.2,0.3,0.3,0.5,0.3h37.5c0.4,0,0.7-0.3,0.7-0.7c0,0,0-0.1,0-0.1l-0.6-2.8
			c0-0.2-0.2-0.4-0.4-0.5c-0.1,0-0.2,0-0.2,0h-36.4c-0.1,0-0.2,0-0.2,0c-0.2,0.1-0.4,0.3-0.4,0.5l-0.6,2.8
			C643.3,449,643.3,449.2,643.4,449.4z"/>
		<path class="st28" d="M629.1,387.4v43.3c0,1.1,0.9,2.1,2.1,2.1h64.1c1.1,0,2.1-0.9,2.1-2.1v-43.3c0-1.1-0.9-2.1-2.1-2.1h-64.1
			C630,385.4,629.1,386.3,629.1,387.4z"/>
		<path class="st30" d="M671.2,423.5c-0.1,0-0.2,0-0.2,0h-15c-0.4,0-0.8,0.4-0.8,0.8V448h16.6v-23.7
			C671.8,424,671.6,423.6,671.2,423.5z M665.2,435.2c0,1-0.8,1.8-1.8,1.8c-1,0-1.8-0.8-1.8-1.8v-2.8c0-1,0.8-1.8,1.8-1.8
			c1,0,1.7,0.8,1.8,1.8V435.2z"/>
	</g>
</g>
<g class="st25">
	<g>
		<g>
			<polygon class="st27" points="478.5,688.3 476.2,688.4 474.9,679.5 478.3,679.4 			"/>
			<path class="st26" d="M471.3,692.1c0,0.6,0.5,1,1,1l4.5-0.1l0.7-1.6l0.3,1.6l1.7,0l-0.6-5.7l-0.6,0l-2.4-0.1l-0.8,0l0,1.6
				l-3.5,2.6C471.5,691.5,471.3,691.8,471.3,692.1L471.3,692.1z"/>
		</g>
		<g>
			<polygon class="st27" points="493.7,688.3 491.4,688.4 490.2,679.5 493.5,679.4 			"/>
			<path class="st26" d="M486.6,692.1c0,0.6,0.5,1,1,1l4.5-0.1l0.7-1.6l0.3,1.6l1.7,0l-0.6-5.7l-0.6,0l-2.4-0.1l-0.8,0l0,1.6
				l-3.5,2.6C486.7,691.5,486.6,691.8,486.6,692.1L486.6,692.1z"/>
		</g>
		<path class="st26" d="M480.8,619.9l12.5-0.3l-0.7,1l1.6,1.6c0,0,5.7,7.8,4,14.9c-1.7,7.1-0.8,49-0.8,49l-10.1-1.1l1.1-42.3
			l-8.3,15.9l2.4,25.8l-8.6,0l-2.8-27.9L480.8,619.9z"/>
	</g>
	<path class="st23" d="M428.6,586.4c0,0.1,0.2,0.1,0.3,0c0.3-0.8,0.8-1.7,1.3-2.4c0.1-0.1,0-0.3-0.2-0.2l-1.1,0.4v-6.7h-0.4v6.7
		l-1.1-0.4c-0.1,0-0.2,0.1-0.2,0.2C427.8,584.7,428.3,585.6,428.6,586.4L428.6,586.4z"/>
	<path class="st23" d="M435.7,593.3c0,0.1,0.1,0.2,0.2,0.2c0.8-0.4,1.7-0.8,2.5-1.1c0.1,0,0.1-0.2,0-0.3l-1.1-0.4l4.2-5.3l-0.3-0.2
		l-4.2,5.3l-0.6-1c-0.1-0.1-0.3-0.1-0.3,0.1C436.2,591.5,436,592.5,435.7,593.3z"/>
	<g>
		<path class="st27" d="M462.3,605.6l6.7-0.8l1,3.8l-7.1,0.6c-0.2,0.2-0.3,0.3-0.5,0.4c-1.1,0.6-2.5,0.2-3.1-0.9
			c-0.6-1.1-0.2-2.5,0.9-3.1C460.8,605.2,461.6,605.3,462.3,605.6L462.3,605.6z"/>
		<path class="st24" d="M494.4,596.9l-2.6-4c-0.5,0.4-0.9,0.8-1.2,1.1l-0.5,0.4l-1.8,1.6l-5,4.4l-1.7,1.5l-1.8,0.3l-4.1,0.7
			l-6.2,1.7l-4.6,0.3c0,0.1,0,0.2,0,0.4c0,0.9,0,2.7,0.2,3.7c0.1,0.3,0.1,0.6,0.2,0.7c0,0,3.5-1.1,3.7-1.1c1.4,0,3.8,0.4,8.6-0.2
			c2.8-0.4,5.3-0.7,6.4-0.9l0,0l0.8-0.4l8.3-4l2.5-1.2C495.5,600.2,495.1,598.5,494.4,596.9z"/>
	</g>
	<path class="st23" d="M350.4,574.2c-2.6,0-4.8,2.1-4.8,4.8v80.5h0.4v-52.2c0-18,14.6-32.6,32.6-32.6l83.3-0.1l-0.1-0.3H350.4z"/>
	<ellipse class="st23" cx="372.4" cy="585.8" rx="1.8" ry="1.8"/>
	<ellipse class="st23" cx="378.5" cy="585.8" rx="1.8" ry="1.8"/>
	<ellipse class="st23" cx="384.6" cy="585.8" rx="1.8" ry="1.8"/>
	<g>
		<path class="st22" d="M415.5,607.1c-2.6,0-4.8,2.1-4.8,4.8v34.4h0.4v-6.1c0-18,14.6-32.6,32.6-32.6l30.3-0.1l-0.1-0.3H415.5
			L415.5,607.1z"/>
		<g>
			<path class="st23" d="M433.1,628.5c-0.2,0-0.4,0.2-0.4,0.4v6.5c0,0.2,0.2,0.4,0.4,0.4c0.2,0,0.4-0.2,0.4-0.4v-6.5
				C433.5,628.6,433.3,628.5,433.1,628.5z"/>
			<g>
				<ellipse class="st24" cx="437.2" cy="632.2" rx="2.6" ry="2.6"/>
				<path class="st22" d="M458.1,631.3h-14.1c-0.5,0-0.9-0.4-0.9-0.9s0.4-0.9,0.9-0.9l14.1,0c0.5,0,0.9,0.4,0.9,0.9
					S458.6,631.3,458.1,631.3z"/>
				<path class="st22" d="M469.1,634.2h-25c-0.5,0-0.9-0.4-0.9-0.9c0-0.5,0.4-0.9,0.9-0.9h25c0.5,0,0.9,0.4,0.9,0.9
					S469.6,634.2,469.1,634.2z"/>
			</g>
		</g>
		<ellipse class="st22" cx="434.4" cy="615.5" rx="1.8" ry="1.8"/>
		<ellipse class="st22" cx="440.5" cy="615.5" rx="1.8" ry="1.8"/>
		<ellipse class="st22" cx="446.6" cy="615.5" rx="1.8" ry="1.8"/>
	</g>
	<path class="st23" d="M364.6,603.8c-0.2,0-0.4,0.2-0.4,0.4v6.5c0,0.2,0.2,0.4,0.4,0.4c0.2,0,0.4-0.2,0.4-0.4v-6.5
		C365,604,364.8,603.8,364.6,603.8z"/>
	<g>
		<ellipse class="st24" cx="368.7" cy="607.5" rx="2.6" ry="2.6"/>
		<path class="st22" d="M389.6,606.7h-14.1c-0.5,0-0.9-0.4-0.9-0.9s0.4-0.9,0.9-0.9h14.1c0.5,0,0.9,0.4,0.9,0.9
			S390.1,606.7,389.6,606.7z"/>
		<path class="st22" d="M400.5,609.6h-25c-0.5,0-0.9-0.4-0.9-0.9s0.4-0.9,0.9-0.9h25c0.5,0,0.9,0.4,0.9,0.9S401,609.6,400.5,609.6z"
			/>
	</g>
	<path class="st23" d="M364.6,621.8c-0.2,0-0.4,0.2-0.4,0.4v6.5c0,0.2,0.2,0.4,0.4,0.4c0.2,0,0.4-0.2,0.4-0.4v-6.5
		C365,622,364.8,621.8,364.6,621.8z"/>
	<g>
		<ellipse class="st24" cx="368.7" cy="625.5" rx="2.6" ry="2.6"/>
		<path class="st22" d="M389.6,624.7h-14.1c-0.5,0-0.9-0.4-0.9-0.9s0.4-0.9,0.9-0.9h14.1c0.5,0,0.9,0.4,0.9,0.9
			S390.1,624.7,389.6,624.7z"/>
		<path class="st22" d="M400.5,627.6h-25c-0.5,0-0.9-0.4-0.9-0.9s0.4-0.9,0.9-0.9h25c0.5,0,0.9,0.4,0.9,0.9S401,627.6,400.5,627.6z"
			/>
	</g>
	<g>
		<path class="st23" d="M364.6,639.9c-0.2,0-0.4,0.2-0.4,0.4v6.5c0,0.2,0.2,0.4,0.4,0.4c0.2,0,0.4-0.2,0.4-0.4v-6.5
			C365,640,364.8,639.9,364.6,639.9z"/>
		<g>
			<ellipse class="st24" cx="368.7" cy="643.6" rx="2.6" ry="2.6"/>
			<path class="st22" d="M389.6,642.7h-14.1c-0.5,0-0.9-0.4-0.9-0.9s0.4-0.9,0.9-0.9h14.1c0.5,0,0.9,0.4,0.9,0.9
				S390.1,642.7,389.6,642.7z"/>
			<path class="st22" d="M400.5,645.6h-25c-0.5,0-0.9-0.4-0.9-0.9s0.4-0.9,0.9-0.9h25c0.5,0,0.9,0.4,0.9,0.9S401,645.6,400.5,645.6z
				"/>
		</g>
	</g>
	<path class="st24" d="M496.6,626.6c-0.3,2-13.7-2.7-15.3-3.6c-3-1.6,0.1,0,0.1,0l-0.3-9.9l-0.4-5.9c0,0-0.2-1.6-0.6-3.6
		c-0.1-0.4-0.2-1-0.3-1.5c-0.2-1.6,0-3.4,1.5-4.6l5.5-8.1l2.7-0.2l2.3,3.6l2.6,4c0.7,1.6,1.1,3.3,1.3,4.9c0.1,0.8,0.1,1.6,0.1,2.4
		c0,1.4-0.2,2.8-0.5,4.2l-1.6,4.6c0,0-0.2,0.8,0.5,1.2c1.5,0.9-1.5,3.3,0.3,6.3c0,0-0.2,1.4,0.6,1.5
		C496,622.2,496.7,625.8,496.6,626.6L496.6,626.6z"/>
	<g>
		<path class="st27" d="M470.5,631.3l4-5.5l3.4,1.8l-4.4,5.6c0,0.2,0,0.4-0.1,0.7c-0.3,1.2-1.5,2-2.7,1.7s-2-1.5-1.7-2.7
			C469.2,632.2,469.8,631.6,470.5,631.3L470.5,631.3z"/>
		<path class="st24" d="M487.3,596.9c-0.9-0.7-2-1.1-3.1-1.3c-1.6-0.3-2.5,2-2.8,4.3c-0.2,1-0.2,2.1-0.2,2.8l-0.1,0.7l-0.1,3.4
			l-0.1,7.9l-4,5.9l-1.7,4l-3.4,4.4c0.1,0.1,0.2,0.2,0.3,0.3c0.7,0.6,2,1.8,2.8,2.4c0.3,0.2,0.5,0.3,0.6,0.3c0,0,2.5-2.3,2.6-2.5
			c0.8-0.9,1-2,3.4-5.4c2.2-3.1,4.4-6.2,5.1-7.3l0,0l3.5-11.5l0.3-1C490.8,601.2,489.5,598.5,487.3,596.9L487.3,596.9z"/>
	</g>
	<path class="st26" d="M485.3,597.1C485.3,597.1,485.3,597.1,485.3,597.1c-0.1,0-0.1,0-0.2,0H485.3z"/>
	<circle class="st27" cx="486.9" cy="582" r="6.1"/>
	<path class="st26" d="M478.6,580.3c-0.4-3,0.8-3.9,2.7-4.1c3.7-1.9,4.6-1.4,5.7-1.2l0.4-0.1c1.3-0.3,1.8-0.2,3,0.3
		c2.5,0.9,4.1,3.3,4.3,6c0.1,1.8-0.4,2.1,0.6,3.6c0.9,1.2,0.2,3-1.3,3.3l-1.4,2.1c-0.3-0.4-0.6-0.9-0.9-1.4
		c-0.1,0.5-0.1,1.1-0.1,1.6c-1.4,0.7-2.9,1-4.5,1c-0.3-0.3-0.5-0.7-0.5-1.2c-0.1,0.4-0.2,0.9-0.2,1.3c-1-0.6-1.8-0.5-2.5,0.5
		c-1.7-1.4-1.8-4.6,0.2-5.4c1.7-0.7-1-5.4-2.8-5.5c0,0-0.5,1.8-0.5,1.8c-0.3-0.5-0.1-0.8-0.4-1.4c-0.1,0.4-0.1,0.9-0.1,1.4
		c-0.4-0.1-0.9-0.2-1.3-0.4C478.6,581.8,478.4,581.1,478.6,580.3L478.6,580.3z"/>
	<path class="st22" d="M501.2,690c0.4,0,0.7-0.5,0.3-0.8l0-0.1c0,0,0,0,0,0c0.4-1,1.9-1,2.4,0c0.4,0.9,0.9,1.9,1,2.8
		c0.1,0.4,0,0.9-0.1,1.3c0.9-2,1.4-4.1,1.4-6.3c0-0.5,0-1.1-0.1-1.6c-0.1-0.4-0.1-0.9-0.2-1.3c-0.5-2.4-1.5-4.6-3-6.5
		c-0.7-0.4-1.3-1-1.7-1.8c-0.1-0.3-0.2-0.6-0.3-0.8c0.1,0,0.3-1.2,0.2-1.3c0.1-0.2,0.3-0.3,0.4-0.4c0.6-0.8,1.5-0.7,1.9,0.5
		c1,0.5,1,1.3,0.4,2.1c-0.4,0.5-0.4,1.2-0.8,1.7c0,0,0.1,0.1,0.1,0.1c0.6,0.8,1.2,1.7,1.6,2.5c-0.1-1,0.1-2.2,0.4-3
		c0.4-0.9,1.1-1.6,1.7-2.4c0.7-0.9,2.2-0.5,2.3,0.6c0,0,0,0,0,0c-0.1,0.1-0.2,0.1-0.3,0.2c-0.5,0.3-0.3,1.1,0.3,1.2l0,0
		c0,0.3-0.1,0.6-0.2,1c0.8,3-0.9,4.1-3.3,4.1c-0.1,0-0.1,0.1-0.2,0.1c0.2,0.7,0.4,1.4,0.6,2.1c0.1,0.6,0.2,1.3,0.3,1.9
		c0.1,0.8,0.1,1.6,0,2.4l0,0c0.2-0.9,0.7-1.7,1.3-2.3c1-0.9,2.5-1.2,3.6-1.8c0.5-0.3,1.2,0.1,1.1,0.7l0,0c-0.2,0.1-0.3,0.1-0.5,0.2
		c-0.1,0.1-0.2,0.1-0.3,0.2c-0.5,0.3-0.3,1.1,0.3,1.2l0,0c0,0,0,0,0,0c-0.3,0.7-0.7,1.3-1.2,1.8c-0.5,2.6-2.6,2.9-4.8,2.1h0
		c-0.2,1.1-0.6,2.1-1.1,3.1h-3.8c0,0,0-0.1,0-0.1c0.3,0,0.7,0,1-0.1c-0.3-0.3-0.6-0.7-0.8-1c0,0,0,0,0,0c-0.1-0.2-0.3-0.4-0.4-0.5
		l0,0C501,691.1,501.1,690.5,501.2,690L501.2,690L501.2,690z"/>
	<path class="st30" d="M459,693.4c0,0.1,0.1,0.2,0.2,0.2h53.1c0.1,0,0.2-0.1,0.2-0.2s-0.1-0.2-0.2-0.2h-53.1
		C459.1,693.2,459,693.3,459,693.4z"/>
	<g>
		<path class="st28" d="M432.3,597.8h-7.1c-0.4,0-0.8-0.4-0.8-0.8c-0.9-2.7-0.9-5.4,0-8c0-0.4,0.4-0.8,0.8-0.8h7.1
			c0.4,0,0.8,0.4,0.8,0.8v8C433.1,597.5,432.8,597.8,432.3,597.8z"/>
		<path class="st31" d="M426.8,588.4c-1.1,0-2.1,0.9-2.1,2.1v6.3c0,0.4,0.3,0.7,0.7,0.7h3.9c2,0,3.5-1.6,3.5-3.5v-4.9
			c0-0.4-0.3-0.7-0.7-0.7C432.2,588.4,426.8,588.4,426.8,588.4z"/>
		<g>
			<path class="st28" d="M430.5,590.8h-3.3c-0.1,0-0.2-0.1-0.2-0.2s0.1-0.2,0.2-0.2h3.3c0.1,0,0.2,0.1,0.2,0.2
				S430.5,590.8,430.5,590.8z"/>
			<path class="st28" d="M430.5,594h-3.3c-0.1,0-0.2-0.1-0.2-0.2s0.1-0.2,0.2-0.2h3.3c0.1,0,0.2,0.1,0.2,0.2S430.5,594,430.5,594z"
				/>
			<path class="st28" d="M432.2,592.4h-6.9c-0.1,0-0.2-0.1-0.2-0.2s0.1-0.2,0.2-0.2h6.9c0.1,0,0.2,0.1,0.2,0.2
				S432.3,592.4,432.2,592.4z"/>
		</g>
		<path class="st28" d="M432.3,595.3h-2.9c-0.1,0-0.2-0.1-0.2-0.2c0-0.1,0.1-0.2,0.2-0.2h2.9c0.1,0,0.2,0.1,0.2,0.2
			C432.5,595.2,432.4,595.3,432.3,595.3z"/>
	</g>
</g>
<g class="st1">
	<g>
		<path class="st2" d="M373.4,172.3c-9.8,0-17.5-7.9-17.5-17.9s7.7-17.9,17.5-17.9h49.6c9.8,0,17.5,7.9,17.5,17.9
			s-7.7,17.9-17.5,17.9C422.8,172.3,373.4,172.3,373.4,172.3z"/>
		<path class="st3" d="M422.8,137.8c9,0,16.2,7.4,16.2,16.6c0,9.2-7.2,16.6-16.2,16.6h-49.4c-9,0-16.2-7.4-16.2-16.6
			c0-9.2,7.2-16.6,16.2-16.6H422.8 M422.8,134.9h-49.4c-10.3,0-19,9-19,19.5l0,0c0,10.6,8.7,19.5,19,19.5h49.6c10.3,0,19-9,19-19.5
			l0,0C441.8,143.8,433.3,134.9,422.8,134.9L422.8,134.9z"/>
	</g>
	<g>
		<path class="st4" d="M404.8,185c-3.9,0-6.9-3.2-6.9-7.1v-3.2c0-2.4,0-4.5,0.8-5.5c0.3-0.3,1-0.5,2.1-0.5H431
			c3.9,0,6.9,3.2,6.9,7.1v2.1c0,4-3.1,7.1-6.9,7.1H404.8z"/>
		<path class="st5" d="M431,170.5c3.1,0,5.7,2.6,5.7,5.8v2.1c0,3.2-2.6,5.8-5.7,5.8h-26.2c-3.1,0-5.7-2.6-5.7-5.8v-2.1v-1.1
			c0-1.3,0-4,0.3-4.2c0,0,0.3-0.3,0.8-0.3H431 M431,167.6h-30.3c-4.4,0-4.1,3.7-4.1,8.4v2.1c0,4.5,3.6,8.4,8.2,8.4H431
			c4.4,0,8.2-3.7,8.2-8.4V176C439,171.3,435.4,167.6,431,167.6L431,167.6z"/>
	</g>
	<g>
		<path class="st4" d="M363.2,185c-3.9,0-6.9-3.2-6.9-7.1v-2.1c0-4,3.1-7.1,6.9-7.1h30.6c0.8,0,1.5,0.3,2.1,0.5
			c0.8,0.8,0.8,3.2,0.8,5.5v3.2c0,4-3.1,7.1-6.9,7.1H363.2z"/>
		<path class="st5" d="M393.7,170.5c0.8,0,1,0.3,1,0.3c0.3,0.3,0.3,2.9,0.3,4.2v1.1v2.1c0,3.2-2.6,5.8-5.7,5.8h-26.2
			c-3.1,0-5.7-2.6-5.7-5.8V176c0-3.2,2.6-5.8,5.7-5.8h30.6 M393.7,167.6h-30.6c-4.4,0-8.2,3.7-8.2,8.4v2.1c0,4.5,3.6,8.4,8.2,8.4
			h26.5c4.4,0,8.2-3.7,8.2-8.4V176C397.9,171.3,398.1,167.6,393.7,167.6L393.7,167.6z"/>
	</g>
	<g>
		<rect x="356" y="180" class="st6" width="84.6" height="13.5"/>
		<path class="st5" d="M439,181.6v10.6h-81.8v-10.6H439 M441.8,178.7h-87.4V195h87.4V178.7L441.8,178.7z"/>
	</g>
	<g>
		<path class="st6" d="M354.2,193.4c-2.6,0-4.4-2.1-4.4-4.5v-30.3c0-2.6,2.1-4.5,4.4-4.5c2.3,0,4.4,2.1,4.4,4.5v30.3
			C358.8,191.6,356.7,193.4,354.2,193.4z"/>
		<path class="st5" d="M354.2,155.4c1.5,0,3.1,1.3,3.1,3.2v30.3c0,1.6-1.3,3.2-3.1,3.2s-3.1-1.3-3.1-3.2v-30.3
			C351.1,157,352.6,155.4,354.2,155.4 M354.2,152.5L354.2,152.5c-3.3,0-5.9,2.6-5.9,6.1v30.3c0,3.4,2.6,6.1,5.9,6.1l0,0
			c3.3,0,5.9-2.6,5.9-6.1v-30.3C360.1,155.2,357.5,152.5,354.2,152.5L354.2,152.5z"/>
	</g>
	<g>
		<path class="st4" d="M441.6,193.4c-2.6,0-4.4-2.1-4.4-4.5v-30.3c0-2.6,2.1-4.5,4.4-4.5c2.6,0,4.4,2.1,4.4,4.5v30.3
			C445.9,191.6,444.1,193.4,441.6,193.4z"/>
		<path class="st5" d="M441.6,155.4c1.5,0,3.1,1.3,3.1,3.2v30.3c0,1.6-1.3,3.2-3.1,3.2c-1.5,0-3.1-1.3-3.1-3.2v-30.3
			C438.5,157,439.8,155.4,441.6,155.4 M441.6,152.5L441.6,152.5c-3.3,0-5.9,2.6-5.9,6.1v30.3c0,3.4,2.6,6.1,5.9,6.1l0,0
			c3.3,0,5.9-2.6,5.9-6.1v-30.3C447.5,155.2,444.7,152.5,441.6,152.5L441.6,152.5z"/>
	</g>
</g>
<g class="st1">
	<rect x="269.2" y="413.9" class="st7" width="79.3" height="54.3"/>
	<line class="st7" x1="269.2" y1="431.3" x2="348.5" y2="431.3"/>
	<line class="st7" x1="269.2" y1="450.4" x2="347.5" y2="450.4"/>
	<line class="st7" x1="279.4" y1="415.1" x2="338.9" y2="415.1"/>
	<line class="st7" x1="279.4" y1="432.8" x2="338.9" y2="432.8"/>
	<line class="st7" x1="279.4" y1="451.4" x2="338.9" y2="451.4"/>
</g>
<g class="st1">
	<g>
		<line class="st7" x1="167.9" y1="293.1" x2="181.3" y2="293.1"/>
		<line class="st7" x1="181.3" y1="293.1" x2="187.9" y2="311.2"/>
		<line class="st7" x1="181.3" y1="293.1" x2="187.9" y2="311.2"/>
		<line class="st7" x1="167.9" y1="293.1" x2="161.4" y2="311.2"/>
		<line class="st7" x1="161.4" y1="311.2" x2="187.9" y2="311.2"/>
	</g>
	<g>
		<g>
			<path class="st7" d="M166.2,312.6c0,0,1.3,2.3,0,4.8c-1.3,2.6-3.1,14.5,2.7,18.3c5.7,0,10.6,0,10.6,0"/>
			<path class="st7" d="M183,312.6c0,0-1.3,2.3,0,4.8c1.3,2.6,3.1,14.5-2.7,18.3c-5.7,0-10.6,0-10.6,0"/>
		</g>
		<line class="st7" x1="166.2" y1="312.6" x2="183" y2="312.6"/>
	</g>
	<rect x="168.8" y="337.4" class="st7" width="11.6" height="1.7"/>
	<path class="st7" d="M168.8,335.8c0,0-9,2.3-8-1.9c0.9-4.3,1.2-6.3-3.5-7.9"/>
</g>
<g class="st1">
	<path class="st7" d="M294.9,63.9c0,0-14.1-2.8-45-2.8s-45,2.8-45,2.8V33.3h90.2v30.6H294.9z"/>
	<line class="st7" x1="198.9" y1="129.3" x2="204.7" y2="65"/>
	<line class="st7" x1="294.9" y1="63.9" x2="301" y2="128.2"/>
	<line class="st7" x1="198.9" y1="129.3" x2="301" y2="129.3"/>
	<line class="st7" x1="198.9" y1="129.3" x2="198.9" y2="139.8"/>
	<line class="st7" x1="206.6" y1="139.8" x2="198.9" y2="139.8"/>
	<line class="st7" x1="207.7" y1="134.5" x2="206.6" y2="139.8"/>
	<line class="st7" x1="292.2" y1="134.5" x2="207.7" y2="134.5"/>
	<line class="st7" x1="301" y1="129" x2="301" y2="139.2"/>
	<line class="st7" x1="293.3" y1="139.2" x2="301" y2="139.2"/>
	<line class="st7" x1="292.2" y1="134.5" x2="293.3" y2="139.2"/>
	<path class="st8" d="M194.8,69.2"/>
	<path class="st9" d="M245.8,60.6L245.8,60.6c0-5.5-4.1-9.7-9.4-9.7h-11c-5.2,0-9.4,4.1-9.4,9.4v1.1c0,0.3,0,0.6,0,0.8
		C223.7,61.2,233.7,60.6,245.8,60.6z"/>
	<path class="st9" d="M255.7,60.6L255.7,60.6c0-5.5,4.1-9.7,9.4-9.7h11c5.2,0,9.4,4.1,9.4,9.4v1.1c0,0.3,0,0.6,0,0.8
		C277.5,61.2,267.6,60.6,255.7,60.6z"/>
</g>
<g class="st1">
	<path class="st7" d="M57.1,303.8h12.5c0.4,0,0.7-0.3,0.7-0.7l0,0c0-0.4-0.3-0.7-0.7-0.7H57.1c-0.4,0-0.7,0.3-0.7,0.7l0,0
		C56.4,303.3,56.7,303.8,57.1,303.8z"/>
	<line class="st7" x1="63.3" y1="294.8" x2="63.3" y2="303"/>
	<rect x="46.9" y="279.9" class="st7" width="33.1" height="14.3"/>
	<rect x="79.9" y="301" class="st7" width="18.9" height="30.2"/>
	<rect x="82.1" y="303.8" class="st7" width="14.7" height="2.5"/>
	<rect x="94.6" y="299.7" class="st7" width="2.2" height="1.2"/>
	<rect x="90.2" y="299.7" class="st7" width="2.2" height="1.2"/>
	<line class="st7" x1="85.1" y1="312.2" x2="85.1" y2="325.5"/>
	<line class="st7" x1="89.3" y1="312.2" x2="89.3" y2="325.5"/>
	<line class="st7" x1="93.7" y1="312.2" x2="93.7" y2="325.5"/>
	<rect x="44.6" y="314.8" class="st10" width="31.1" height="9.9"/>
	<rect x="47.8" y="322.1" class="st11" width="13.9" height="1.3"/>
	<rect x="45.8" y="316.1" class="st11" width="1.6" height="1.6"/>
	<rect x="48.5" y="316.1" class="st11" width="1.6" height="1.6"/>
	<rect x="51.4" y="316.1" class="st11" width="1.6" height="1.6"/>
	<rect x="54.3" y="316.1" class="st11" width="1.6" height="1.6"/>
	<rect x="56.9" y="316.1" class="st11" width="1.6" height="1.6"/>
	<rect x="59.9" y="316.1" class="st11" width="1.6" height="1.6"/>
	<rect x="62.5" y="316.1" class="st11" width="1.6" height="1.6"/>
	<rect x="45.8" y="318.4" class="st11" width="1.6" height="1.6"/>
	<rect x="48.5" y="318.4" class="st11" width="1.6" height="1.6"/>
	<rect x="51.4" y="318.4" class="st11" width="1.6" height="1.6"/>
	<rect x="54.3" y="318.4" class="st11" width="1.6" height="1.6"/>
	<rect x="56.9" y="318.4" class="st11" width="1.6" height="1.6"/>
	<rect x="59.9" y="318.4" class="st11" width="1.6" height="1.6"/>
	<rect x="62.5" y="318.4" class="st11" width="1.6" height="1.6"/>
	<rect x="65.2" y="320.6" class="st11" width="1" height="1"/>
	<rect x="65.4" y="322.5" class="st11" width="1" height="1"/>
	<rect x="67.3" y="322.5" class="st11" width="1" height="1"/>
	<rect x="63.5" y="322.5" class="st11" width="1" height="1"/>
	<rect x="68.1" y="316.1" class="st11" width="1.6" height="1.6"/>
	<rect x="70.6" y="316.1" class="st11" width="1.6" height="1.6"/>
	<rect x="72.9" y="316.1" class="st11" width="1.6" height="1.6"/>
	<rect x="68.1" y="318.4" class="st11" width="1.6" height="1.6"/>
	<rect x="70.6" y="318.4" class="st11" width="1.6" height="1.6"/>
	<rect x="72.9" y="318.4" class="st11" width="1.6" height="1.6"/>
	<rect x="70.6" y="320.9" class="st11" width="1.6" height="1.6"/>
	<rect x="72.9" y="320.9" class="st11" width="1.6" height="1.6"/>
	<path class="st11" d="M59.4,314.8c0,0-0.4-6,2.5-6.5c2.9-0.5,2.3-3.7,2.2-4.6"/>
</g>
<g class="st1">
	<rect x="608.6" y="20.7" class="st7" width="47.1" height="99.8"/>
	<rect x="611.9" y="24.2" class="st10" width="18.7" height="65.2"/>
	<rect x="611.9" y="92.4" class="st10" width="40.3" height="25.2"/>
	<rect x="633.5" y="24.2" class="st10" width="18.7" height="65.2"/>
	<line class="st10" x1="628.9" y1="96.2" x2="635.2" y2="96.2"/>
	<line class="st10" x1="627.9" y1="63.7" x2="627.9" y2="58"/>
	<line class="st10" x1="636" y1="63.7" x2="636" y2="58"/>
</g>
<g class="st1">
	<g>
		<ellipse class="st12" cx="483.4" cy="240.4" rx="17.3" ry="2.4"/>
		<path class="st12" d="M466.1,254.4c0,1.4,7.8,2.4,17.3,2.4s17.3-1,17.3-2.4"/>
		<line class="st12" x1="466.1" y1="240.4" x2="466.1" y2="254.4"/>
		<line class="st12" x1="500.9" y1="240.4" x2="500.9" y2="254.4"/>
	</g>
	<line class="st13" x1="483.4" y1="256.8" x2="483.4" y2="301.8"/>
	<ellipse class="st12" cx="483.4" cy="283.6" rx="9.7" ry="1.7"/>
	<ellipse class="st3" cx="483.4" cy="301" rx="15.8" ry="2.2"/>
</g>
<g class="st1">
	<rect x="63.2" y="405.8" class="st12" width="40.1" height="84.5"/>
	<line class="st13" x1="200.2" y1="402.6" x2="200.2" y2="492.5"/>
	<rect x="68.1" y="417.4" class="st14" width="30.7" height="20.1"/>
	<rect x="68.1" y="441.1" class="st14" width="30.7" height="20.1"/>
	<rect x="68.1" y="465.2" class="st14" width="30.7" height="20.1"/>
	<ellipse class="st15" cx="83.4" cy="425.9" rx="0.4" ry="0.9"/>
	<polygon class="st3" points="83.4,425.9 81.9,429.9 84.9,429.9 	"/>
	<ellipse class="st15" cx="83.4" cy="449.6" rx="0.4" ry="0.9"/>
	<polygon class="st3" points="83.4,449.6 81.9,453.6 84.9,453.6 	"/>
	<ellipse class="st15" cx="83.4" cy="473.3" rx="0.4" ry="0.9"/>
	<polygon class="st3" points="83.4,473.3 81.9,477.3 84.9,477.3 	"/>
	<rect x="61.6" y="402.6" class="st3" width="146.1" height="5.6"/>
</g>
<g class="st1">
	<rect x="49.3" y="79.7" class="st10" width="50.6" height="12.4"/>
	<ellipse class="st10" cx="74.6" cy="86" rx="2" ry="2"/>
	<path class="st10" d="M64.8,117.6"/>
	<path class="st10" d="M103.4,95.6L103.4,95.6v-19H45.8v19c0,0-4.8,16.9-0.3,24.5c4.6,7.6,5.3,2.5,4.6,7.6c-0.8,4.8,0.8-0.3,5.3,0
		s-11.4-6.1-6.1-30.8c0,0,13.4,7.3,18.2,7.3c0,2.8-2.3,3.5,0,5.8c2.3,2.3,5.6,0.3,5.6-3.8c0,4.8,2.5,13.7,3,0c0,4.3,3.8,6.1,6.1,3.5
		c2.3-2.5,0-3,0-5.8c4.3,0,15.4-6.1,17.4-7.1c4.6,24-10.9,31.4-6.3,30.8c4.8-0.3,6.1,4.8,5.3,0c-0.8-4.8,0,0,4.6-7.6
		C108,112.5,103.4,95.6,103.4,95.6z"/>
	<polygon class="st11" points="76.6,95.6 72.6,95.6 70.8,99.1 72.6,102.4 76.6,102.4 78.4,99.1 	"/>
	<polygon class="st11" points="68.5,95.8 65.5,95.8 64.2,98.4 65.5,100.9 68.5,100.9 69.8,98.4 	"/>
	<polygon class="st11" points="83.2,95.8 80.4,95.8 79.2,98.4 80.4,100.9 83.2,100.9 84.7,98.4 	"/>
	<g>
		<path class="st10" d="M74.6,31.4c-13.4,0-24.3,17.4-24.3,38.7c0,1.3,0,2.8,0.3,4h48.3c0-1.3,0.3-2.8,0.3-4
			C98.9,48.6,88,31.4,74.6,31.4z"/>
		<path class="st10" d="M101.9,56.9c-1,0-2,0.8-2,2v5.8c-0.3,0.3-0.5,0.5-0.5,0.8c0,0.3,0.3,0.8,0.5,0.8v8.3c0,1,0.8,2,2,2
			s2-0.8,2-2V58.7C103.7,57.7,102.9,56.9,101.9,56.9z"/>
		<path class="st10" d="M49.3,64.2L49.3,64.2v-5.6c0-1-0.8-2-2-2s-2,0.8-2,2v15.9c0,1,0.8,2,2,2s2-0.8,2-2v-8.3l0,0c0.5,0,1-0.5,1-1
			C50.3,64.7,49.8,64.2,49.3,64.2z"/>
	</g>
	<path class="st10" d="M44.8,89.5L44.8,89.5c0.5,0,1-0.5,1-1v-4.8c0-0.5-0.5-1-1-1l0,0c-0.5,0-1,0.5-1,1v4.8
		C43.5,89,44,89.5,44.8,89.5z"/>
	<path class="st10" d="M104.4,89.5L104.4,89.5c0.5,0,1-0.5,1-1v-4.8c0-0.5-0.5-1-1-1l0,0c-0.5,0-1,0.5-1,1v4.8
		C103.4,89,103.9,89.5,104.4,89.5z"/>
	<ellipse class="st10" cx="45" cy="65.2" rx="0.5" ry="1.3"/>
	<ellipse class="st10" cx="104.2" cy="65.2" rx="0.5" ry="1.3"/>
</g>
<g class="st1">
	<path class="st16" d="M489.4,402h-23.2c-8.7,0-15.8-7.1-15.8-15.8v-8.3c0-8.7,7.1-15.8,15.8-15.8h23.2c8.7,0,15.8,7.1,15.8,15.8
		v8.3C505.2,394.9,498.1,402,489.4,402z"/>
	<g>
		<path class="st2" d="M451.7,410.7c-1.5,0-2.4-0.9-2.4-2.4v-12.9c0-1.5,0.9-2.4,2.4-2.4h52.3c1.5,0,2.4,0.9,2.4,2.4v12.9
			c0,1.5-0.9,2.4-2.4,2.4H451.7z"/>
		<path class="st3" d="M503.9,394.4c0.7,0,1.1,0.5,1.1,1.1v12.9c0,0.7-0.5,1.1-1.1,1.1h-52.3c-0.7,0-1.1-0.4-1.1-1.1v-12.9
			c0-0.7,0.5-1.1,1.1-1.1H503.9 M503.9,392h-52.3c-1.8,0-3.4,1.6-3.4,3.4v12.9c0,1.8,1.6,3.4,3.4,3.4h52.3c1.8,0,3.4-1.6,3.4-3.4
			v-12.9C507.4,393.7,505.7,392,503.9,392L503.9,392z"/>
	</g>
	<g>
		<path class="st2" d="M451.8,420.5L451.8,420.5h-1.3h-0.4c-2.5,0-4.4-1.8-4.4-4.2v-32.1c0-2.4,2-4.2,4.4-4.2c2.4,0,4.4,1.8,4.4,4.2
			v20h45.9v-20c0-2.4,2-4.2,4.4-4.2s4.4,1.8,4.4,4.2v32.1c0,2-1.8,3.8-4.2,4.2h-0.5H451.8z"/>
		<path class="st3" d="M505,381.3c1.8,0,3.3,1.5,3.3,2.9v32.1c0,1.6-1.5,2.9-2.9,2.9h-0.5h-51.9v-0.2l-2.4,0.4h-0.4
			c-1.8,0-3.3-1.5-3.3-2.9v-32.3c0-1.6,1.5-2.9,3.3-2.9c1.8,0,3.3,1.5,3.3,2.9v18.9v2.4h2.4h43.5h2.4v-2.4v-18.9
			C501.9,382.6,503.2,381.3,505,381.3 M505,379c-2.9,0-5.4,2.5-5.4,5.3v18.9H456v-18.9c0-2.9-2.5-5.3-5.4-5.3
			c-2.9,0-5.4,2.5-5.4,5.3v32.1c0,2.9,2.5,5.3,5.4,5.3h0.2l0,0h54.8l0,0c2.7-0.2,5.1-2.5,5.1-5.3v-32.1
			C510.6,381.3,508.3,379,505,379L505,379z"/>
	</g>
	<g>
		<path class="st17" d="M451.5,424.5c-0.4,0-0.7-0.4-0.7-0.7v-0.9c0-0.4,0.4-0.7,0.7-0.7h6c0.4,0,0.7,0.4,0.7,0.7v1.1
			c0,0.4-0.4,0.7-0.7,0.7h-6V424.5z"/>
		<path class="st18" d="M457.5,422.5c0.2,0,0.4,0.2,0.4,0.4v0.9c0,0.2-0.2,0.4-0.4,0.4h-6c-0.2,0-0.2-0.2-0.2-0.4v-0.9
			c0-0.2,0.2-0.4,0.2-0.4H457.5 M457.5,421.6h-6c-0.5,0-1.1,0.5-1.1,1.1v1.1c0,0.7,0.5,1.1,1.1,1.1h6c0.5,0,1.1-0.5,1.1-1.1v-0.9
			C458.7,422.3,458,421.6,457.5,421.6L457.5,421.6z"/>
	</g>
	<g>
		<path class="st17" d="M498.1,424.5c-0.4,0-0.7-0.4-0.7-0.7v-0.9c0-0.4,0.4-0.7,0.7-0.7h6c0.4,0,0.7,0.4,0.7,0.7v1.1
			c0,0.4-0.4,0.7-0.7,0.7h-6V424.5z"/>
		<path class="st18" d="M504.1,422.5c0.2,0,0.4,0.2,0.4,0.4v0.9c0,0.2-0.2,0.4-0.4,0.4h-6c-0.2,0-0.2-0.2-0.2-0.4v-0.9
			c0-0.2,0.2-0.4,0.2-0.4H504.1 M504.1,421.6h-6c-0.5,0-1.1,0.5-1.1,1.1v1.1c0,0.7,0.5,1.1,1.1,1.1h6c0.5,0,1.1-0.5,1.1-1.1v-0.9
			C505.2,422.3,504.6,421.6,504.1,421.6L504.1,421.6z"/>
	</g>
</g>
<g class="st1">
	<rect x="460.8" y="65.2" class="st7" width="62.3" height="62.3"/>
	<rect x="473.7" y="81.8" class="st19" width="36.7" height="1"/>
	<rect x="483.5" y="68.9" class="st7" width="16.8" height="3.3"/>
	<line class="st7" x1="460.8" y1="120.8" x2="523.1" y2="120.8"/>
	<rect x="460.8" y="76.9" class="st7" width="1.3" height="43.9"/>
	<rect x="521.8" y="76.9" class="st7" width="1.3" height="43.9"/>
	<line class="st7" x1="462.1" y1="76.9" x2="521.8" y2="76.9"/>
	<circle class="st7" cx="477.9" cy="70.6" r="2.1"/>
	<circle class="st7" cx="505.8" cy="70.6" r="2.1"/>
	<rect x="468.8" y="87.5" class="st7" width="47.2" height="26.9"/>
</g>
<g class="st1">
	<rect x="24.4" y="570.7" class="st7" width="63" height="63"/>
	<circle class="st7" cx="56" cy="603.3" r="20"/>
	<circle class="st7" cx="29" cy="574.7" r="1.3"/>
	<circle class="st7" cx="34" cy="574.7" r="1.3"/>
	<line class="st7" x1="38.3" y1="574.7" x2="47.7" y2="574.7"/>
	<circle class="st7" cx="56" cy="603.3" r="14.2"/>
	<ellipse class="st3" cx="74.5" cy="603.3" rx="1.5" ry="5.5"/>
</g>
<g class="st1">
	<rect x="227" y="206.1" class="st7" width="47.7" height="64.5"/>
	<circle class="st7" cx="250.9" cy="217.1" r="0.2"/>
	<g>
		<path class="st3" d="M250.9,213.9c0.4,1.1,0.4,2.3,0.4,3.4c0,1.1-0.2,2.3-0.4,3.4c-0.4-1.1-0.4-2.3-0.4-3.4
			C250.6,216,250.6,214.9,250.9,213.9z"/>
	</g>
	<g>
		<path class="st3" d="M247.9,217.1c1.1-0.4,2.1-0.4,3.2-0.4s2.1,0.2,3.2,0.4c-1.1,0.4-2.1,0.4-3.2,0.4
			C249.8,217.6,248.8,217.4,247.9,217.1z"/>
	</g>
	<circle class="st7" cx="236.8" cy="217.1" r="0.2"/>
	<g>
		<path class="st3" d="M236.8,213.8c0.4,1.1,0.4,2.3,0.4,3.4s-0.2,2.3-0.4,3.4c-0.4-1.1-0.4-2.3-0.4-3.4
			C236.3,215.9,236.5,214.8,236.8,213.8z"/>
	</g>
	<g>
		<path class="st3" d="M233.6,217c1.1-0.4,2.1-0.4,3.2-0.4c1.1,0,2.1,0.2,3.2,0.4c-1.1,0.4-2.1,0.4-3.2,0.4
			C235.8,217.5,234.7,217.3,233.6,217z"/>
	</g>
	<circle class="st7" cx="250.9" cy="238.3" r="0.2"/>
	<g>
		<path class="st3" d="M250.9,234.9c0.4,1.1,0.4,2.3,0.4,3.4c0,1.1-0.2,2.3-0.4,3.4c-0.4-1.1-0.4-2.3-0.4-3.4
			C250.6,237.2,250.6,235.9,250.9,234.9z"/>
	</g>
	<g>
		<path class="st3" d="M247.9,238.2c1.1-0.4,2.1-0.4,3.2-0.4s2.1,0.2,3.2,0.4c-1.1,0.4-2.1,0.4-3.2,0.4
			C249.8,238.6,248.8,238.6,247.9,238.2z"/>
	</g>
	<circle class="st7" cx="236.8" cy="238.3" r="0.2"/>
	<g>
		<path class="st3" d="M236.8,234.9c0.4,1.1,0.4,2.3,0.4,3.4c0,1.1-0.2,2.3-0.4,3.4c-0.4-1.1-0.4-2.3-0.4-3.4
			C236.3,237.2,236.5,235.9,236.8,234.9z"/>
	</g>
	<g>
		<path class="st3" d="M233.6,238.2c1.1-0.4,2.1-0.4,3.2-0.4c1.1,0,2.1,0.2,3.2,0.4c-1.1,0.4-2.1,0.4-3.2,0.4
			C235.8,238.6,234.7,238.6,233.6,238.2z"/>
	</g>
	<circle class="st7" cx="236.8" cy="259.4" r="0.2"/>
	<g>
		<path class="st3" d="M236.8,256.1c0.4,1.1,0.4,2.3,0.4,3.4c0,1.1-0.2,2.3-0.4,3.4c-0.4-1.1-0.4-2.3-0.4-3.4
			C236.3,258.2,236.5,257.1,236.8,256.1z"/>
	</g>
	<g>
		<path class="st3" d="M233.6,259.4c1.1-0.4,2.1-0.4,3.2-0.4c1.1,0,2.1,0.2,3.2,0.4c-1.1,0.4-2.1,0.4-3.2,0.4
			C235.8,259.8,234.7,259.8,233.6,259.4z"/>
	</g>
	<circle class="st7" cx="251.1" cy="259.4" r="0.2"/>
	<g>
		<path class="st3" d="M251.1,256.1c0.4,1.1,0.4,2.3,0.4,3.4c0,1.1-0.2,2.3-0.4,3.4c-0.4-1.1-0.4-2.3-0.4-3.4
			C250.7,258.2,250.7,257.1,251.1,256.1z"/>
	</g>
	<g>
		<path class="st3" d="M247.9,259.4c1.1-0.4,2.1-0.4,3.2-0.4s2.1,0.2,3.2,0.4c-1.1,0.4-2.1,0.4-3.2,0.4S248.9,259.8,247.9,259.4z"/>
	</g>
	<circle class="st7" cx="266.2" cy="259.2" r="0.2"/>
	<g>
		<path class="st3" d="M266.2,255.9c0.4,1.1,0.4,2.3,0.4,3.4c0,1.1-0.2,2.3-0.4,3.4c-0.4-1.1-0.4-2.3-0.4-3.4
			S265.9,256.9,266.2,255.9z"/>
	</g>
	<g>
		<path class="st3" d="M263.2,259.3c1.1-0.4,2.1-0.4,3.2-0.4c1.1,0,2.1,0.2,3.2,0.4c-1.2,0.4-2.3,0.4-3.4,0.4
			C265.2,259.6,264.3,259.6,263.2,259.3z"/>
	</g>
	<circle class="st7" cx="266.2" cy="238" r="0.2"/>
	<g>
		<path class="st3" d="M266.2,234.7c0.4,1.1,0.4,2.3,0.4,3.4c0,1.1-0.2,2.3-0.4,3.4c-0.4-1.1-0.4-2.3-0.4-3.4
			C265.9,237,265.9,235.7,266.2,234.7z"/>
	</g>
	<g>
		<path class="st3" d="M263.2,238.1c1.1-0.4,2.1-0.4,3.2-0.4c1.1,0,2.1,0.2,3.2,0.4c-1.1,0.4-2.1,0.4-3.2,0.4
			C265.2,238.4,264.3,238.4,263.2,238.1z"/>
	</g>
	<circle class="st7" cx="266.2" cy="217.1" r="0.2"/>
	<g>
		<path class="st3" d="M266.2,213.7c0.4,1.1,0.4,2.3,0.4,3.4s-0.2,2.3-0.4,3.4c-0.4-1.1-0.4-2.3-0.4-3.4S265.9,214.9,266.2,213.7z"
			/>
	</g>
	<g>
		<path class="st3" d="M263.2,217.1c1.1-0.4,2.1-0.4,3.2-0.4c1.1,0,2.1,0.2,3.2,0.4c-1.1,0.4-2.1,0.4-3.2,0.4
			C265.2,217.6,264.3,217.4,263.2,217.1z"/>
	</g>
</g>
<g class="st1">
	<path class="st7" d="M564.8,214.8v-22.4c0,0,32.3-14.5,69.4,0v22.4"/>
	<line class="st7" x1="564.8" y1="214.8" x2="633.9" y2="214.8"/>
	<line class="st20" x1="563.7" y1="206.1" x2="557.5" y2="213"/>
	<line class="st7" x1="563.7" y1="206.1" x2="557.5" y2="213"/>
	<line class="st20" x1="641.2" y1="213" x2="635" y2="206.1"/>
	<line class="st7" x1="641.2" y1="213" x2="635" y2="206.1"/>
	<line class="st21" x1="557.5" y1="213" x2="557.5" y2="241.9"/>
	<line class="st21" x1="641.2" y1="213" x2="641.2" y2="241.9"/>
	<line class="st21" x1="633.9" y1="213" x2="633.9" y2="241.9"/>
	<line class="st21" x1="564.8" y1="213" x2="564.8" y2="241.9"/>
	<polygon class="st3" points="641.2,227.6 557.5,227.6 564.8,218.7 633.9,218.7 	"/>
	<line class="st7" x1="633.9" y1="199" x2="620.2" y2="214.5"/>
	<line class="st7" x1="627.1" y1="191.1" x2="606" y2="214.3"/>
	<line class="st7" x1="613.3" y1="186.9" x2="588.3" y2="214.8"/>
	<line class="st7" x1="596.7" y1="186.2" x2="571" y2="214.8"/>
	<line class="st7" x1="577.4" y1="188.4" x2="565.7" y2="201.7"/>
	<line class="st7" x1="618.6" y1="188.9" x2="634.4" y2="206.4"/>
	<line class="st7" x1="604" y1="185.9" x2="629.5" y2="214.5"/>
	<line class="st7" x1="589.2" y1="186.4" x2="614.4" y2="214.5"/>
	<line class="st7" x1="575.9" y1="188.9" x2="598.9" y2="214.5"/>
	<line class="st7" x1="566.1" y1="191.8" x2="586.9" y2="214.8"/>
	<line class="st7" x1="565.5" y1="203.4" x2="575.2" y2="214.3"/>
</g>
<g class="st1">
	<rect x="103.6" y="186.4" class="st12" width="62" height="36.6"/>
	<line class="st12" x1="103.6" y1="186.4" x2="121" y2="173.3"/>
	<line class="st12" x1="176.5" y1="173.5" x2="120.4" y2="173.5"/>
	<line class="st7" x1="165.6" y1="186.4" x2="176.4" y2="174.1"/>
	<line class="st7" x1="176.5" y1="173.5" x2="176.5" y2="209.7"/>
	<line class="st7" x1="166" y1="223" x2="176.5" y2="209.7"/>
	<line class="st7" x1="113.5" y1="179.9" x2="171.3" y2="179.9"/>
</g>
<g class="st1">
	<circle class="st7" cx="347" cy="318.7" r="10.7"/>
	<circle class="st7" cx="389.1" cy="318.7" r="10.7"/>
	<line class="st7" x1="347" y1="289.2" x2="347" y2="318.7"/>
	<line class="st7" x1="389.1" y1="317.5" x2="377.4" y2="300.4"/>
	<line class="st7" x1="347" y1="300.4" x2="377.4" y2="300.4"/>
	<line class="st7" x1="336.4" y1="289.2" x2="357.7" y2="289.2"/>
	<line class="st7" x1="377.4" y1="293.3" x2="377.4" y2="300.4"/>
	<ellipse class="st3" cx="377.4" cy="293.9" rx="9.5" ry="2"/>
</g>
<path class="st13" d="M284.8,517.3c18.4,18.4,18.4,48.3,0,66.7c-14.7,14.7-38.6,14.7-53.3,0c-11.8-11.8-11.8-30.9,0-42.7
	c9.4-9.4,24.7-9.4,34.1,0c7.5,7.5,7.5,19.8,0,27.3c-6,6-15.8,6-21.9,0c-4.8-4.8-4.8-12.7,0-17.5c3.9-3.9,10.1-3.9,14,0
	c3.1,3.1,3.1,8.1,0,11.2c-2.5,2.5-6.5,2.5-9,0"/>
<path class="st13" d="M636.6,577.5c-13.6,3.5-27.4-4.6-30.9-18.2c-2.8-10.8,3.7-21.9,14.6-24.7c8.7-2.3,17.5,3,19.8,11.6
	c1.8,6.9-2.4,14-9.3,15.8c-5.6,1.4-11.2-1.9-12.7-7.4c-1.2-4.4,1.5-9,6-10.1c3.6-0.9,7.2,1.2,8.1,4.8c0.7,2.8-1,5.7-3.8,6.5
	c-2.3,0.6-4.6-0.8-5.2-3.1c-0.5-1.8,0.6-3.7,2.4-4.2"/>
<path class="st13" d="M696.2,236.4c7.1-16.5,26.3-24.2,42.8-17.1c13.2,5.7,19.3,21,13.7,34.2c-4.5,10.6-16.8,15.5-27.4,10.9
	c-8.5-3.6-12.4-13.4-8.7-21.9c2.9-6.8,10.8-9.9,17.5-7c5.4,2.3,7.9,8.6,5.6,14c-1.9,4.3-6.9,6.3-11.2,4.5c-3.5-1.5-5.1-5.5-3.6-9
	c1.2-2.8,4.4-4.1,7.2-2.9c2.2,1,3.2,3.5,2.3,5.7"/>
<path class="st13" d="M295.2,765.9c0-20.9,40-37.8,89.4-37.8"/>
<path class="st13" d="M557.7,296c0,11.6-9,20.9-20,20.9"/>
<path class="st13" d="M810.5,285.3c0-14.1,12.2-25.5,27.2-25.5"/>
<polygon class="st32" points="470.9,484.5 491.2,486.6 504.4,471.1 508.7,491 527.6,498.8 510,509.1 508.4,529.5 493.2,515.8 
	473.3,520.6 481.6,501.9 "/>
</svg>
