<?xml version="1.0" encoding="utf-8"?>
<!-- Generator: Adobe Illustrator 21.1.0, SVG Export Plug-In . SVG Version: 6.00 Build 0)  -->
<svg version="1.1" xmlns="http://www.w3.org/2000/svg" xmlns:xlink="http://www.w3.org/1999/xlink" x="0px" y="0px"
	 viewBox="0 0 240.7 213.3" style="enable-background:new 0 0 240.7 213.3;" xml:space="preserve">
<style type="text/css">
	.st0{fill:none;stroke:#FDE8CB;stroke-linecap:round;stroke-linejoin:round;stroke-miterlimit:10;}
	.st1{opacity:0.7;fill:url(#SVGID_1_);}
	.st2{fill:#FFC580;}
	.st3{fill:#878787;}
	.st4{fill:#C69847;}
	.st5{fill:none;stroke:url(#SVGID_2_);stroke-width:2;stroke-linejoin:round;stroke-miterlimit:10;}
	.st6{fill:none;stroke:#878787;stroke-miterlimit:10;}
	.st7{fill:none;stroke:#C69847;stroke-miterlimit:10;}
	.st8{fill:#FEE9CF;}
	.st9{fill:#FDE8CB;}
</style>
<g id="Calque_2">
	<path class="st0" d="M161.8,76.8c0,0-18.2,5.5-31.2,19"/>
</g>
<g id="Ombre_maison">
	<linearGradient id="SVGID_1_" gradientUnits="userSpaceOnUse" x1="122.0546" y1="158.5196" x2="122.0546" y2="93.1599">
		<stop  offset="0" style="stop-color:#FFFFFF;stop-opacity:0.5"/>
		<stop  offset="0.2322" style="stop-color:#DADAD9;stop-opacity:0.5"/>
		<stop  offset="0.4488" style="stop-color:#BEBEBD;stop-opacity:0.5"/>
		<stop  offset="0.573" style="stop-color:#B3B3B2;stop-opacity:0.5"/>
		<stop  offset="1" style="stop-color:#3C3C3B;stop-opacity:0.5"/>
	</linearGradient>
	<polygon class="st1" points="160.3,161.1 160.3,112.5 121.7,91.3 83.8,112.5 83.8,161 122.1,161.4 	"/>
</g>
<g id="Main">
	<path class="st2" d="M181.3,128.5c0,0,8.2-26.8,8.2-32c0-5.2-5.5-21.2-6-30l-3-41.2c-0.2-10.7,1.2-10-4.4-10
		c-4.1,0-27.5-0.2-38.2,0.2c-13.7,0.5-6,26.8-9.5,29.2c-2.1,1.4-19.4,10.3-28.9,15.5c-8.9,4.4-22.1,9.7-26.1,11.6
		c0,0-25.1,8.4-36.1,18.2c-1.8,2-8.2,6.2,6.3,7.7l0,0c-7.7,7.8-14.1,14.9-16.6,16.9c-1.2,1-0.5,4.8,6.4,5.8
		c-2.3,8.7-7.8,17.5-7.5,18.9c0.4,1.7,8.8,5.7,13.9-1.4c12.1-9.9,24.8-28.4,25.7-27.8c0.9,0.6-0.2,11.8-0.4,18.5
		c-0.2,6.6,0.2,22.8,0.2,22.8s2.6,8.5,8.3,5.9c5.7-2.6,10.2-5.2,10.4-14.2c0.2-9,0.5-30.3,0.5-30.3l37.9-20.4l38.6,20.4v31.5
		c0,0,4.5,13.5,12.3,13.5c7.8,0,8.5-5.9,8.8-7.4C182.2,148.9,180.3,136.1,181.3,128.5z"/>
</g>
<g id="Porte">
	<polygon class="st3" points="130.6,161.9 117.2,165.9 117.2,144.9 130.6,140.7 	"/>
	<polygon class="st4" points="129.5,139.8 113.9,139.8 113.9,161.9 116.1,165.2 116.2,143.9 	"/>
</g>
<g id="Maison_contoure">
</g>
<g id="Contour_Maison">
	<linearGradient id="SVGID_2_" gradientUnits="userSpaceOnUse" x1="161.8958" y1="126.4732" x2="83.3462" y2="126.4732">
		<stop  offset="0" style="stop-color:#878787"/>
		<stop  offset="0.9927" style="stop-color:#C69847"/>
	</linearGradient>
	<polyline class="st5" points="160.9,161.2 160.9,112.3 122.3,91.9 84.3,112.3 84.3,162.1 	"/>
	<line class="st6" x1="130.6" y1="161.6" x2="206.8" y2="161.6"/>
	<line class="st7" x1="38.2" y1="161.6" x2="114.3" y2="161.6"/>
</g>
<g id="Details_main">
	<path class="st0" d="M74.6,78.8c0,0-18.2,5.5-31.2,19"/>
	<path class="st0" d="M84.3,80c0,0-23.5,11.1-31.9,19.6c-8.4,8.5-18.7,19.9-18.7,19.9"/>
	<path class="st0" d="M94.2,87.5c0,0-22.2,7.6-25.6,15c-3.4,7.5-3.4,7.5-3.4,7.5"/>
</g>
<g id="Texte">
	<g>
		<path d="M39.9,169.5h5.8c1.8,0,3.3,0.2,4.6,0.5c1.3,0.3,2.4,0.9,3.2,1.6c1,0.8,1.7,1.8,2.2,2.9c0.5,1.1,0.7,2.3,0.7,3.6
			c0,1.2-0.2,2.4-0.7,3.4c-0.4,1.1-1.1,2-1.9,2.8c-0.9,0.8-1.9,1.4-3.2,1.9c-1.3,0.5-2.7,0.7-4.3,0.7h-6.5V169.5z M42.8,185.6h3.1
			c1,0,1.9-0.2,2.8-0.5c0.9-0.3,1.6-0.8,2.3-1.4c0.6-0.6,1.2-1.4,1.5-2.4c0.4-0.9,0.6-2,0.6-3.2c0-1.1-0.2-2-0.5-2.9
			s-0.8-1.7-1.5-2.3c-0.6-0.6-1.4-1.1-2.2-1.5c-0.9-0.4-1.8-0.5-2.9-0.5h-3.1V185.6z"/>
		<path d="M65.4,187.2c-0.9,0-1.8-0.2-2.6-0.5c-0.8-0.3-1.5-0.8-2.1-1.4c-0.6-0.6-1.1-1.3-1.4-2.1c-0.3-0.8-0.5-1.6-0.5-2.5
			c0-1.1,0.2-2.1,0.5-3c0.3-0.9,0.8-1.7,1.3-2.4c0.6-0.7,1.3-1.2,2.1-1.6c0.8-0.4,1.7-0.6,2.7-0.6c0.9,0,1.7,0.2,2.4,0.5
			c0.7,0.3,1.4,0.7,1.9,1.2c0.5,0.5,0.9,1.1,1.2,1.8c0.3,0.7,0.4,1.4,0.4,2.1h-10c0,0.9,0.1,1.7,0.3,2.5c0.2,0.8,0.6,1.4,1,2
			c0.4,0.6,0.9,1,1.5,1.3c0.6,0.3,1.2,0.5,1.9,0.5c0.6,0,1.1-0.1,1.7-0.3c0.5-0.2,1-0.4,1.4-0.7c0.4-0.3,0.8-0.7,1.1-1
			c0.3-0.4,0.5-0.8,0.6-1.2l0.8,0.3c-0.2,0.7-0.5,1.3-0.9,1.9c-0.4,0.6-0.9,1.1-1.5,1.6c-0.6,0.4-1.2,0.8-1.9,1.1
			C66.8,187,66.1,187.2,65.4,187.2z M68.1,177.8c0-0.5-0.1-1-0.3-1.4c-0.2-0.4-0.4-0.8-0.7-1.1c-0.3-0.3-0.7-0.6-1.1-0.8
			c-0.4-0.2-0.9-0.3-1.4-0.3c-0.4,0-0.8,0.1-1.2,0.3c-0.4,0.2-0.7,0.4-1,0.7c-0.3,0.3-0.5,0.7-0.7,1.1c-0.2,0.4-0.3,0.9-0.3,1.4
			L68.1,177.8z"/>
		<path d="M74.3,173.4H77v2.5c0.3-0.4,0.7-0.7,1.2-1.1c0.4-0.3,0.9-0.6,1.3-0.9c0.5-0.3,0.9-0.5,1.4-0.6c0.5-0.1,0.9-0.2,1.3-0.2
			c0.4,0,0.8,0.1,1.2,0.2c0.4,0.1,0.8,0.3,1.1,0.6c0.3,0.3,0.6,0.6,0.9,0.9c0.2,0.3,0.4,0.7,0.5,1.1c0.2-0.4,0.5-0.8,0.9-1.1
			c0.4-0.3,0.8-0.6,1.3-0.9c0.5-0.3,1-0.5,1.5-0.6c0.5-0.1,1-0.2,1.5-0.2c0.5,0,1,0.1,1.4,0.3c0.4,0.2,0.8,0.5,1.2,0.9
			c0.3,0.4,0.6,0.8,0.8,1.3c0.2,0.5,0.3,1.1,0.3,1.6v9.5h-2.7v-9.1c0-0.4-0.1-0.7-0.2-1.1c-0.1-0.3-0.3-0.6-0.5-0.9
			c-0.2-0.3-0.5-0.5-0.8-0.6c-0.3-0.1-0.6-0.2-0.9-0.2c-0.4,0-0.7,0-1.1,0.2c-0.4,0.1-0.7,0.2-1.1,0.4c-0.3,0.2-0.7,0.4-0.9,0.6
			c-0.3,0.2-0.5,0.5-0.7,0.7v10h-2.7v-9.1c0-0.4-0.1-0.7-0.2-1.1c-0.1-0.3-0.3-0.6-0.5-0.9c-0.2-0.3-0.5-0.5-0.8-0.6
			c-0.3-0.1-0.6-0.2-0.9-0.2c-0.3,0-0.7,0.1-1.1,0.2c-0.4,0.1-0.7,0.2-1.1,0.4c-0.3,0.2-0.7,0.4-1,0.6c-0.3,0.2-0.5,0.5-0.7,0.7v10
			h-2.7V173.4z"/>
		<path d="M103.8,187.2c-0.9,0-1.8-0.2-2.6-0.5c-0.8-0.3-1.5-0.8-2.1-1.4c-0.6-0.6-1.1-1.3-1.4-2.1c-0.3-0.8-0.5-1.6-0.5-2.5
			c0-1.1,0.2-2.1,0.5-3c0.3-0.9,0.8-1.7,1.3-2.4c0.6-0.7,1.3-1.2,2.1-1.6c0.8-0.4,1.7-0.6,2.7-0.6c0.9,0,1.7,0.2,2.4,0.5
			c0.7,0.3,1.4,0.7,1.9,1.2c0.5,0.5,0.9,1.1,1.2,1.8c0.3,0.7,0.4,1.4,0.4,2.1h-10c0,0.9,0.1,1.7,0.3,2.5c0.2,0.8,0.6,1.4,1,2
			c0.4,0.6,0.9,1,1.5,1.3c0.6,0.3,1.2,0.5,1.9,0.5c0.6,0,1.1-0.1,1.7-0.3c0.5-0.2,1-0.4,1.4-0.7c0.4-0.3,0.8-0.7,1.1-1
			c0.3-0.4,0.5-0.8,0.6-1.2l0.8,0.3c-0.2,0.7-0.5,1.3-0.9,1.9c-0.4,0.6-0.9,1.1-1.5,1.6c-0.6,0.4-1.2,0.8-1.9,1.1
			C105.1,187,104.5,187.2,103.8,187.2z M106.4,177.8c0-0.5-0.1-1-0.3-1.4c-0.2-0.4-0.4-0.8-0.7-1.1c-0.3-0.3-0.7-0.6-1.1-0.8
			c-0.4-0.2-0.9-0.3-1.4-0.3c-0.4,0-0.8,0.1-1.2,0.3c-0.4,0.2-0.7,0.4-1,0.7s-0.5,0.7-0.7,1.1c-0.2,0.4-0.3,0.9-0.3,1.4L106.4,177.8
			z"/>
		<path d="M112.6,173.4h2.7v2.4c0.8-0.9,1.6-1.6,2.5-2c0.9-0.5,1.8-0.7,2.7-0.7c0.5,0,0.9,0.1,1.3,0.3c0.4,0.2,0.8,0.5,1.1,0.9
			c0.3,0.4,0.5,0.8,0.7,1.3c0.2,0.5,0.3,1,0.3,1.6v9.6h-2.7v-9.2c0-0.9-0.2-1.6-0.6-2c-0.4-0.5-0.9-0.7-1.5-0.7
			c-0.3,0-0.6,0-0.9,0.1c-0.3,0.1-0.6,0.2-1,0.4c-0.3,0.2-0.6,0.4-1,0.6c-0.3,0.2-0.6,0.5-0.9,0.8v9.9h-2.7V173.4z"/>
		<path d="M126.3,174.6c0.4-0.1,0.8-0.3,1.1-0.5c0.3-0.2,0.6-0.4,0.9-0.7c0.3-0.3,0.5-0.5,0.6-0.9c0.1-0.3,0.2-0.6,0.2-0.9
			c0-0.2,0-0.4-0.1-0.5c-0.1-0.1-0.2-0.2-0.3-0.2c-0.1,0-0.2,0-0.3,0.1c-0.1,0-0.2,0.1-0.2,0.1c-0.1,0.1-0.2,0.1-0.3,0.1
			c-0.1,0-0.2,0.1-0.4,0.1c-0.2,0-0.3,0-0.5-0.1c-0.2-0.1-0.3-0.2-0.4-0.3c-0.1-0.1-0.2-0.3-0.3-0.5c-0.1-0.2-0.1-0.4-0.1-0.6
			c0-0.2,0-0.4,0.1-0.6c0.1-0.2,0.2-0.4,0.4-0.5c0.2-0.1,0.4-0.3,0.6-0.3c0.2-0.1,0.4-0.1,0.7-0.1c0.3,0,0.6,0.1,0.9,0.2
			c0.3,0.1,0.5,0.3,0.7,0.6c0.2,0.2,0.4,0.5,0.5,0.9c0.1,0.3,0.2,0.7,0.2,1.1c0,0.6-0.1,1.1-0.3,1.6c-0.2,0.5-0.5,0.9-0.9,1.3
			c-0.4,0.4-0.8,0.7-1.3,0.9c-0.5,0.2-1,0.4-1.6,0.4V174.6z"/>
		<path d="M136.5,178.5v8.3h-2.9v-17.4h2.9v7.9h8.7v-7.9h2.9v17.4h-2.9v-8.3H136.5z"/>
		<path d="M158.4,187.2c-1,0-2-0.2-2.8-0.5c-0.9-0.4-1.6-0.8-2.2-1.5c-0.6-0.6-1.1-1.3-1.5-2.2c-0.4-0.8-0.5-1.7-0.5-2.7
			c0-1,0.2-1.9,0.5-2.8c0.4-0.9,0.8-1.6,1.5-2.3c0.6-0.6,1.4-1.2,2.2-1.5c0.9-0.4,1.8-0.6,2.8-0.6c1,0,2,0.2,2.8,0.5
			c0.9,0.3,1.6,0.8,2.2,1.4c0.6,0.6,1.1,1.3,1.5,2.1c0.4,0.8,0.5,1.7,0.5,2.6c0,1-0.2,2-0.5,2.9c-0.4,0.9-0.8,1.7-1.5,2.3
			c-0.6,0.7-1.4,1.2-2.2,1.6C160.4,187,159.4,187.2,158.4,187.2z M158.9,186.2c0.5,0,1-0.1,1.4-0.4c0.4-0.3,0.8-0.6,1.1-1.1
			c0.3-0.5,0.6-1,0.7-1.6c0.2-0.6,0.3-1.2,0.3-1.9c0-1-0.1-1.9-0.3-2.7c-0.2-0.8-0.4-1.6-0.8-2.2c-0.4-0.6-0.9-1.1-1.5-1.5
			c-0.6-0.4-1.3-0.5-2.2-0.5c-0.4,0-0.9,0.1-1.3,0.4c-0.4,0.3-0.8,0.6-1.1,1.1c-0.3,0.4-0.6,1-0.8,1.6c-0.2,0.6-0.3,1.2-0.3,1.9
			c0,1,0.1,1.9,0.3,2.7c0.2,0.9,0.5,1.6,0.9,2.2c0.4,0.6,0.9,1.1,1.5,1.5C157.6,186,158.2,186.2,158.9,186.2z"/>
		<path d="M170.7,173.4v9.5c0,0.3,0.1,0.6,0.2,0.9c0.2,0.3,0.4,0.6,0.6,0.8c0.3,0.2,0.6,0.4,0.9,0.5c0.4,0.1,0.7,0.2,1.1,0.2
			c0.3,0,0.6-0.1,0.9-0.2c0.3-0.1,0.6-0.3,0.9-0.5c0.3-0.2,0.6-0.4,0.8-0.7c0.3-0.3,0.5-0.5,0.6-0.8v-9.8h2.7v13.4h-2.7v-2.5
			c-0.2,0.4-0.5,0.7-0.9,1.1c-0.4,0.3-0.7,0.6-1.1,0.9c-0.4,0.3-0.8,0.5-1.3,0.6c-0.4,0.1-0.9,0.2-1.2,0.2c-0.6,0-1.1-0.1-1.6-0.3
			c-0.5-0.2-1-0.5-1.4-0.9c-0.4-0.4-0.7-0.8-0.9-1.3c-0.2-0.5-0.3-1-0.3-1.6v-9.5H170.7z"/>
		<path d="M186.9,186.2c0.4,0,0.7-0.1,1-0.2c0.3-0.1,0.6-0.3,0.8-0.4c0.2-0.2,0.4-0.4,0.5-0.6c0.1-0.2,0.2-0.5,0.2-0.7
			c0-0.4-0.1-0.8-0.3-1.1c-0.2-0.3-0.5-0.6-0.8-0.8c-0.3-0.2-0.7-0.5-1.2-0.7c-0.4-0.2-0.9-0.4-1.3-0.6c-0.4-0.2-0.9-0.4-1.3-0.7
			c-0.4-0.2-0.8-0.5-1.2-0.8c-0.3-0.3-0.6-0.7-0.8-1.1c-0.2-0.4-0.3-0.9-0.3-1.5c0-0.5,0.1-1,0.3-1.5c0.2-0.5,0.5-0.9,0.9-1.2
			c0.4-0.3,0.9-0.6,1.4-0.8c0.6-0.2,1.2-0.3,1.8-0.3c0.4,0,0.9,0,1.2,0.1c0.4,0.1,0.8,0.2,1.1,0.4c0.4,0.2,0.7,0.4,1.1,0.8
			c0.4,0.3,0.8,0.7,1.2,1.3l-1,0.9c-0.5-0.8-1.1-1.5-1.7-1.9c-0.6-0.4-1.3-0.6-2-0.6c-0.4,0-0.7,0-1,0.1c-0.3,0.1-0.6,0.2-0.8,0.4
			c-0.2,0.2-0.4,0.4-0.5,0.6c-0.1,0.2-0.2,0.4-0.2,0.7c0,0.4,0.1,0.7,0.3,1c0.2,0.3,0.5,0.6,0.9,0.8c0.4,0.2,0.8,0.5,1.3,0.7
			c0.5,0.2,0.9,0.4,1.4,0.6c0.5,0.2,1,0.4,1.4,0.7c0.5,0.2,0.9,0.5,1.2,0.8c0.4,0.3,0.7,0.7,0.9,1.1c0.2,0.4,0.3,0.9,0.3,1.5
			c0,0.6-0.1,1.1-0.3,1.6c-0.2,0.5-0.5,0.9-1,1.3c-0.4,0.4-1,0.6-1.6,0.9c-0.6,0.2-1.4,0.3-2.3,0.3c-0.4,0-0.8,0-1.2-0.1
			c-0.4-0.1-0.8-0.2-1.3-0.4c-0.4-0.2-0.8-0.4-1.3-0.8c-0.4-0.3-0.8-0.7-1.2-1.3l1.1-1c0.3,0.5,0.6,0.8,0.9,1.2
			c0.3,0.3,0.6,0.6,0.9,0.8c0.3,0.2,0.6,0.4,0.9,0.5C186.2,186.2,186.5,186.2,186.9,186.2z"/>
		<path d="M200.7,187.2c-0.9,0-1.8-0.2-2.6-0.5c-0.8-0.3-1.5-0.8-2.1-1.4c-0.6-0.6-1.1-1.3-1.4-2.1c-0.3-0.8-0.5-1.6-0.5-2.5
			c0-1.1,0.2-2.1,0.5-3c0.3-0.9,0.8-1.7,1.3-2.4c0.6-0.7,1.3-1.2,2.1-1.6c0.8-0.4,1.7-0.6,2.7-0.6c0.9,0,1.7,0.2,2.4,0.5
			c0.7,0.3,1.4,0.7,1.9,1.2c0.5,0.5,0.9,1.1,1.2,1.8c0.3,0.7,0.4,1.4,0.4,2.1h-10c0,0.9,0.1,1.7,0.3,2.5c0.2,0.8,0.6,1.4,1,2
			c0.4,0.6,0.9,1,1.5,1.3s1.2,0.5,1.9,0.5c0.6,0,1.1-0.1,1.7-0.3c0.5-0.2,1-0.4,1.4-0.7c0.4-0.3,0.8-0.7,1.1-1
			c0.3-0.4,0.5-0.8,0.6-1.2l0.8,0.3c-0.2,0.7-0.5,1.3-0.9,1.9c-0.4,0.6-0.9,1.1-1.5,1.6c-0.6,0.4-1.2,0.8-1.9,1.1
			C202.1,187,201.4,187.2,200.7,187.2z M203.4,177.8c0-0.5-0.1-1-0.3-1.4c-0.2-0.4-0.4-0.8-0.7-1.1c-0.3-0.3-0.7-0.6-1.1-0.8
			c-0.4-0.2-0.9-0.3-1.4-0.3c-0.4,0-0.8,0.1-1.2,0.3c-0.4,0.2-0.7,0.4-1,0.7c-0.3,0.3-0.5,0.7-0.7,1.1c-0.2,0.4-0.3,0.9-0.3,1.4
			L203.4,177.8z"/>
	</g>
	<path class="st7" d="M114.3,161.6"/>
	<path class="st7" d="M38.2,161.6"/>
</g>
<g id="Ongles">
	<path class="st8" d="M181.2,131.7c0,0-5.9,3.2-4.7,9.9c1.2,6.8,2.4,12.5,4.4,12.9C183,155,181.7,135,181.2,131.7z"/>
	<path class="st9" d="M69.2,157.1c0,0,6.8-13,1.1-18.3c-5.8-5.3-5.3-4.1-5.3-4.1s-1.7,16.7,1.8,20.3C66.7,155,68,156.6,69.2,157.1z"
		/>
	<path class="st9" d="M36.2,105.3c0,0,1.3,3.2-4.2,8.3c-2.3,2.4-6,2.4-5.9,1.7c0.2-0.7,9.9-10,9.9-10"/>
	<path class="st9" d="M33,121.3c0.2,0,5.1,7.5,1.5,12.4c-3.6,4.9-5.7,8.3-8.3,6.2C23.6,137.9,32.7,121.3,33,121.3z"/>
	<path class="st9" d="M44.5,84.6c0.2,0.1,1.5,2.9-8.3,8.2c-5,2.6-0.5-1.9,0.4-2.8C37.8,89,44.2,84.5,44.5,84.6z"/>
</g>
</svg>
